<svg width="532" height="596" viewBox="0 0 532 596" fill="none" xmlns="http://www.w3.org/2000/svg">
<path fill-rule="evenodd" clip-rule="evenodd" d="M414.514 41.3182C412.663 41.3182 411.322 37.6331 409.492 37.6127C407.188 37.5923 404.857 37.2656 402.588 36.779C400.546 36.3366 401.349 34.9143 401.849 33.6145C402.384 32.1853 402.043 30.6983 400.869 29.8136C399.396 28.7146 397.705 27.8707 396.031 27.0506C394.217 26.1591 392.393 26.2102 390.944 27.7652C388.888 29.9634 386.677 31.4061 383.549 30.1437C380.82 29.048 378.102 29.3849 375.277 29.8681C374.165 30.062 372.698 29.1297 371.643 28.3675C370.99 27.8979 370.643 26.826 370.442 25.955C370.221 24.9988 370.942 24.4407 372.116 24.4033C374.502 24.3285 376.724 23.7738 378.612 22.1881C380.385 20.6841 382.192 19.1937 383.985 17.6897C384.965 16.8663 384.54 14.9097 383.298 14.1815C377.231 10.5781 370.497 8.63851 363.865 6.52202C362.895 6.21577 361.34 7.34547 360.237 8.08046C359.516 8.56705 359.091 9.52662 358.594 10.316C357.944 11.3403 357.27 11.6737 356.682 11.0987C356.365 10.8128 356.144 10.2854 356.144 9.8771C356.144 8.47858 356.348 7.08347 356.3 5.69175C356.229 3.252 354.667 1.20697 352.401 0.540035C350.407 -0.0282194 348.763 0.744198 347.304 2.04744C345.895 3.30645 344.786 4.68114 344.582 6.72278C344.452 8.08386 344.064 9.4994 343.425 10.704C343.071 11.3641 342.019 11.7214 341.223 12.0446C341.056 12.1093 340.393 11.4832 340.297 11.0987C339.753 8.71337 339.107 6.71257 335.905 6.89632C334.166 6.99499 334.203 5.16433 333.89 3.91553C333.057 0.645519 330.134 -0.109885 328.881 1.70377C326.374 5.32086 321.426 5.47738 319.214 9.21697C315.451 9.7478 313.035 12.9429 309.585 14.0999C309.207 14.2292 308.788 14.2666 308.37 14.3279C308.37 14.4231 308.38 14.5218 308.349 14.6171L307.767 15.2296L308.193 14.3619C308.261 14.3483 308.312 14.3381 308.37 14.3279C308.516 13.5827 308.445 12.8579 308.121 12.1603C307.74 12.0446 307.373 11.8915 306.985 11.8779C301.044 11.7724 300.414 12.5074 301.809 17.8259C302.007 18.6051 302.088 19.4251 302.207 20.2248C302.333 20.2316 302.452 20.1907 302.595 20.2078L303.106 20.8951L302.265 20.5446C302.252 20.4425 302.228 20.3337 302.207 20.2248C296.525 19.8709 291.901 22.9538 286.987 25.0566C286.555 25.2472 286.49 26.7546 286.592 27.6087C286.728 28.9187 287.661 30.3274 287.341 31.4469C286.895 33.0666 284.99 32.2091 283.751 32.5903C281.563 33.2606 279.375 33.9684 277.197 34.6591L277.497 34.4277C277.395 34.4277 277.31 34.4277 277.208 34.4277C276.772 34.4277 276.309 34.4277 275.87 34.4311C276.313 34.4277 276.758 34.4311 277.208 34.4277C277.31 33.1381 277.545 31.8212 277.347 30.5929C277.109 29.0378 275.673 28.3266 274.278 28.228C273.703 28.1939 272.454 29.3407 272.549 29.6333C273.046 31.2802 273.805 32.8489 274.516 34.4345C274.428 34.4345 274.322 34.4345 274.241 34.4345L274.611 34.6455C270.613 34.3733 267.803 36.0644 266.173 39.6237C266.22 39.6237 266.282 39.6237 266.333 39.6237C265.785 39.2902 267.35 41.1549 265.969 39.9708C266.03 39.8346 266.111 39.753 266.176 39.6237C264.832 39.6611 263.464 39.6475 262.134 39.7496C259.609 39.9367 257.737 41.0494 256.866 43.5742C255.832 46.4563 255.811 49.0662 258.513 51.101C259.262 51.6489 260.068 52.1423 260.711 52.7718C261.691 53.6905 261.368 55.3238 259.993 56.2936C258.51 57.3484 257.07 58.8082 254.967 57.8486C252.691 56.8244 250.442 57.1953 248.108 57.6071C246.631 57.8555 245.334 56.2119 245.814 54.9257C246.593 52.7412 247.471 50.577 248.22 48.3755C248.291 48.1339 247.815 47.5588 247.471 47.3513C247.185 47.1879 246.536 47.1539 246.342 47.3547C243.092 50.6757 239.808 53.9661 236.749 57.4369C235.677 58.6449 236.709 59.9822 237.525 61.1085C238.913 62.9697 238.406 64.4976 236.794 65.988C236.232 66.5052 235.936 67.3014 235.555 68.0262C237.25 68.0432 238.971 68.2133 240.598 67.9139C243.817 67.3116 246.923 66.1411 250.146 65.6511C251.919 65.3789 253.834 65.9573 255.689 66.2125C255.995 66.2534 256.281 66.5494 256.587 66.7331C256.254 67.0462 255.954 67.4443 255.56 67.6553C253.93 68.5502 252.293 69.4655 250.598 70.2311C249.758 70.6054 248.798 70.7041 247.88 70.8811C245.399 71.3608 245.297 72.9669 245.957 74.9303C244.569 75.9681 242.582 76.7405 241.969 78.122C241.302 79.6124 242.061 81.6983 241.894 83.5018C241.806 84.3218 240.962 85.0772 240.482 85.8734C239.771 87.0576 238.42 88.3302 238.529 89.4191C238.862 92.2774 237.43 93.8596 235.32 94.9383C232.71 96.2722 230.835 97.7455 230.185 100.954C229.641 103.629 227.28 106.001 227.001 108.631C226.752 111.145 226.715 112.99 224.03 113.977C222.631 114.487 221.985 115.841 222.393 117.362C223.115 120.115 223.414 122.742 222.393 125.58C221.454 128.169 221.264 131.017 220.641 133.733C220.202 135.699 218.824 136.914 216.963 137.588C215.659 138.071 214.254 138.391 213.056 139.068C212.379 139.446 211.627 140.395 211.61 141.1C211.549 143.471 211.549 145.601 209.143 147.139C204.24 150.26 201.109 154.85 199.023 160.209C198.523 161.519 198.05 162.863 197.329 164.054C196.322 165.732 194.743 166.76 192.705 166.603C190.864 166.467 189.036 166.079 187.185 165.905C186.794 165.861 186.25 166.184 185.957 166.508C185.222 167.284 185.259 168.185 185.981 169.056C186.277 169.407 186.685 169.686 186.923 170.081C187.706 171.425 187.461 173.463 186.355 173.565C182.095 173.973 179.665 178.723 175.055 178.142C172.142 180.34 169.199 182.514 166.31 184.763C166.041 184.981 166 185.689 166.071 186.114C166.701 189.258 164.86 190.119 162.26 190.599C160.464 190.932 158.616 191.419 157.027 192.294C155.931 192.889 154.863 194.134 154.519 195.308C154.002 197.03 154.363 198.966 154.002 200.749C153.025 205.731 155.176 210.957 152.797 215.83C152.648 216.15 152.968 216.715 153.08 217.157C154.067 220.774 156.85 223.401 158.371 226.712C159.354 228.835 160.542 230.901 161.114 233.13C161.42 234.283 160.899 235.906 160.246 237.002C159.314 238.553 157.813 239.758 156.714 241.231C156.071 242.089 156.646 244.525 157.592 245.005C158.803 245.641 160.151 246.022 161.386 246.584C162.941 247.285 163.519 248.69 162.686 249.765C161.566 251.232 160.26 252.573 159.184 254.077C158.317 255.281 158.779 258.337 159.827 259.32C164.629 263.863 170.087 267.375 176.358 269.525C177.209 269.818 178.28 270.144 179.053 269.882C184.729 267.956 190.928 267.044 194.556 261.294C196.029 258.946 197.785 256.605 199.956 254.934C203.556 252.151 208.745 251.426 210.81 246.567C210.865 246.434 211.664 246.376 211.879 246.563C213.257 247.768 215.21 248.83 215.775 250.378C216.697 252.93 216.456 255.87 217.177 258.521C218.024 261.661 220.056 264.608 220.304 267.739C220.753 273.156 223.373 277.338 225.898 281.833C228.185 285.916 230.332 290.047 233.292 293.695C234.374 295.018 233.67 296.281 233.275 297.598C232.894 298.826 232.588 300.071 232.244 301.317C232.346 301.32 232.431 301.289 232.52 301.293C232.581 301.589 232.544 301.861 232.581 302.147C233.347 303.069 234.214 303.957 234.616 305.019C238.056 314.434 239.682 311.879 247.42 310.919C249.503 310.657 250.51 309.048 250.898 307.077C251.507 303.889 253.637 302.358 256.652 301.851C258.044 301.616 259.442 301.334 260.834 301.374C264.812 301.5 268.255 300.731 270.038 296.648C276.452 297.761 276.068 292.647 277.095 288.89C277.327 288.009 277.283 287.012 277.167 286.1C276.963 284.514 276.112 283.735 274.407 284.177C273.975 284.286 273.4 284.337 273.06 284.143C272.74 283.97 272.464 283.422 272.474 283.034C272.515 278.393 272.059 273.748 273.574 269.175C274.295 267.007 274.649 264.601 274.591 262.308C274.503 258.003 276.833 255.349 280.052 253.161C282.346 251.589 284.973 250.395 287.021 248.537C289.423 246.339 291.322 243.695 290.897 239.976C290.71 238.203 291.411 236.332 291.38 234.518C291.343 233.184 291.091 231.626 290.352 230.564C287.178 225.97 283.996 221.383 278.491 219.066C275.653 217.875 274.441 215.156 274.458 212.203C274.523 204.741 274.72 197.268 275.027 189.806C275.081 188.493 275.775 187.115 276.476 185.947C280.355 179.567 284.694 173.657 291.057 169.386C294.119 167.338 296.848 164.728 299.492 162.132C304.746 156.963 304.589 156.864 307.764 149.497C308.761 147.207 308.822 145.128 308.319 142.743C307.162 137.289 308.247 130.946 310.568 126.689C312.953 122.33 315.774 118.825 321.525 120.098C328.221 118.931 334.52 120.193 340.495 123.297C342.227 124.205 343.214 128.407 341.672 129.374C339.607 130.653 337.936 131.667 337.936 134.566C337.936 136.288 337.01 138.207 336.01 139.691C331.549 146.255 327.714 153.254 322.399 159.205C320.848 160.968 319.293 162.659 318.551 164.956C317.516 168.165 315.138 169.033 312.004 168.767C310.309 168.621 309.282 169.614 309.523 171.292C309.904 173.677 309.496 175.841 308.86 178.142C308.377 179.84 308.591 181.834 308.897 183.623C309.197 185.44 310.129 187.149 310.551 188.955C312.245 196.179 314.549 203.339 313.334 210.961C313.113 212.305 313.447 213.744 313.62 215.143C313.92 217.634 315.148 219.386 317.544 220.424C319.255 221.159 320.769 222.288 322.362 223.248L322.437 223.16C322.307 223.081 322.175 222.989 322.069 222.915L322.974 222.452L322.44 223.16C323.529 223.871 324.659 224.922 325.659 224.806C328.902 224.429 330.838 225.671 332.393 228.359C334.06 231.261 336.915 231.503 339.719 230.652C342.377 229.856 344.939 228.682 347.447 227.454C355.875 223.302 364.678 220.71 374.172 220.621C377.411 220.591 380.647 219.958 383.88 219.736C384.717 219.679 386.166 219.958 386.35 220.465C388.044 224.779 392.686 223.701 395.602 225.742C395.973 226.008 396.483 226.123 396.796 226.436C397.007 226.661 397.157 227.355 397.082 227.413C395.527 228.437 393.986 229.536 392.322 230.316C389.776 231.5 386.799 232.296 385.356 234.732C382.284 239.898 378.35 239.717 373.474 237.897C370.459 236.77 367.159 236.349 363.967 235.763C362.63 235.522 361.143 235.328 359.897 235.695C355.433 237.005 351.006 238.417 346.684 240.088C342.077 241.868 338.817 244.93 338.47 250.289C338.31 252.944 336.561 254.407 334.193 255.162C332.437 255.727 330.579 255.972 328.82 256.547C325.278 257.711 324.784 260.222 327.258 264.169C327.432 264.445 327.663 264.697 327.857 264.955C331.906 264.802 334.516 262.036 337.426 259.769C339.474 258.184 340.287 258.279 342.366 259.79C343.874 260.896 345.242 262.219 346.892 263.08C348.277 263.808 349.233 264.887 349.315 266.214C349.543 269.937 349.573 273.676 349.461 277.409C349.403 279.488 347.77 280.911 346.017 281.435C344.918 281.758 343.115 281.186 342.227 280.37C340.172 278.481 338.508 276.174 336.66 274.057C334.629 271.73 333.329 271.451 330.549 272.308C326.758 273.462 323.791 275.412 322.447 279.373C321.549 282.02 320.375 284.585 319.503 287.243C318.367 290.846 317.85 294.467 318.694 298.302C319.711 302.865 320.354 307.503 320.987 312.134C321.079 312.835 320.375 314.046 319.711 314.366C317.639 315.404 315.427 316.152 313.236 316.959C310.84 317.854 309.619 319.399 309.237 322.077C308.611 326.63 300.013 327.364 297.719 323.941C297.212 323.172 296.766 322.328 296.351 321.495C295.147 319.055 292.949 318.283 290.543 318.511C285.851 318.939 281.376 320.181 277.279 322.693C271.705 326.092 266.193 329.59 260.18 332.271C258.203 333.163 256.944 335.589 255.063 336.872C254.076 337.539 251.908 337.869 251.197 337.263C248.785 335.218 246.563 332.826 244.695 330.267C244.031 329.338 244.623 327.528 244.474 326.143C244.324 324.894 242.187 323.965 241.19 324.744C239.002 326.456 237.035 328.12 233.898 328.372C229.614 328.712 226.191 331.567 222.557 333.673C222.002 333.996 220.627 333.69 220.144 333.183C218.552 331.506 217.252 329.6 214.737 329.028C212.525 328.528 209.888 328.259 208.347 326.878C206.758 325.445 206.179 322.832 205.38 320.658C205.145 320.015 205.584 319.052 205.876 318.31C205.972 318.092 206.741 317.939 207.061 318.072C210.902 319.647 215.03 320.1 218.494 323.07C222.318 326.367 226.46 324.758 228.79 320.246C231.761 314.533 233.374 308.581 232.595 302.147C232.455 301.98 232.305 301.813 232.176 301.647C232.193 301.541 232.244 301.429 232.258 301.317C227.3 301.017 223.52 303.454 220.093 306.703C218.885 307.857 218.541 310.164 219.542 311.906C220.467 313.519 221.754 314.934 222.608 316.568C222.924 317.153 222.696 318.602 222.271 318.847C221.658 319.174 220.624 318.807 219.794 318.619C219.358 318.528 218.95 318.211 218.596 317.932C215.316 315.319 214.424 310.524 210.137 308.775C209.773 308.622 209.786 307.115 209.898 306.274C210.371 302.834 212.11 300.36 215.39 298.914C216.432 298.458 216.357 297.346 215.598 296.509C215.292 296.165 215.026 295.733 214.635 295.539C210.011 293.232 209.038 289.621 210.841 285.011C211.712 282.813 212.284 280.594 211.961 278.175C211.794 276.875 210.368 275.378 209.218 275.643C208.306 275.854 207.278 275.861 206.509 276.307C201.293 279.284 197.519 284.439 191.541 286.379C190.911 286.576 190.268 287.893 190.282 288.682C190.394 294.123 186.335 299.142 188.717 304.832C188.999 305.478 188.308 306.574 188.009 307.442C187.369 309.385 187.818 311.035 189.149 312.573C190.057 313.624 191.258 314.713 191.52 315.955C192.745 321.849 194.947 327.507 195.274 333.625C195.423 336.844 191.115 341.54 188.186 340.724C184.385 339.659 180.965 339.907 177.416 341.911C174.609 343.497 171.444 344.735 168.29 345.355C164.013 346.199 160.515 348.468 156.789 350.37C153.257 352.157 151.157 354.767 149.966 358.697C146.159 371.229 146.05 371.246 136.311 378.953C134.168 380.661 131.442 381.634 129.152 383.193C128.056 383.938 127.066 385.139 126.542 386.357C125.81 388.052 125.62 389.975 125.065 391.761C124.198 394.66 122.221 396.525 119.376 397.457C118.035 397.889 116.657 398.161 115.33 398.621C113.071 399.407 111.277 400.707 110.134 402.98C108.61 405.978 105.789 406.08 102.863 405.753C100.447 405.481 98.5343 404.32 96.6253 402.864C95.6658 402.126 94.0699 402.068 92.753 401.983C91.4362 401.904 89.7382 403.657 89.9798 404.664C90.6093 407.369 91.3681 410.057 91.9092 412.783C92.3073 414.712 90.8101 416.24 88.68 416.376C85.3895 416.601 82.2386 416.523 79.1047 415.022C77.5327 414.28 75.4196 414.011 73.708 414.379C70.0773 415.131 66.5283 416.41 62.952 417.509C61.7951 417.863 60.713 419.643 60.9138 420.844C61.6896 425.475 62.0605 430.167 68.6686 430.477C71.3227 430.603 73.8169 432.747 76.5119 433.383C81.1021 434.448 84.1612 437.262 85.5223 441.396C86.9514 445.684 89.398 448.872 93.1443 451.064C95.9788 452.71 96.8091 455.205 96.6764 458.134C96.3259 465.569 95.9788 473.004 95.3221 480.412C95.0839 483.165 94.0835 485.863 93.2532 488.534C92.4944 490.93 88.925 493.404 86.5431 492.42C81.6125 490.389 76.2975 493.111 71.4758 490.654C70.3427 490.069 68.5767 489.964 67.3858 490.392C62.6832 492.097 58.0657 491.335 53.6082 490.045C48.6062 488.596 43.7164 487.592 38.5375 488.834C37.2275 489.143 35.6248 489.137 34.3726 488.674C28.588 486.574 23.4532 486.581 19.2237 491.91C18.4955 492.822 16.6546 492.832 15.348 493.315C14.4769 493.635 13.6228 494.03 12.8027 494.441C11.2307 495.248 10.0091 497.786 10.7611 499.171C13.2553 503.761 14.7899 508.491 13.6534 513.8C13.5649 514.208 13.844 514.701 13.929 515.157C16.0762 525.661 14.1468 535.577 9.6314 545.139C8.43705 547.657 7.42304 550.277 6.51111 552.914C5.88841 554.724 5.84077 556.803 7.11679 558.28C11.2919 563.125 13.1158 568.611 12.408 574.967C12.3161 575.875 12.442 576.886 12.7517 577.733C13.0647 578.567 13.6194 579.72 14.3203 579.921C17.8422 580.966 21.2211 582.905 25.1648 581.82C26.941 581.32 28.8568 581.112 30.7044 581.082C33.1374 581.044 35.3389 581.966 36.7783 584.001C38.6498 586.669 40.2184 589.551 42.124 592.195C44.0601 594.9 48.2591 595.856 50.9234 594.335C52.9616 593.188 54.9829 591.987 56.8816 590.636C61.6522 587.223 66.8515 585.917 72.7519 586.342C76.9236 586.642 81.1464 586.053 85.3555 585.852C87.8565 585.726 89.8641 584.617 91.2252 582.562C92.8585 580.105 95.0363 578.499 97.8129 577.628C100.678 576.719 102.485 574.943 103.421 571.942C104.69 567.896 106.823 564.272 109.927 561.271C111.403 559.852 112.104 557.797 110.825 556.221C105.384 549.552 108.266 544.179 113.094 538.959C114.357 537.578 115.555 536.138 116.786 534.74C120.455 530.565 123.704 525.804 130.023 525.416C136.304 522.504 141.136 518.539 141.3 510.839C141.354 508.056 141.783 505.272 142.137 502.499C142.31 501.124 142.64 499.736 143.025 498.402C144.015 495.023 148.313 491.968 151.566 492.641C157.874 493.955 164.574 493.703 170.226 497.824C172.649 499.603 175.967 498.896 177.845 496.538C181.462 492.005 185.746 488.711 191.309 486.898C192.956 486.357 194.423 484.822 195.638 483.44C198.894 479.749 202.613 479.33 207.037 481.021C211.157 482.603 214.431 484.917 216.364 488.987C217.963 492.335 219.671 495.619 221.315 498.933C227.096 504.211 233.102 509.264 238.1 515.368C241.755 519.833 246.481 523.069 252.004 524.355C258.714 525.934 263.032 531.027 268.592 534.233C270.358 537.779 273.437 539.786 276.823 541.542C277.98 542.144 279.174 543.24 279.685 544.393C281.138 547.834 282.308 551.403 283.486 554.949C283.744 555.762 283.703 556.823 283.441 557.64C282.077 561.618 280.91 565.221 275.499 566.198C267.21 567.702 259.017 569.373 250.513 568.495C249.234 568.366 247.771 569.009 246.583 569.638C245.889 569.999 245.266 570.989 245.11 571.802C244.95 572.622 245.093 574.007 245.624 574.361C248.346 576.137 251.177 577.764 254.056 579.264C259.827 582.269 265.655 585.165 271.491 588.081C272.464 588.568 274.52 587.588 274.979 586.397C275.486 585.107 276.119 583.763 276.146 582.426C276.183 580.592 275.517 578.737 275.499 576.893C275.472 574.123 277.793 571.727 280.893 571.887C284.095 572.068 286.378 571.061 287.899 568.376C290.192 564.33 292.404 560.236 294.589 556.129C296.031 553.407 295.746 550.74 294.099 548.164C293.347 546.986 292.156 545.88 291.948 544.608C291.673 542.852 291.836 540.906 292.326 539.174C293.112 536.387 296.749 535.005 299.203 536.628C301.479 538.136 303.378 540.205 305.597 541.811C306.029 542.124 307.529 541.715 307.955 541.178C309.87 538.694 309.738 534.808 307.597 533.597C300.295 529.469 294.225 523.184 285.881 520.932C283.033 520.166 282.485 518.284 282.247 515.814C282.165 515.052 281.434 513.963 280.757 513.732C279.018 513.139 277.16 512.7 275.309 512.643C270.722 512.483 267.275 510.23 264.478 506.936C262.368 504.452 260.075 501.887 258.86 498.94C256.604 493.482 252.388 489.827 248.281 486.037C246.57 484.471 244.378 483.471 242.599 481.964C240.349 480.068 239.244 477.493 239.315 474.536C239.38 472.218 239.621 469.908 239.734 467.591C239.798 466.012 240.778 464.971 242 464.358C244.062 463.31 246.236 462.395 248.455 461.728C249.047 461.541 250.473 462.265 250.663 462.847C251.378 465.035 251.541 467.403 252.3 469.557C252.943 471.32 254.409 473.317 256.366 472.756C259.507 471.858 261.327 475.002 264.206 474.593C266.373 474.28 268.017 475.75 268.521 477.523C270.321 483.832 274.873 487.687 279.991 491.052C284.207 493.822 288.066 497.463 293.571 497.548C295.79 499.229 297.706 501.407 300.686 501.839C304.164 502.356 306.58 504.633 308.89 506.95C311.527 509.59 313.869 512.527 316.482 515.201C317.918 516.665 318.398 518.165 318.224 520.217C317.996 522.99 318.336 525.811 318.142 528.598C317.809 533.525 318.523 537.928 323.012 540.936C323.362 541.161 323.767 541.811 323.665 542.117C322.352 546.282 325.312 547.844 327.986 549.845C330.205 551.491 332.06 553.656 334.057 555.588C334.669 559.777 339.229 562.009 339.44 566.389C340.736 567.525 340.753 567.889 339.484 569.019C339.522 570.04 339.552 571.078 339.569 572.098C343.353 574.691 346.759 577.519 347.617 582.517C347.8 583.593 349.308 584.75 350.485 585.28C353.898 586.822 357.502 587.812 361.347 587.431C363.007 587.268 364.293 586.393 363.592 584.865C361.428 580.238 366.468 577.366 366.08 573.262C366.059 573.116 366.951 572.65 367.264 572.755C370.864 573.946 373.239 570.945 376.271 570.22C377.227 569.995 377.533 569.084 377.227 568.029C376.145 564.395 374.842 560.91 371.351 558.794C369.758 557.82 367.808 557.069 366.767 555.66C363.198 550.756 359.914 545.652 356.637 540.548C356.185 539.847 356.304 538.745 356.287 537.83C356.256 537.391 356.433 536.911 356.617 536.509C357.138 535.482 357.954 535.369 358.897 536.183C359.608 536.795 360.21 537.527 360.921 538.115C365.018 541.532 368.768 540.545 370.572 535.625C371.201 533.893 371.739 532.103 372.634 530.51C372.947 529.911 374.352 529.319 374.937 529.558C376.751 530.279 378.425 530.779 380.062 529.316C382.43 527.21 385.271 527.41 388.058 527.785L406.906 510.802L413.252 504.551L472.915 492.801L503.761 486.748L531.911 481.12C531.911 481.12 528.951 477.499 521.469 472.13C520.339 471.32 499.96 467.88 509.831 457.566C517.93 449.1 516.497 449.066 516.977 444.752C517.457 440.437 520.917 439.722 521.53 437.082C522.142 434.441 525.365 431.569 520.09 431.808C514.816 432.046 518.842 429.109 525.647 417.2C532.453 405.29 524.514 406.992 524.514 406.992L526.215 398.345V388.277L519.41 384.874L522.813 373.237L506.367 369.562L482.548 359.922L462.132 355.386L444.577 361.623H437.18L433.209 357.087L441.882 348.012L444.574 340.638V317.561L425.835 315.846L418.461 309.446L404.282 297.723L402.581 278.495L403.714 263.472L382.804 237.723L385.336 234.749L392.301 230.333L396.776 226.453L389.402 223.578L386.333 220.485L393.506 213.601L385.734 150.083L400.311 124.562L400.88 105.279L397.477 91.6683L395.775 70.1563L408.253 46.8647L414.514 41.3182ZM206.383 168.471L206.543 167.859L207.278 168.304L206.383 168.471ZM243.078 254.237C242.81 256.744 241.278 258.568 238.852 258.912C236.712 259.211 234.527 259.181 232.377 259.266C232.377 259.385 232.377 259.487 232.377 259.596C232.22 259.82 232.071 260.035 231.904 260.253C231.952 259.929 232.003 259.606 232.05 259.283C232.162 259.279 232.271 259.279 232.377 259.266C232.19 256.098 232.356 253.195 236.167 251.79C237.13 251.429 237.501 249.558 238.202 248.418C239.267 246.669 240.591 245.951 241.323 246.802C242.136 247.754 242.85 248.956 243.116 250.153C243.402 251.443 243.228 252.879 243.078 254.237ZM252.079 261.556C252.079 261.777 252.089 262.012 252.058 262.223C251.864 262.566 251.691 262.893 251.507 263.244C251.367 263.536 251.255 263.839 251.105 264.128C251.327 263.393 251.544 262.648 251.745 261.91C251.857 261.791 251.956 261.668 252.079 261.556C252.068 260.654 251.987 259.739 253.048 259.188C253.181 259.521 253.511 259.991 253.402 260.13C253.004 260.651 252.531 261.093 252.079 261.556ZM274.948 240.861C275.197 240.585 275.836 240.466 276.234 240.547C277.085 240.704 277.905 241.044 278.749 241.31C278.678 241.718 278.667 242.46 278.562 242.463C277.732 242.552 276.844 242.65 276.03 242.487C274.829 242.239 274.4 241.527 274.948 240.861ZM296.882 29.8068C296.436 30.3615 295.419 30.5146 294.636 30.7051C294.248 30.8072 293.571 30.7324 293.384 30.4772C292.904 29.8204 292.258 28.9289 292.414 28.296C292.517 27.8026 293.758 27.1867 294.405 27.265C295.96 27.4521 297.413 29.1195 296.882 29.8068ZM311.252 21.0414C311.15 21.0959 311.048 21.1503 310.925 21.2014C310.707 22.0588 310.758 23.1137 309.36 23.0728C309.282 23.066 309.047 22.1133 309.18 22.0418C309.724 21.705 310.333 21.4634 310.925 21.2014C310.976 21.038 311.01 20.8543 311.082 20.7182L311.436 20.1601L311.252 21.0414ZM330.974 14.4538C330.886 14.6205 330.787 14.794 330.698 14.9608C330.501 15.2262 330.46 15.5256 330.311 15.8046C330.273 17.6353 330.236 19.4694 330.161 21.3C330.154 21.6301 329.803 21.9465 329.616 22.263C329.365 21.9465 328.905 21.6301 328.905 21.3102C328.847 19.3333 329.348 17.5026 330.311 15.8046C330.311 15.3963 330.328 14.9914 330.341 14.5831C330.678 14.566 330.763 14.4946 330.974 14.4538C331.103 14.236 331.222 14.025 331.342 13.8072C331.872 14.1203 331.624 14.3245 330.974 14.4538ZM354.381 197.792L354.984 196.748L355.29 197.962L354.381 197.792ZM356.545 49.1649C357.029 48.076 358.009 47.2015 358.822 46.259C358.737 46.0922 358.665 45.9255 358.597 45.7554L359.489 45.1293L358.951 46.0991C358.914 46.1501 358.859 46.2011 358.822 46.259C359.288 47.3479 359.86 48.4367 359.989 49.5766C360.06 50.1721 359.057 50.9683 358.427 51.5468C358.175 51.7544 357.308 51.7203 357.24 51.5638C356.879 50.7914 356.287 49.7502 356.545 49.1649ZM361.643 177.669C361.221 177.624 360.802 177.413 360.527 177.328C359.203 176.995 357.655 177.189 357.529 175.406C357.515 175.249 358.308 174.817 358.608 174.909C359.441 175.147 360.224 175.6 361.034 175.967C361.428 176.154 361.912 176.256 362.238 176.522C362.544 176.781 362.701 177.206 362.932 177.56C362.493 177.594 362.058 177.706 361.643 177.669ZM368.693 147.313C368.009 147.759 366.869 148.487 366.461 148.221C365.399 147.544 364.436 146.51 363.8 145.404C363.589 144.992 364.413 143.985 364.763 143.25C366.842 143.134 367.866 144.638 368.867 146.074C369.05 146.343 368.931 147.16 368.693 147.313ZM382.478 187.363L382.239 188.214L381.307 187.598L382.478 187.363ZM386.391 199.327C385.595 200.474 384.734 201.542 385.39 203.07C385.928 204.329 386.595 205.976 384.829 206.439C383.747 206.721 382.226 205.932 381.079 205.288C379.463 204.397 379.082 201.899 380.378 200.538C381.94 198.908 383.747 197.479 385.503 196.047C385.771 195.829 386.411 195.88 386.782 196.033C387.15 196.183 387.401 196.612 387.687 196.921C387.258 197.724 386.901 198.578 386.391 199.327ZM382.376 254.665C382.188 255.019 381.729 255.312 381.328 255.428C380.32 255.727 379.585 255.271 379.177 254.216C378.67 252.865 378.633 251.531 379.728 250.436C379.946 250.211 380.494 250.323 380.902 250.276C382.784 251.065 383.42 252.862 382.376 254.665ZM386.945 265.479L386.36 264.564L387.286 265.129L387.793 266.02L386.945 265.479ZM481.065 426.823C480.956 427.085 480.857 427.551 480.735 427.561C480.398 427.581 480.064 427.398 479.724 427.299C479.836 427.044 479.935 426.588 480.064 426.578C480.384 426.547 480.738 426.731 481.065 426.823ZM454.87 404.157C454.489 404.235 454.027 404.48 453.758 404.341C453.462 404.191 453.343 403.698 453.128 403.351C453.462 403.289 453.897 403.085 454.125 403.211C454.445 403.395 454.619 403.827 454.87 404.157ZM410.577 505.201C410.128 503.986 410.091 502.424 410.428 501.179C411.278 498.062 411.595 494.601 414.239 492.308C416.9 489.997 418.087 487.221 418.087 483.716C418.104 480.922 418.455 478.122 418.791 475.345C419.047 473.368 420.197 471.824 422.082 471.187C425.675 469.99 427.152 467.492 427.543 463.871C427.744 462.088 428.455 460.19 429.476 458.699C432.334 454.453 435.451 450.376 438.514 446.249C439.79 444.537 442.743 443.993 444.897 444.962C445.322 445.16 445.867 445.18 446.19 445.473C450.855 449.668 456.279 451.768 462.564 451.775C464.02 451.782 464.881 453.871 463.952 454.902C462.714 456.28 461.329 457.525 460.087 458.903C459.168 459.958 459.559 461.649 460.866 462.357C461.679 462.8 462.595 463.068 463.445 463.453C466.229 464.695 467.525 466.825 468.155 469.857C468.951 473.607 472.16 475.111 475.437 473.794C476.733 473.273 477.999 472.691 479.254 472.069C481.762 470.827 484.365 469.728 486.713 468.22C490.007 466.1 493.559 465.399 497.353 465.232C498.191 465.198 499.017 464.501 499.858 464.123C500.896 463.664 501.552 461.956 501.263 460.455C500.977 459.036 499.609 457.923 498.286 458.043C497.83 458.087 497.367 458.111 496.904 458.162C486.434 459.448 486.223 459.431 480.17 451.091L479.319 451.366L479.894 450.727C479.996 450.87 480.068 450.958 480.17 451.091L480.231 451.07C483.892 446.803 488.105 443.496 493.91 442.676C497.17 442.23 500.13 440.866 502.611 438.746C507.521 434.543 513.214 433.533 519.393 434.203C520.094 434.275 520.808 434.312 521.503 434.36C521.601 434.261 521.703 434.159 521.805 434.053L522.595 433.546L522.146 434.407C521.938 434.39 521.72 434.37 521.503 434.36C519.318 436.561 517.154 438.797 514.925 440.961C513.302 442.513 513.38 444.197 514.248 446.014C514.891 447.331 515.191 448.658 514.415 449.978C512.094 453.925 510.345 458.288 506.146 460.863C505.68 461.139 505.489 462.8 505.857 463.351C508.521 467.213 511.471 470.439 516.48 471.779C522.35 473.355 527.549 476.621 531.915 481.086" fill="url(#paint0_linear_1412_682)"/>
<path fill-rule="evenodd" clip-rule="evenodd" d="M339.43 566.354C339.263 566.222 339.188 566.137 339.001 565.98C339.001 566.089 339.001 566.208 339.001 566.327C339.161 566.405 339.301 566.477 339.457 566.552C339.457 566.477 339.43 566.426 339.43 566.354Z" fill="url(#paint1_linear_1412_682)"/>
<path fill-rule="evenodd" clip-rule="evenodd" d="M43.4477 281.536C46.7993 284.98 47.4663 288.532 46.3059 292.912C45.9487 294.266 46.6802 295.644 47.9835 296.501C49.9605 297.818 49.7699 299.428 48.6879 301.231C48.0005 302.409 47.4357 303.657 46.8061 304.872C47.3812 305.42 48.0005 305.93 48.4258 306.56C48.9397 307.326 49.1506 308.275 49.5828 309.098C51.3522 312.607 51.9477 312.62 55.5103 309.289C55.837 308.976 56.167 308.649 56.5005 308.316C56.7047 309.19 57.1674 310.089 57.0892 310.932C56.8612 313.253 56.3848 315.54 56.0411 317.84C55.6634 320.389 57.1708 322.161 59.9236 322.471C60.383 322.519 60.8424 322.713 61.3051 322.699C63.6122 322.631 66.1166 321.93 68.2093 322.573C70.7953 323.359 69.4342 326.748 70.8225 328.589C71.663 329.692 72.3163 331.036 73.3644 331.869C75.4639 333.513 75.947 335.384 75.4196 337.947C73.9803 345.028 72.5647 346.049 64.827 345.062C64.3676 345.007 63.9048 344.806 63.4523 344.806C62.2817 344.803 61.5944 345.337 61.6862 346.287C62.0129 349.877 61.0465 353.698 64.2587 356.73C65.5109 357.907 64.8406 360.738 63.5781 361.81C62.166 363.011 60.6552 364.086 59.1818 365.233C58.0964 366.063 56.8578 366.778 55.9901 367.802C55.4831 368.394 55.2415 369.575 55.4627 370.341C55.6736 371.116 56.5005 372.175 57.1878 372.287C62.7853 373.223 67.9881 375.128 72.8778 377.963C73.2487 378.18 73.5413 378.572 73.868 378.881C73.2044 379.106 72.5035 379.603 71.874 379.518C67.1748 378.888 63.3638 380.739 61.0874 384.577C58.423 389.107 54.1492 392.029 51.0493 396.065C50.8554 396.32 51.0595 397.018 51.2637 397.409C51.4849 397.797 51.9409 398.331 52.2777 398.321C53.6014 398.27 55.0884 398.376 56.1942 397.804C58.7089 396.531 61.1724 394.796 64.0545 395.354C68.6958 396.256 72.0816 395.075 74.9364 391.158C75.7837 389.991 78.3358 389.471 80.0201 389.624C84.7397 390.073 89.4286 389.886 93.9338 388.841C99.4292 387.568 104.891 386.796 110.512 386.517C115.851 386.245 120.288 383.74 123.806 379.678C124.586 378.796 124.449 376.724 123.388 375.911C122.653 375.353 121.744 375.063 120.965 374.546C119.41 373.491 119.07 372.341 119.849 371.178C121.669 368.479 123.782 365.927 125.249 363.055C128.403 356.917 124.831 350.322 118.08 349.458C115.824 349.179 113.513 349.186 111.233 349.077C111.243 349.179 111.243 349.288 111.25 349.383L110.862 349.924L111.084 349.07C111.131 349.074 111.186 349.074 111.23 349.077C111.128 347.76 111.267 346.293 110.682 345.273C108.324 341.193 106.395 336.984 104.965 332.489C104.098 329.753 102.345 327.225 99.8682 325.952C95.2609 323.611 93.0117 319.834 91.6098 315.162C89.6158 308.489 85.6074 303.576 78.9006 301.156C77.8526 300.782 77.5565 300.149 78.0023 299.037C78.8666 296.893 79.3668 294.525 80.6156 292.646C83.2493 288.655 84.7941 284.293 85.9817 279.743C86.5465 277.593 84.7737 275.02 82.4088 274.591C81.4935 274.428 80.5713 274.115 79.6458 274.101C76.3792 274.054 73.0922 274.183 69.8153 274.04C69.1722 274.01 68.4781 273.132 67.9643 272.512C67.8111 272.315 68.0357 271.597 68.2773 271.267C69.9787 269.048 71.8195 266.925 73.412 264.632C73.8748 263.975 73.7693 262.859 73.7829 261.961C73.8101 260.892 72.1224 259.623 70.7341 259.694C66.9979 259.898 63.2549 260.109 59.5323 260.419C57.4907 260.593 56.1432 261.909 55.1939 263.601C52.9583 267.68 50.7703 271.805 48.5722 275.915C48.0413 276.915 47.2485 276.694 46.1903 276.715C42.1036 276.8 40.8174 278.848 43.4477 281.536Z" fill="url(#paint2_linear_1412_682)"/>
<path fill-rule="evenodd" clip-rule="evenodd" d="M22.3371 318.824C21.4865 320.978 20.8297 323.213 19.8361 325.292C19.5061 325.983 18.4104 326.633 17.5904 326.711C14.8239 326.997 12.0337 326.973 9.2605 327.133C7.7599 327.215 6.45666 328.406 6.37499 329.661C6.24229 332.438 6.54853 335.303 5.90542 337.961C5.24189 340.707 6.37499 342.367 8.02191 344.079C10.2813 346.444 10.2643 349.186 8.893 351.833C7.6374 354.3 5.97007 356.563 4.3878 358.853C3.87399 359.598 3.06074 360.15 2.3802 360.776C-0.379405 363.277 0.842171 367.942 4.23128 370.405C8.29413 373.359 12.864 373.914 17.5393 372.318C20.1662 371.416 22.708 370.14 25.0797 368.697C29.129 366.22 33.3279 364.41 38.0679 363.852C40.0211 363.62 41.3379 362.263 42.3894 360.64C45.8465 355.318 47.3097 349.618 45.901 343.31C45.6015 341.949 45.3259 340.574 45.0809 339.206C44.7236 337.205 45.5879 335.562 46.7142 334.041C47.2655 333.295 47.9664 332.652 48.6436 332.009C51.8523 328.92 51.6686 325.415 49.7937 321.777C48.9566 320.127 48.0447 318.456 46.8708 317.03C46.0405 315.996 44.8359 314.88 43.6178 314.621C39.9973 313.832 36.3053 313.441 32.8073 312.92C31.6946 313.097 30.7759 313.233 29.8504 313.383C26.4272 313.924 23.6608 315.397 22.3371 318.824Z" fill="url(#paint3_linear_1412_682)"/>
<path fill-rule="evenodd" clip-rule="evenodd" d="M195.828 532.232C197.761 537.585 197.798 543.107 197.952 548.695C198.186 556.991 202.276 558.726 209.711 554.064C211.413 552.999 212.532 551.539 212.678 549.661C212.889 546.885 212.733 544.091 212.733 541.304C212.845 541.304 212.947 541.304 213.063 541.304C212.981 539.446 212.879 537.595 212.801 535.734C212.75 534.345 212.828 532.944 212.675 531.565C212.189 527.081 207.387 521.473 201.831 525.563C200.337 526.652 198.69 527.513 197.172 528.585C195.93 529.466 195.352 530.936 195.828 532.232Z" fill="url(#paint4_linear_1412_682)"/>
<path fill-rule="evenodd" clip-rule="evenodd" d="M207.374 519.675C208.095 518.501 208.963 517.317 209.252 516.014C209.834 513.312 210.072 510.546 210.32 508.684C210.14 506.844 210.072 505.921 209.953 505.006C209.898 504.55 209.742 504.108 209.677 503.645C209.415 501.488 207.755 500.321 205.839 501.107C204.144 501.794 202.409 502.519 200.902 503.54C198.829 504.955 198.197 507.191 198.401 509.634C198.707 513.414 200.259 516.715 202.477 519.75C203.386 520.992 206.56 521.016 207.374 519.675Z" fill="url(#paint5_linear_1412_682)"/>
<path fill-rule="evenodd" clip-rule="evenodd" d="M38.3435 273.187C38.238 273.214 38.1461 273.258 38.0475 273.289L37.7923 273.932L38.3435 273.585C38.3435 273.456 38.3333 273.319 38.3435 273.187Z" fill="url(#paint6_linear_1412_682)"/>
<path fill-rule="evenodd" clip-rule="evenodd" d="M45.4893 265.884C45.7989 264.792 45.6152 264.02 44.5161 263.608C44.1248 263.455 43.6382 263.383 43.2605 263.496C40.8956 264.169 39.0207 265.578 38.5341 268.052C38.2109 269.712 38.3538 271.461 38.3402 273.186C39.1194 272.924 39.9054 272.713 40.6438 272.343C43.3218 271.016 44.6999 268.688 45.4893 265.884Z" fill="url(#paint7_linear_1412_682)"/>
<path fill-rule="evenodd" clip-rule="evenodd" d="M337.089 565.364C336.701 565.146 336.34 564.871 336.007 564.592C335.231 563.897 334.288 563.731 333.584 564.51C333.057 565.092 332.604 566.082 332.703 566.803C332.815 567.525 333.557 568.607 334.176 568.716C335.751 568.998 337.388 568.927 339.025 568.954C339.025 568.083 339.025 567.201 339.004 566.324C338.368 566.011 337.715 565.704 337.089 565.364Z" fill="url(#paint8_linear_1412_682)"/>
<path fill-rule="evenodd" clip-rule="evenodd" d="M339.021 568.958C339.021 569.107 339.021 569.26 339.021 569.41C339.229 569.237 339.307 569.131 339.474 568.988C339.474 568.975 339.474 568.971 339.474 568.964C339.331 568.958 339.161 568.958 339.021 568.958Z" fill="url(#paint9_linear_1412_682)"/>
<path fill-rule="evenodd" clip-rule="evenodd" d="M385.499 541.735C385.972 540.762 385.748 539.986 384.703 539.619C384.373 539.489 383.818 539.608 383.512 539.83C382.661 540.428 382.566 541.262 383.298 541.983C384.033 542.691 384.829 542.545 385.499 541.735Z" fill="url(#paint10_linear_1412_682)"/>
<path fill-rule="evenodd" clip-rule="evenodd" d="M231.264 71.6435C231.441 71.7796 232.152 71.4802 232.401 71.1943C233.163 70.3539 233.864 69.4657 234.575 68.5776C233.503 68.8601 232.421 69.1187 231.431 69.5712C230.386 70.0408 230.352 70.9663 231.264 71.6435Z" fill="url(#paint11_linear_1412_682)"/>
<path fill-rule="evenodd" clip-rule="evenodd" d="M234.575 68.5772C234.854 68.5058 235.119 68.4411 235.381 68.3663C235.456 68.2506 235.5 68.1315 235.555 68.0158C235.398 68.0158 235.232 67.9988 235.065 67.9988C234.902 68.1995 234.745 68.3867 234.575 68.5772Z" fill="url(#paint12_linear_1412_682)"/>
<path fill-rule="evenodd" clip-rule="evenodd" d="M141.49 547.217C141.446 546.673 140.388 546.2 139.785 545.7C138.309 545.792 136.978 547.493 137.812 548.384C138.322 548.939 139.496 549.313 140.218 549.13C140.803 548.994 141.551 547.864 141.49 547.217Z" fill="url(#paint13_linear_1412_682)"/>
<path fill-rule="evenodd" clip-rule="evenodd" d="M151.355 542.797C151.276 542.478 151.293 542.001 151.086 541.879C150.759 541.675 150.181 541.504 149.888 541.664C148.82 542.243 148.949 542.876 150.215 543.175C150.548 543.257 150.967 542.944 151.355 542.797Z" fill="url(#paint14_linear_1412_682)"/>
<path fill-rule="evenodd" clip-rule="evenodd" d="M73.8612 253.57C73.5481 252.229 73.0853 252.181 72.6668 253.474C72.5885 253.73 72.9935 254.138 73.1806 254.471C73.4052 254.172 73.6468 253.873 73.8612 253.57Z" fill="url(#paint15_linear_1412_682)"/>
<path fill-rule="evenodd" clip-rule="evenodd" d="M338.93 572.173C339.134 572.197 339.369 572.231 339.569 572.231C339.569 572.18 339.569 572.122 339.559 572.068C339.45 571.989 339.348 571.904 339.226 571.83C339.127 571.949 339.021 572.047 338.93 572.173Z" fill="url(#paint16_linear_1412_682)"/>
<path fill-rule="evenodd" clip-rule="evenodd" d="M336.626 573.272C336.595 573.306 337.449 573.769 337.579 573.657C338.062 573.221 338.487 572.69 338.93 572.17C337.97 572.067 337.034 571.921 336.626 573.272Z" fill="url(#paint17_linear_1412_682)"/>
<path fill-rule="evenodd" clip-rule="evenodd" d="M390.209 582.17L390.219 581.432L389.307 581.799L390.209 582.17Z" fill="url(#paint18_linear_1412_682)"/>
<path fill-rule="evenodd" clip-rule="evenodd" d="M220.689 499.035C220.916 499.035 221.148 499.032 221.355 499.004C221.338 498.964 221.325 498.936 221.308 498.899C221.23 498.828 221.151 498.759 221.073 498.688C220.951 498.807 220.808 498.913 220.689 499.035Z" fill="url(#paint19_linear_1412_682)"/>
<path fill-rule="evenodd" clip-rule="evenodd" d="M219.27 500.366C219.787 499.978 220.236 499.502 220.692 499.035C219.78 499.046 218.854 499.018 218.3 500.07C218.633 500.182 219.113 500.482 219.27 500.366Z" fill="url(#paint20_linear_1412_682)"/>
<path fill-rule="evenodd" clip-rule="evenodd" d="M46.3944 304.886C46.5203 304.896 46.6564 304.893 46.7891 304.91C46.7891 304.893 46.7993 304.886 46.7993 304.869C46.6938 304.777 46.6156 304.661 46.5033 304.57C46.4624 304.665 46.4284 304.777 46.3944 304.886Z" fill="url(#paint21_linear_1412_682)"/>
<path fill-rule="evenodd" clip-rule="evenodd" d="M43.3115 305.778C43.5293 306.884 44.4616 307.476 45.3633 306.867C45.9044 306.509 46.0983 305.631 46.3944 304.886C45.6458 304.815 44.8734 304.696 44.152 304.777C43.8185 304.815 43.2639 305.492 43.3115 305.778Z" fill="url(#paint22_linear_1412_682)"/>
<path fill-rule="evenodd" clip-rule="evenodd" d="M61.2711 330.658C60.9445 330.543 60.3762 330.597 60.1618 330.818C59.4881 331.502 59.7773 332.033 60.8764 332.07C61.1895 332.087 61.5297 331.71 61.8462 331.512C61.6556 331.21 61.5297 330.747 61.2711 330.658Z" fill="url(#paint23_linear_1412_682)"/>
<path fill-rule="evenodd" clip-rule="evenodd" d="M280.859 26.4104C280.767 26.6486 281.148 27.0842 281.304 27.4312C281.543 27.1522 281.784 26.8698 282.016 26.584C281.767 25.2875 281.335 25.2059 280.859 26.4104Z" fill="url(#paint24_linear_1412_682)"/>
<path fill-rule="evenodd" clip-rule="evenodd" d="M308.496 11.7549C308.309 11.8093 308.292 11.8638 308.033 11.9148C308.081 11.9931 308.081 12.0815 308.115 12.1632C308.183 12.1802 308.261 12.2006 308.326 12.2177C308.383 12.0645 308.438 11.908 308.496 11.7549Z" fill="url(#paint25_linear_1412_682)"/>
<path fill-rule="evenodd" clip-rule="evenodd" d="M308.717 11.0544C308.645 11.2892 308.56 11.5206 308.496 11.7554C309.207 11.5274 309.408 11.3028 308.717 11.0544Z" fill="url(#paint26_linear_1412_682)"/>
<path fill-rule="evenodd" clip-rule="evenodd" d="M389.766 535.156L389.406 535.523C389.776 535.615 390.147 535.7 390.515 535.778C390.266 535.577 390.028 535.366 389.766 535.156Z" fill="url(#paint27_linear_1412_682)"/>
<path fill-rule="evenodd" clip-rule="evenodd" d="M126.423 556.875L127.454 556.47L126.508 555.891L126.423 556.875Z" fill="url(#paint28_linear_1412_682)"/>
<path fill-rule="evenodd" clip-rule="evenodd" d="M289.012 283.538C289.406 284.317 290.019 285.001 290.642 285.62C291.336 286.301 292.928 285.304 294.082 283.946C297.369 280.098 297.369 275.678 296.644 271.101C294.371 271.009 292.261 271.346 290.628 273.255C288.726 275.473 287.742 277.957 288.215 280.897C288.372 281.806 288.593 282.731 289.012 283.538Z" fill="url(#paint29_linear_1412_682)"/>
<path fill-rule="evenodd" clip-rule="evenodd" d="M302.759 228.942C303.143 228.996 303.667 228.86 303.97 228.605C305.124 227.608 305.369 226.128 304.8 224.92C304.273 223.834 303.068 223.062 302.292 222.276C301.517 222.561 301.037 222.606 300.761 222.864C299.669 223.878 299.325 225.205 299.74 226.583C300.159 227.996 301.326 228.751 302.759 228.942Z" fill="url(#paint30_linear_1412_682)"/>
<path fill-rule="evenodd" clip-rule="evenodd" d="M258.38 317.527C258.677 317.551 258.993 317.044 259.279 316.789C258.87 315.979 258.656 315.122 258.132 314.581C257.421 313.846 256.41 313.972 256.077 314.826C255.828 315.435 255.879 316.483 256.281 316.929C256.696 317.398 257.649 317.473 258.38 317.527Z" fill="url(#paint31_linear_1412_682)"/>
<path fill-rule="evenodd" clip-rule="evenodd" d="M331.307 252.528C332.733 253.236 333.615 252.185 334.343 251.065C334.445 250.66 334.669 250.208 334.601 249.813C334.455 248.843 332.485 248.105 331.263 248.734C330.654 249.051 329.97 249.956 329.997 250.565C330.021 251.259 330.678 252.215 331.307 252.528Z" fill="url(#paint32_linear_1412_682)"/>
<path fill-rule="evenodd" clip-rule="evenodd" d="M297.216 270.576L296.613 270.804C296.624 270.899 296.624 270.998 296.641 271.097C296.736 271.1 296.821 271.09 296.903 271.097L297.216 270.576Z" fill="url(#paint33_linear_1412_682)"/>
<path fill-rule="evenodd" clip-rule="evenodd" d="M327.313 265.901L328.078 265.258C328.01 265.159 327.922 265.047 327.84 264.941C327.816 264.941 327.792 264.958 327.775 264.958L327.313 265.901Z" fill="url(#paint34_linear_1412_682)"/>
<defs>
<linearGradient id="paint0_linear_1412_682" x1="258.829" y1="715.089" x2="280.451" y2="-135.054" gradientUnits="userSpaceOnUse">
<stop stop-color="#8DFF33"/>
<stop offset="0.505208" stop-color="#23D1AE"/>
<stop offset="1" stop-color="#00A88E"/>
</linearGradient>
<linearGradient id="paint1_linear_1412_682" x1="339.22" y1="566.667" x2="339.243" y2="565.85" gradientUnits="userSpaceOnUse">
<stop stop-color="#8DFF33"/>
<stop offset="0.505208" stop-color="#23D1AE"/>
<stop offset="1" stop-color="#00A88E"/>
</linearGradient>
<linearGradient id="paint2_linear_1412_682" x1="82.6117" y1="426.301" x2="89.9324" y2="228.27" gradientUnits="userSpaceOnUse">
<stop stop-color="#8DFF33"/>
<stop offset="0.505208" stop-color="#23D1AE"/>
<stop offset="1" stop-color="#00A88E"/>
</linearGradient>
<linearGradient id="paint3_linear_1412_682" x1="25.0282" y1="385.359" x2="27.3506" y2="299.203" gradientUnits="userSpaceOnUse">
<stop stop-color="#8DFF33"/>
<stop offset="0.505208" stop-color="#23D1AE"/>
<stop offset="1" stop-color="#00A88E"/>
</linearGradient>
<linearGradient id="paint4_linear_1412_682" x1="204.026" y1="563.156" x2="205.97" y2="516.805" gradientUnits="userSpaceOnUse">
<stop stop-color="#8DFF33"/>
<stop offset="0.505208" stop-color="#23D1AE"/>
<stop offset="1" stop-color="#00A88E"/>
</linearGradient>
<linearGradient id="paint5_linear_1412_682" x1="204.111" y1="524.682" x2="205.167" y2="496.369" gradientUnits="userSpaceOnUse">
<stop stop-color="#8DFF33"/>
<stop offset="0.505208" stop-color="#23D1AE"/>
<stop offset="1" stop-color="#00A88E"/>
</linearGradient>
<linearGradient id="paint6_linear_1412_682" x1="38.0572" y1="274.082" x2="38.0896" y2="273.017" gradientUnits="userSpaceOnUse">
<stop stop-color="#8DFF33"/>
<stop offset="0.505208" stop-color="#23D1AE"/>
<stop offset="1" stop-color="#00A88E"/>
</linearGradient>
<linearGradient id="paint7_linear_1412_682" x1="41.8308" y1="275.153" x2="42.2488" y2="261.225" gradientUnits="userSpaceOnUse">
<stop stop-color="#8DFF33"/>
<stop offset="0.505208" stop-color="#23D1AE"/>
<stop offset="1" stop-color="#00A88E"/>
</linearGradient>
<linearGradient id="paint8_linear_1412_682" x1="335.734" y1="569.955" x2="335.859" y2="562.863" gradientUnits="userSpaceOnUse">
<stop stop-color="#8DFF33"/>
<stop offset="0.505208" stop-color="#23D1AE"/>
<stop offset="1" stop-color="#00A88E"/>
</linearGradient>
<linearGradient id="paint9_linear_1412_682" x1="339.239" y1="569.501" x2="339.254" y2="568.854" gradientUnits="userSpaceOnUse">
<stop stop-color="#8DFF33"/>
<stop offset="0.505208" stop-color="#23D1AE"/>
<stop offset="1" stop-color="#00A88E"/>
</linearGradient>
<linearGradient id="paint10_linear_1412_682" x1="384.214" y1="543.018" x2="384.304" y2="538.91" gradientUnits="userSpaceOnUse">
<stop stop-color="#8DFF33"/>
<stop offset="0.505208" stop-color="#23D1AE"/>
<stop offset="1" stop-color="#00A88E"/>
</linearGradient>
<linearGradient id="paint11_linear_1412_682" x1="232.517" y1="72.303" x2="232.595" y2="67.8704" gradientUnits="userSpaceOnUse">
<stop stop-color="#8DFF33"/>
<stop offset="0.505208" stop-color="#23D1AE"/>
<stop offset="1" stop-color="#00A88E"/>
</linearGradient>
<linearGradient id="paint12_linear_1412_682" x1="235.046" y1="68.694" x2="235.057" y2="67.8667" gradientUnits="userSpaceOnUse">
<stop stop-color="#8DFF33"/>
<stop offset="0.505208" stop-color="#23D1AE"/>
<stop offset="1" stop-color="#00A88E"/>
</linearGradient>
<linearGradient id="paint13_linear_1412_682" x1="139.448" y1="549.879" x2="139.546" y2="544.907" gradientUnits="userSpaceOnUse">
<stop stop-color="#8DFF33"/>
<stop offset="0.505208" stop-color="#23D1AE"/>
<stop offset="1" stop-color="#00A88E"/>
</linearGradient>
<linearGradient id="paint14_linear_1412_682" x1="150.219" y1="543.509" x2="150.256" y2="541.239" gradientUnits="userSpaceOnUse">
<stop stop-color="#8DFF33"/>
<stop offset="0.505208" stop-color="#23D1AE"/>
<stop offset="1" stop-color="#00A88E"/>
</linearGradient>
<linearGradient id="paint15_linear_1412_682" x1="73.2357" y1="254.863" x2="73.3359" y2="252.094" gradientUnits="userSpaceOnUse">
<stop stop-color="#8DFF33"/>
<stop offset="0.505208" stop-color="#23D1AE"/>
<stop offset="1" stop-color="#00A88E"/>
</linearGradient>
<linearGradient id="paint16_linear_1412_682" x1="339.237" y1="572.312" x2="339.245" y2="571.738" gradientUnits="userSpaceOnUse">
<stop stop-color="#8DFF33"/>
<stop offset="0.505208" stop-color="#23D1AE"/>
<stop offset="1" stop-color="#00A88E"/>
</linearGradient>
<linearGradient id="paint17_linear_1412_682" x1="337.733" y1="573.99" x2="337.767" y2="571.749" gradientUnits="userSpaceOnUse">
<stop stop-color="#8DFF33"/>
<stop offset="0.505208" stop-color="#23D1AE"/>
<stop offset="1" stop-color="#00A88E"/>
</linearGradient>
<linearGradient id="paint18_linear_1412_682" x1="389.745" y1="582.319" x2="389.764" y2="581.263" gradientUnits="userSpaceOnUse">
<stop stop-color="#8DFF33"/>
<stop offset="0.505208" stop-color="#23D1AE"/>
<stop offset="1" stop-color="#00A88E"/>
</linearGradient>
<linearGradient id="paint19_linear_1412_682" x1="221.009" y1="499.105" x2="221.015" y2="498.609" gradientUnits="userSpaceOnUse">
<stop stop-color="#8DFF33"/>
<stop offset="0.505208" stop-color="#23D1AE"/>
<stop offset="1" stop-color="#00A88E"/>
</linearGradient>
<linearGradient id="paint20_linear_1412_682" x1="219.45" y1="500.666" x2="219.474" y2="498.726" gradientUnits="userSpaceOnUse">
<stop stop-color="#8DFF33"/>
<stop offset="0.505208" stop-color="#23D1AE"/>
<stop offset="1" stop-color="#00A88E"/>
</linearGradient>
<linearGradient id="paint21_linear_1412_682" x1="46.589" y1="304.979" x2="46.5982" y2="304.492" gradientUnits="userSpaceOnUse">
<stop stop-color="#8DFF33"/>
<stop offset="0.505208" stop-color="#23D1AE"/>
<stop offset="1" stop-color="#00A88E"/>
</linearGradient>
<linearGradient id="paint22_linear_1412_682" x1="44.7918" y1="307.587" x2="44.8499" y2="304.211" gradientUnits="userSpaceOnUse">
<stop stop-color="#8DFF33"/>
<stop offset="0.505208" stop-color="#23D1AE"/>
<stop offset="1" stop-color="#00A88E"/>
</linearGradient>
<linearGradient id="paint23_linear_1412_682" x1="60.7843" y1="332.368" x2="60.8183" y2="330.263" gradientUnits="userSpaceOnUse">
<stop stop-color="#8DFF33"/>
<stop offset="0.505208" stop-color="#23D1AE"/>
<stop offset="1" stop-color="#00A88E"/>
</linearGradient>
<linearGradient id="paint24_linear_1412_682" x1="281.407" y1="27.8096" x2="281.504" y2="25.1319" gradientUnits="userSpaceOnUse">
<stop stop-color="#8DFF33"/>
<stop offset="0.505208" stop-color="#23D1AE"/>
<stop offset="1" stop-color="#00A88E"/>
</linearGradient>
<linearGradient id="paint25_linear_1412_682" x1="308.255" y1="12.3111" x2="308.27" y2="11.6494" gradientUnits="userSpaceOnUse">
<stop stop-color="#8DFF33"/>
<stop offset="0.505208" stop-color="#23D1AE"/>
<stop offset="1" stop-color="#00A88E"/>
</linearGradient>
<linearGradient id="paint26_linear_1412_682" x1="308.807" y1="11.8969" x2="308.832" y2="10.8948" gradientUnits="userSpaceOnUse">
<stop stop-color="#8DFF33"/>
<stop offset="0.505208" stop-color="#23D1AE"/>
<stop offset="1" stop-color="#00A88E"/>
</linearGradient>
<linearGradient id="paint27_linear_1412_682" x1="389.939" y1="535.904" x2="389.95" y2="535.013" gradientUnits="userSpaceOnUse">
<stop stop-color="#8DFF33"/>
<stop offset="0.505208" stop-color="#23D1AE"/>
<stop offset="1" stop-color="#00A88E"/>
</linearGradient>
<linearGradient id="paint28_linear_1412_682" x1="126.918" y1="557.073" x2="126.949" y2="555.667" gradientUnits="userSpaceOnUse">
<stop stop-color="#8DFF33"/>
<stop offset="0.505208" stop-color="#23D1AE"/>
<stop offset="1" stop-color="#00A88E"/>
</linearGradient>
<linearGradient id="paint29_linear_1412_682" x1="292.393" y1="288.818" x2="293.175" y2="267.744" gradientUnits="userSpaceOnUse">
<stop stop-color="#8DFF33"/>
<stop offset="0.505208" stop-color="#23D1AE"/>
<stop offset="1" stop-color="#00A88E"/>
</linearGradient>
<linearGradient id="paint30_linear_1412_682" x1="302.225" y1="230.301" x2="302.485" y2="220.756" gradientUnits="userSpaceOnUse">
<stop stop-color="#8DFF33"/>
<stop offset="0.505208" stop-color="#23D1AE"/>
<stop offset="1" stop-color="#00A88E"/>
</linearGradient>
<linearGradient id="paint31_linear_1412_682" x1="257.537" y1="318.22" x2="257.65" y2="313.318" gradientUnits="userSpaceOnUse">
<stop stop-color="#8DFF33"/>
<stop offset="0.505208" stop-color="#23D1AE"/>
<stop offset="1" stop-color="#00A88E"/>
</linearGradient>
<linearGradient id="paint32_linear_1412_682" x1="332.216" y1="253.617" x2="332.342" y2="247.53" gradientUnits="userSpaceOnUse">
<stop stop-color="#8DFF33"/>
<stop offset="0.505208" stop-color="#23D1AE"/>
<stop offset="1" stop-color="#00A88E"/>
</linearGradient>
<linearGradient id="paint33_linear_1412_682" x1="296.903" y1="271.202" x2="296.917" y2="270.457" gradientUnits="userSpaceOnUse">
<stop stop-color="#8DFF33"/>
<stop offset="0.505208" stop-color="#23D1AE"/>
<stop offset="1" stop-color="#00A88E"/>
</linearGradient>
<linearGradient id="paint34_linear_1412_682" x1="327.681" y1="266.095" x2="327.719" y2="264.723" gradientUnits="userSpaceOnUse">
<stop stop-color="#8DFF33"/>
<stop offset="0.505208" stop-color="#23D1AE"/>
<stop offset="1" stop-color="#00A88E"/>
</linearGradient>
</defs>
</svg>
