<svg width="239" height="301" viewBox="0 0 239 301" fill="none" xmlns="http://www.w3.org/2000/svg">
<path fill-rule="evenodd" clip-rule="evenodd" d="M195.466 113.901C195.474 113.864 195.48 113.826 195.488 113.792C195.449 113.797 195.41 113.797 195.372 113.799C195.388 113.83 195.412 113.851 195.427 113.888C195.441 113.887 195.453 113.892 195.466 113.901Z" fill="url(#paint0_linear_474_3226)"/>
<path fill-rule="evenodd" clip-rule="evenodd" d="M150.83 295.335C150.819 295.362 150.807 295.385 150.796 295.412C150.835 295.412 150.878 295.412 150.917 295.418C150.895 295.385 150.881 295.371 150.853 295.331C150.847 295.331 150.84 295.335 150.83 295.335Z" fill="url(#paint1_linear_474_3226)"/>
<path fill-rule="evenodd" clip-rule="evenodd" d="M156.399 299.514C156.391 299.514 156.383 299.514 156.376 299.514C156.355 299.535 156.339 299.562 156.32 299.588L156.399 299.514Z" fill="url(#paint2_linear_474_3226)"/>
<path fill-rule="evenodd" clip-rule="evenodd" d="M62.9103 33.8427C62.1216 30.1855 58.5188 32.0442 56.6787 29.4204C54.8386 26.7966 55.1019 25.7469 54.8386 22.0348C54.5752 18.3227 53.5245 18.9237 49.0563 18.137C44.5881 17.3503 49.0563 18.137 47.7422 20.7608C46.4282 23.3846 45.1141 21.5482 43.274 18.9237C41.4339 16.2992 43.7994 14.4628 39.3311 10.7609C34.8629 7.05892 34.8629 9.47675 31.7087 10.2642C28.5546 11.0516 27.2405 10.7887 22.7723 10.2642C18.3041 9.73967 19.8808 7.37741 12.2591 5.80325C4.63741 4.22909 3.0342 1.75841 3.0342 1.75841L0.32666 0.648438C0.634813 1.29016 0.797714 1.91292 0.725087 2.64816C0.643637 3.45455 0.903599 3.86452 1.51719 3.96007C3.56023 4.27585 5.05824 5.59725 6.73543 6.60897C8.1323 7.45534 8.95495 8.59988 9.00857 10.254C9.05201 11.5422 9.4518 12.747 9.79525 13.9776C10.3783 16.0871 11.4005 18.0638 11.6679 20.2722C11.7528 20.9675 12.1804 21.5557 12.741 22.009C13.8535 22.9076 14.5112 24.1368 15.1961 25.3471C15.5809 26.0234 15.4459 26.6793 15.0915 27.3217C14.8316 27.8022 14.4013 27.8781 13.9132 27.8496C13.8006 27.8456 13.6838 27.8774 13.5739 27.912C13.265 28.0082 13.0655 28.4886 13.2005 28.7489C13.7558 29.8053 14.5472 30.6781 15.6149 31.1653C17.0246 31.8179 18.0258 32.9279 19.1355 33.9254C19.5978 34.3374 19.7702 34.8957 19.7648 35.4853C19.7614 36.0592 19.7261 36.6454 19.5978 37.2031C19.4288 37.9668 19.6609 38.4906 20.2059 39.049C21.8859 40.7709 23.9309 42.1817 25.0461 44.4268C25.2335 44.8028 25.8796 44.811 26.2855 44.4918C26.7987 44.094 27.0192 43.4699 26.8835 42.978C26.6595 42.1743 26.217 41.5041 25.6808 40.8922C25.2111 40.3568 23.8407 37.9553 23.6275 37.2878C23.4511 36.7342 23.1938 36.2036 23.0737 35.6418C22.8823 34.7406 22.8062 33.8115 22.6243 32.9062C22.4098 31.8518 21.3381 31.3395 20.9865 30.2824C20.4842 28.7665 19.8082 27.2594 18.9448 25.919C18.0054 24.4567 17.3871 22.8134 16.261 21.469C16.0465 21.2169 15.8816 20.8564 15.8456 20.5291C15.6386 18.8112 15.3413 17.0907 15.8246 15.3661C15.906 15.0734 16.0683 14.9467 16.3445 15.068C16.9771 15.3417 17.6056 15.629 18.2253 15.9313C18.8695 16.2498 19.2984 16.6638 19.4403 17.4695C19.6982 18.9454 19.8808 20.445 20.4333 21.864C21.2831 24.0379 22.4173 26.0417 23.8841 27.851C24.1712 28.2081 24.6049 28.5415 24.6932 28.944C24.9389 30.0553 25.7038 30.7323 26.5007 31.412C27.0288 31.8579 27.5738 32.2875 28.0605 32.7815C28.3021 33.02 28.3944 33.3812 28.1582 33.7268C28.0258 33.9206 27.9016 34.1151 27.7835 34.3116C27.4706 34.8402 27.5175 35.5117 28.0231 35.8756C28.6781 36.3486 29.3229 36.8711 30.0397 37.2302C30.8406 37.6327 31.3056 38.124 31.3768 39.0659C31.4081 39.4522 31.8194 39.8527 32.1282 40.1725C35.6923 43.8684 36.6677 45.7739 37.7381 49.936C37.8195 50.2538 37.7917 50.6333 37.6994 50.9511C37.5664 51.3922 37.3913 51.8435 37.1245 52.2115C36.3114 53.3344 36.6467 54.361 37.2365 55.4384C37.7578 56.3919 38.4006 57.1678 39.4655 57.5039C40.4999 57.8373 41.3192 58.4871 41.9301 59.3471C42.5864 60.2707 43.4898 60.701 44.5263 60.9524C44.977 61.0622 45.4487 61.0947 45.8858 61.2411C46.3168 61.3759 46.7879 61.5318 47.1151 61.8265C48.6124 63.1527 50.2441 64.1685 52.2152 64.6801C53.2089 64.9362 54.1693 65.4302 55.0612 65.952C56.082 66.5544 57.1884 66.8824 58.288 67.2145C62.1182 68.3787 62.1331 68.3787 65.964 66.9624C67.0792 66.5538 68.115 66.6771 68.8908 67.4205C70.6406 69.1085 72.7882 70.3479 74.3289 72.2737C74.9914 73.1052 75.9444 73.6243 77.0283 73.7097C78.5542 73.8377 79.9571 74.3548 81.3968 74.8027C83.0393 75.3218 84.6582 76.0326 86.4501 75.9066C86.8302 75.8795 87.1118 76.0895 87.2429 76.4304C87.6182 77.4408 88.4259 78.1367 89.0897 78.9295C89.8309 79.8172 90.6543 80.6521 91.3418 81.5805C91.7416 82.1158 92.0389 82.7562 91.7871 83.5172C91.4233 84.6387 92.0301 85.2628 93.0584 85.5602C93.4962 85.6931 93.9415 85.8706 94.3854 85.8754C94.7465 85.8754 95.0906 85.8665 95.3628 86.0834C96.1813 86.717 97.0943 87.2842 97.3345 88.409C97.6026 89.6674 98.614 89.9561 99.6681 90.1404C99.9952 90.1933 100.376 90.1452 100.693 90.0313C101.834 89.6261 102.834 90.0123 103.525 90.8065C104.158 91.5425 105.023 91.8671 105.711 92.4803C106.465 93.1566 106.897 93.0651 107.831 92.3448C108.242 92.031 108.363 91.6245 108.164 91.1284C108.038 90.8106 107.854 90.3803 108.161 90.175C109.05 89.58 109.578 88.6842 110.246 87.8995C110.388 87.7368 110.928 87.7578 111.192 87.8852C112.183 88.3542 112.916 89.1246 113.011 90.2455C113.08 91.0945 113.327 91.8156 113.855 92.462C114.512 93.2718 114.64 94.3926 115.429 95.1421C115.634 95.3366 115.664 95.7777 115.664 96.103C115.672 97.5999 115.75 99.107 115.582 100.585C115.488 101.454 115.548 102.16 116.084 102.836C116.331 103.156 116.219 103.517 116.033 103.812C115.347 104.882 114.667 105.999 113.441 106.536C112.172 107.1 111.404 108.041 111.075 109.349C110.889 110.085 110.455 110.566 109.802 110.904C109.186 111.218 108.565 111.536 107.98 111.904C107.806 112.009 107.681 112.272 107.634 112.48C106.993 115.364 106.997 115.364 105.863 117.26C105.744 117.457 105.524 117.644 105.511 117.845C105.437 118.996 105.231 120.178 105.429 121.279C105.584 122.161 106.47 122.728 107.321 123.114C107.373 123.137 107.518 123.016 107.587 122.94C107.732 122.769 107.854 122.579 107.985 122.395C108.047 122.578 108.16 122.761 108.156 122.94C108.142 123.537 107.958 124.091 107.464 124.468C106.817 124.946 106.099 125.342 105.484 125.866C104.562 126.659 103.973 127.608 104.394 128.919C104.571 129.465 104.706 130.035 104.782 130.6C104.825 130.929 104.779 131.299 104.662 131.607C104.403 132.282 104.689 132.735 105.213 133.06C105.9 133.487 106.618 133.868 107.336 134.241C108.179 134.686 108.911 135.239 109.276 136.15C109.584 136.917 110.034 137.551 110.669 138.1C111.009 138.386 111.347 138.793 111.463 139.211C111.87 140.68 112.8 141.908 113.293 143.323C113.951 145.199 114.987 146.833 116.094 148.464C117.256 150.184 118.279 151.995 119.34 153.782C119.508 154.068 119.684 154.456 119.622 154.749C119.397 155.823 120.003 156.533 120.618 157.219C122.577 159.394 125.223 160.684 127.502 162.443C127.94 162.783 128.585 162.838 129.108 163.074C130.373 163.659 131.69 164.205 132.677 165.203C133.979 166.526 135.418 167.688 136.815 168.895C137.193 169.223 137.356 169.64 137.419 170.099C137.495 170.675 137.491 171.265 137.617 171.823C137.872 172.962 138.067 174.076 137.718 175.242C137.597 175.649 137.709 176.172 137.846 176.603C138.583 178.89 138.397 181.156 137.796 183.427C137.709 183.757 137.633 184.127 137.706 184.438C138.532 187.859 138.079 191.339 138.21 194.791C138.246 195.706 138.068 196.636 137.916 197.547C137.725 198.686 137.496 199.821 137.21 200.943C137.028 201.64 136.965 202.28 137.229 202.971C137.62 203.992 137.562 205.046 137.179 206.034C136.775 207.065 136.735 208.075 137.151 209.071C137.702 210.386 137.352 211.826 137.877 213.158C138.109 213.746 137.835 214.523 137.866 215.209C137.889 215.787 137.984 216.367 138.123 216.918C138.273 217.503 138.246 218.032 138.039 218.605C137.77 219.36 137.584 220.151 137.4 220.938C136.786 223.527 136.186 226.122 135.59 228.718C135.486 229.179 135.362 229.617 134.99 229.933C134.229 230.571 134.217 231.406 134.669 232.121C135.429 233.321 135.494 234.767 136.25 235.958C136.934 237.033 136.883 238.177 136.277 239.259C135.916 239.898 135.816 240.523 135.913 241.249C136.007 241.934 135.957 242.634 135.957 243.327C135.957 244.174 136.243 244.917 136.741 245.58C137.018 245.955 137.315 246.309 137.602 246.673C136.349 246.629 136.136 246.753 135.871 247.729C135.786 248.051 135.643 248.395 135.685 248.715C135.833 249.827 136.044 250.938 136.242 252.047C136.306 252.404 137.108 252.606 137.396 252.354C137.832 251.965 138.203 251.501 138.181 250.92C138.15 250.124 138.193 249.356 138.298 248.571C138.396 247.863 138.033 247.261 137.635 246.701C138.228 246.877 138.736 246.676 139.262 246.4C139.674 246.184 139.765 246.296 139.892 246.84C139.967 247.17 140.181 247.494 140.166 247.808C140.086 249.28 139.793 250.76 139.875 252.225C139.953 253.721 139.75 255.157 139.521 256.61C139.448 257.075 139.397 257.531 139.649 257.937C140.472 259.268 140.197 260.562 139.574 261.861C139.448 262.132 139.285 262.228 139.036 262.108C138.937 262.058 138.81 261.996 138.776 261.907C138.619 261.508 138.487 261.104 138.346 260.704C137.316 260.672 136.494 261.249 136.306 262.12C136.051 263.28 135.415 264.185 134.937 265.195C134.872 265.34 135.015 265.654 135.155 265.792C135.286 265.923 135.574 266.031 135.733 265.971C136.04 265.864 136.315 265.475 136.589 265.491C137.256 265.521 137.922 265.687 138.578 265.85C138.953 265.944 139.288 266.555 139.193 266.96C138.989 267.833 138.776 268.695 138.939 269.599C138.97 269.591 139.001 269.587 139.031 269.58C139.047 269.654 139.059 269.665 139.074 269.711C139.151 269.738 139.219 269.761 139.216 269.775C139.18 269.921 139.127 269.871 139.074 269.711C139.031 269.695 138.983 269.681 138.947 269.665C138.942 269.642 138.942 269.622 138.939 269.599C138.307 269.701 137.69 269.812 137.179 270.287C136.82 270.625 136.595 270.973 136.678 271.455C136.753 271.893 136.855 272.337 137.022 272.748C137.143 273.05 137.519 273.288 137.549 273.581C137.595 274.013 137.46 274.478 137.784 274.85C137.906 274.993 138.073 275.098 138.229 275.21V275.207L138.373 275.136L138.3 275.269C138.275 275.25 138.254 275.229 138.229 275.21C138.21 275.531 138.218 275.859 138.167 276.173C138.003 277.165 138.003 277.149 138.842 277.652C139.366 277.965 139.866 278.31 140.376 278.649C140.376 278.672 140.376 278.699 140.376 278.724C140.393 278.721 140.411 278.712 140.431 278.711C140.868 279.445 140.873 279.555 140.441 280.051C140.415 280.044 140.387 280.035 140.36 280.03C140.357 280.069 140.357 280.11 140.357 280.15L140.466 280.056C140.454 281.179 140.857 282.284 140.516 283.424C140.374 283.892 140.776 284.239 141.307 284.248C141.817 284.264 142.081 283.997 142.136 283.406C142.22 282.558 142.166 281.691 142.519 280.888C142.505 280.877 142.5 280.856 142.484 280.843L142.361 280.642L142.569 280.756C142.546 280.799 142.539 280.845 142.518 280.888C142.841 281.213 143.048 281.602 143.046 282.054C143.044 282.551 143.22 282.958 143.532 283.302C143.876 283.682 144.048 284.041 143.683 284.512C143.397 284.872 143.133 285.247 142.611 285.247C142.382 285.247 142.135 285.153 141.932 285.213C141.739 285.268 141.536 285.441 141.437 285.615C141.312 285.839 141.431 286.077 141.669 286.155C141.99 286.269 142.322 286.417 142.653 286.429C143.787 286.488 144.067 287.421 144.528 288.172C144.285 288.831 144.587 289.235 145.121 289.597C145.848 290.075 146.535 290.619 147.236 291.138C147.293 291.129 147.352 291.135 147.412 291.122C147.418 291.194 147.462 291.231 147.481 291.291C147.686 291.385 147.828 291.538 147.912 291.741C147.969 291.763 148.001 291.804 148.067 291.815L148.145 291.976L147.99 291.895C147.976 291.836 147.935 291.797 147.912 291.742C147.697 291.662 147.552 291.514 147.481 291.291C147.426 291.267 147.392 291.223 147.331 291.21C147.3 291.184 147.267 291.161 147.236 291.14C146.248 291.247 145.314 291.1 144.45 290.547C144.272 290.433 144.023 290.41 143.802 290.396C143.72 290.387 143.549 290.538 143.558 290.604C143.581 290.817 143.605 291.116 143.743 291.212C145.14 292.184 146.568 293.099 147.728 294.391C148.154 294.863 148.884 295.116 149.524 295.327C149.919 295.463 150.397 295.347 150.839 295.336C150.959 295.077 151.073 294.814 151.204 294.56C151.246 294.476 151.363 294.377 151.441 294.385C151.709 294.392 151.733 294.54 151.631 294.808C151.568 294.97 151.593 295.169 151.593 295.354C151.788 295.42 151.984 295.5 152.184 295.546C152.915 295.722 153.455 296.034 153.241 296.928C153.18 297.195 153.296 297.389 153.568 297.45C154.418 297.646 154.901 298.184 155.232 298.97C155.423 299.414 155.922 299.49 156.383 299.515C156.785 299.013 157.057 298.399 157.688 298.115C157.939 297.999 158.175 298.045 158.266 298.289C158.339 298.493 158.339 298.73 158.322 298.95C158.286 299.4 158.205 299.901 158.633 300.181C158.998 300.421 159.448 300.576 159.881 300.652C160.195 300.706 160.541 300.545 160.877 300.541C161.323 300.537 161.773 300.596 162.219 300.631C162.95 300.679 162.961 300.66 162.738 299.626C162.705 299.638 162.67 299.645 162.636 299.657C162.636 299.572 162.62 299.545 162.611 299.495C162.565 299.462 162.519 299.433 162.471 299.4C162.548 299.288 162.59 299.355 162.611 299.495C162.651 299.517 162.69 299.545 162.726 299.567C162.732 299.595 162.732 299.602 162.737 299.626C163.364 299.444 163.989 299.252 164.618 299.085C165.128 298.943 165.357 298.619 165.437 298.116C165.478 297.844 165.716 297.803 165.989 297.848C166.431 297.925 166.976 298.15 167.304 297.98C168.09 297.569 168.774 296.971 169.489 296.43C169.531 296.402 169.494 296.205 169.434 296.128C169.107 295.693 168.57 295.933 168.17 295.764C166.694 295.144 165.235 294.478 163.78 293.814C163.576 293.72 163.364 293.589 163.226 293.418C162.569 292.628 161.645 292.128 161.005 291.287C160.636 290.81 160.457 290.38 160.345 289.8C160.059 288.293 159.273 287.662 157.76 287.595C157.357 287.575 156.952 287.608 156.547 287.625C156.533 287.664 156.514 287.699 156.494 287.737C156.44 287.749 156.404 287.776 156.352 287.791C156.292 288.109 156.269 288.495 156.097 288.584C154.937 289.134 154.968 290.177 154.86 291.191C154.847 291.3 154.838 291.419 154.787 291.513C154.747 291.588 154.615 291.699 154.572 291.682C154.48 291.641 154.355 291.531 154.352 291.443C154.333 290.992 154.302 290.534 154.365 290.091C154.534 288.897 155.193 288.113 156.351 287.792C156.361 287.738 156.372 287.68 156.385 287.629C156.44 287.625 156.494 287.625 156.547 287.625C156.822 287.022 157.114 286.452 157.988 286.72C158.098 286.75 158.228 286.795 158.326 286.767C158.532 286.702 158.794 286.637 158.901 286.482C159 286.338 159.012 286.021 158.916 285.878C158.412 285.109 157.756 284.428 157.357 283.623C156.954 282.809 156.797 281.878 156.519 280.999C156.215 280.032 156.412 279.172 157.059 278.417C157.357 278.072 157.67 277.726 158.026 277.453C158.926 276.767 159.336 275.89 159.241 274.761C159.161 273.791 159.491 272.989 160.194 272.275C160.919 271.534 161.552 270.707 162.193 269.887C162.562 269.423 162.7 268.862 162.62 268.262C162.576 267.92 162.546 267.573 162.472 267.235C162.263 266.282 161.902 265.478 160.721 265.444C160.131 265.42 159.61 265.185 159.149 264.796C158.618 264.356 158.048 263.955 157.534 263.493C156.441 262.505 156.316 261.325 157.215 260.114C157.551 259.662 157.966 259.221 158.441 258.937C159.129 258.526 159.914 258.288 160.644 257.94C160.834 257.851 161.097 257.664 161.117 257.496C161.229 256.495 162.067 255.612 161.578 254.512C161.443 254.201 161.417 253.837 161.382 253.497C161.289 252.532 161.497 251.694 162.237 250.985C162.692 250.544 163.047 249.997 163.433 249.487C163.428 249.487 163.423 249.487 163.418 249.481C163.39 249.441 163.361 249.4 163.332 249.36C163.057 249.339 162.776 249.334 162.53 249.234C162.301 249.149 162.333 248.883 162.558 248.736C162.639 248.675 162.833 248.635 162.861 248.673C163.034 248.889 163.182 249.127 163.332 249.36C163.396 249.361 163.458 249.366 163.52 249.373C163.489 249.407 163.464 249.45 163.434 249.487C163.656 249.524 163.881 249.602 164.101 249.588C164.929 249.524 165.465 248.958 165.333 248.262C165.224 247.698 165.05 247.148 164.882 246.598C164.797 246.308 164.308 246.129 163.993 246.257C163.78 246.35 163.593 246.493 163.383 246.587C162.282 247.062 161.239 246.575 160.976 245.466C160.818 244.794 160.68 244.114 160.52 243.439C160.469 243.22 160.373 243.01 160.313 242.793C160.213 242.408 160.831 241.921 161.265 242.077C161.914 242.307 162.577 242.53 163.172 242.866C164.033 243.354 164.926 243.428 165.865 243.3C166.832 243.165 167.937 242.094 167.914 241.216C167.897 240.531 167.647 239.846 167.659 239.165C167.676 238.373 167.874 237.588 167.98 236.793C167.992 236.688 167.913 236.572 167.879 236.459C167.813 236.24 167.734 236.02 167.693 235.793C167.553 235.042 167.899 234.603 168.565 234.743C171.138 235.294 173.632 235.072 176.068 234.093C176.713 233.83 177.388 233.648 178.025 233.364C179.106 232.883 180.03 232.296 180.291 230.953C180.44 230.182 180.948 229.485 181.255 228.742C181.428 228.315 181.539 227.862 181.64 227.414C181.755 226.896 181.441 226.225 180.967 225.942C180.668 225.767 180.338 225.652 180.04 225.479C179.715 225.282 179.601 224.937 179.617 224.584C179.633 224.241 179.694 223.892 179.819 223.571C180.174 222.657 179.766 222.034 179.12 221.439C178.394 220.767 177.42 220.422 176.767 219.663C176.706 219.655 176.644 219.651 176.582 219.642C176.574 219.58 176.569 219.518 176.559 219.452C176.505 219.402 176.449 219.347 176.398 219.295C176.449 219.319 176.532 219.345 176.552 219.391C176.56 219.409 176.554 219.434 176.559 219.452C176.597 219.491 176.632 219.527 176.666 219.564C176.698 219.602 176.738 219.627 176.767 219.663C178.418 219.848 180.109 219.836 181.61 220.744C181.888 220.908 182.277 220.924 182.617 220.945C183.307 220.991 184 221.002 184.695 221.009C186.436 221.021 187.82 220.405 188.755 218.848C189.223 218.062 189.435 217.109 190.195 216.505C191.055 215.819 191.478 214.883 191.741 213.857C192.028 212.741 192.313 211.622 192.601 210.502L192.67 210.586C192.684 210.548 192.693 210.508 192.704 210.474C192.685 210.479 192.666 210.481 192.646 210.485C192.371 209.525 192.481 209.088 193.19 208.673C193.436 208.532 193.739 208.486 194.026 208.409C194.215 207.534 194.494 206.69 194.998 205.944C195.11 205.78 195.367 205.619 195.549 205.626C195.681 205.63 195.853 205.894 195.92 206.072C196.031 206.371 196.085 206.689 196.159 206.998C196.804 206.923 197.118 206.42 197.33 205.914C198.283 203.677 199.299 201.491 200.719 199.481C201.655 198.147 202.217 196.579 201.326 194.905C201.22 194.711 201.205 194.458 201.169 194.235C200.839 192.167 201.213 190.336 202.901 188.913C203.607 188.32 204.293 187.69 204.937 187.025C206.012 185.919 207.33 185.16 208.739 184.675C209.531 184.404 210.203 184.112 210.785 183.532C211.27 183.042 211.904 182.707 212.074 181.947C212.103 181.814 212.462 181.648 212.625 181.686C213.33 181.853 213.99 181.684 214.681 181.585C215.35 181.497 216.052 181.659 216.739 181.648C218.036 181.62 219.217 181.38 220.096 180.217C220.487 179.701 221.266 179.5 221.822 179.086C222.2 178.802 222.419 178.388 222.294 177.873C222.152 177.284 222.228 176.738 222.53 176.205C223.217 174.997 223.817 173.735 224.578 172.582C225.188 171.665 225.489 170.732 225.345 169.645C225.234 168.829 225.223 167.969 225.701 167.291C226.635 165.979 226.785 164.493 226.849 162.994C226.93 161.144 226.93 159.288 226.928 157.435C226.925 156.169 226.826 154.9 226.836 153.631C226.84 153.045 227.025 152.424 227.605 152.164C229.214 151.453 230.12 150.189 230.655 148.578C230.762 148.249 230.973 147.962 231.116 147.645C231.55 146.678 232.133 145.853 232.948 145.148C233.911 144.316 234.796 143.39 235.663 142.458C236.537 141.521 237.234 140.46 237.698 139.25C238.143 138.095 238.499 135.414 238.192 134.484C237.685 132.944 237.129 131.426 236.534 129.924C236.424 129.634 236.096 129.351 235.802 129.231C235.277 129.011 234.687 128.755 234.143 128.798C233.13 128.88 232.327 128.547 231.597 127.932C230.712 127.182 229.445 126.925 228.795 125.919C227.727 124.256 225.993 123.552 224.392 122.637C223.66 122.215 222.877 122.022 222.061 122.052C219.25 122.149 216.529 121.645 213.829 120.943C213.521 120.863 213.135 120.936 212.825 121.044C212.392 121.197 211.998 121.459 211.579 121.656C211.258 121.808 210.936 121.638 210.785 121.245C210.578 120.707 210.461 120.115 210.17 119.626C209.946 119.261 209.526 118.778 209.165 118.75C207.59 118.639 206.37 117.705 204.997 117.136C203.922 116.686 202.84 116.344 201.647 116.276C200.615 116.221 199.819 116.431 199.313 117.379C199.268 117.468 199.132 117.56 199.044 117.554C198.818 117.548 198.746 117.367 198.816 117.09C198.872 116.869 198.919 116.635 198.971 116.416C199.188 115.488 198.61 114.954 198.068 114.744C197.225 114.411 196.341 114.174 195.474 113.905C195.432 114.097 195.388 114.3 195.348 114.496C195.367 114.496 195.385 114.496 195.406 114.501L195.511 114.613L195.333 114.559C195.336 114.535 195.342 114.515 195.348 114.496C194.368 114.353 193.431 114.403 192.654 115.132C192.388 114.582 191.874 114.529 191.346 114.487C192.091 113.755 193.014 113.36 194.01 113.112C194.249 112.243 194.518 111.382 194.708 110.501C194.831 109.936 194.805 109.351 194.398 108.854C193.963 108.324 193.706 107.684 193.216 107.158C192.265 106.133 191.579 104.921 191.342 103.504C191.226 102.795 190.912 102.177 190.41 101.678C188.523 99.7934 186.683 97.8357 183.873 97.3214C183.541 97.2638 183.215 97.1012 182.908 96.9412C181.738 96.3293 180.489 96.2256 179.193 96.267C177.92 96.3056 176.644 96.2744 175.369 96.2256C175.042 96.2168 174.684 96.0888 174.399 95.9193C173.215 95.2248 172.272 94.1236 170.828 93.8546C170.666 93.8268 170.494 93.5381 170.433 93.3443C170.262 92.7792 170.011 92.2675 169.589 91.8535C168.851 91.1216 168.158 90.3397 167.355 89.6857C166.833 89.2575 166.18 88.9356 165.536 88.7181C165.001 88.5371 164.393 88.5785 163.82 88.5053C163.456 88.4592 163.156 88.2769 163.177 87.8737C163.224 86.7875 162.666 86.1613 161.718 85.7588C160.863 85.3983 160.023 85.0073 159.203 84.5817C158.918 84.4381 158.569 84.1846 158.5 83.919C158.392 83.5002 158.857 83.465 159.156 83.3552C159.265 83.3213 159.372 83.2827 159.478 83.2319C159.723 83.1201 159.819 82.9344 159.707 82.7148C159.662 82.6288 159.529 82.5664 159.42 82.5325C158.399 82.1842 157.352 82.3374 156.315 82.3997C155.685 82.4384 155.216 82.21 154.794 81.7546C154.622 81.5622 154.319 81.6652 154.2 81.9139C154.048 82.2202 154.052 82.662 153.827 82.8612C152.776 83.7828 151.071 84.5214 149.705 83.5266C148.877 82.9229 148.02 82.8815 147.069 82.9805C146.035 83.0923 144.992 83.1356 143.948 83.1905C143.439 83.2109 143.113 82.9689 142.911 82.4661C142.87 82.3577 142.869 82.2371 142.846 82.1226C142.69 81.3677 142.233 80.8947 141.479 80.7293C141.028 80.6291 140.573 80.5369 140.113 80.4807C139.213 80.3682 138.64 79.9114 138.386 79.0244C138.288 78.6903 138.04 78.4504 137.652 78.4044C137.3 78.361 136.695 78.7018 136.53 79.0766C136.433 79.2853 136.329 79.5096 136.317 79.7291C136.27 80.5382 135.837 80.9665 135.083 81.1908C134.529 81.3535 134.01 81.632 133.475 81.8488C133.143 81.9816 132.892 81.8651 132.649 81.4463C132.476 81.1475 132.288 80.8269 132.598 80.5118C133.079 80.0239 133.597 79.5624 134.068 79.0671C134.325 78.7967 134.125 78.056 133.728 77.8663C133.433 77.7315 133.064 77.6122 132.757 77.661C131.946 77.7924 131.206 78.1448 130.618 78.7418C129.865 79.494 128.985 80.0747 127.971 80.3363C126.858 80.6135 125.667 80.606 124.738 81.4429C124.614 81.5554 124.287 81.4592 124.058 81.4314C123.289 81.3467 122.708 81.7085 122.229 82.2337C121.605 82.9269 120.992 83.6669 120.868 84.6129C120.755 85.4823 120.424 86.0976 119.673 86.5862C119 87.028 118.384 87.5857 117.852 88.1881C117.597 88.4782 117.546 88.9464 117.424 89.3577C117.443 89.3611 117.464 89.3652 117.479 89.3679L117.474 89.5739L117.398 89.4499C117.409 89.4187 117.415 89.3835 117.424 89.3577C117.223 89.2947 116.999 89.2676 116.853 89.1436C116.241 88.6198 115.64 88.0784 115.073 87.5091C114.309 86.7427 113.374 86.3544 112.34 86.12C110.944 85.811 109.598 85.8164 108.319 86.5598C107.922 86.7908 107.475 86.9345 107.081 87.1724C106.145 87.7402 105.205 88.0784 104.174 87.4278C102.271 87.2462 101.091 85.979 100.032 84.5933C99.4068 83.7794 98.9025 82.8639 98.3859 81.9627C98.223 81.6767 98.126 81.3175 98.1199 80.9882C98.0947 79.8308 98.0968 78.6924 98.8556 77.6861C99.1129 77.3452 99.2418 76.8282 99.252 76.3863C99.2819 75.2208 99.5934 74.1542 99.9396 73.0483C100.269 71.9803 100.18 70.7836 100.225 69.6357C100.234 69.4534 100.042 69.1783 99.8683 69.0895C99.4672 68.872 99.0199 68.7459 98.5923 68.5833L98.5841 68.5908C98.6119 68.6179 98.6425 68.6382 98.6696 68.666L98.464 68.7365L98.5841 68.5901C97.8307 67.9043 97.0169 67.394 95.9214 67.3595C94.887 67.3202 93.8342 67.2131 92.8297 66.9726C91.6344 66.6825 90.5687 67.3202 89.4121 67.2592C88.4958 67.2172 87.568 67.4123 86.6483 67.4123C86.0829 67.4123 85.5107 67.2755 84.9521 67.1521C84.669 67.0898 84.5618 66.8296 84.7308 66.6669C85.7869 65.6335 86.2716 64.4219 86.1399 62.9216C86.0829 62.2413 86.2519 61.544 86.3516 60.8582C86.4019 60.5058 86.5865 60.1955 86.9924 60.1853C87.8408 60.1582 88.2386 59.6466 88.3757 58.9052C88.5237 58.1158 88.7232 57.3033 88.6791 56.5145C88.6126 55.3917 88.954 54.5006 89.683 53.6854C90.1418 53.169 90.5613 52.6161 90.9516 52.0455C91.1402 51.7622 91.2319 51.4146 91.3418 51.0846C91.5346 50.5038 90.9142 49.5822 90.2898 49.564C88.9112 49.5226 87.5028 49.2943 86.1874 49.8791C85.0966 50.3643 83.9584 50.4442 82.8004 50.4761C81.7504 50.5059 81.0798 51.0839 80.6685 51.9899C80.4309 52.5137 80.2137 53.0531 80.0725 53.6027C79.6313 55.2995 79.0028 56.8845 77.6053 58.0433C77.1783 59.4047 76.3197 59.3701 75.1747 58.931C74.686 58.7453 74.0208 58.8537 73.4798 58.9974C72.3653 59.2915 71.2976 59.7794 70.177 60.0281C69.2892 60.2205 68.3328 60.2937 67.6113 59.4501C67.0697 58.8185 66.3332 58.4621 65.5581 58.2012C64.6031 57.88 64.0166 57.1847 63.642 56.3187C63.1356 55.1369 62.5207 54.0411 61.6695 53.0714C61.2758 52.6276 61.0878 52.0794 60.986 51.5027C60.8041 50.4774 60.593 49.463 60.4464 48.4377C60.3493 47.754 60.2727 47.0546 60.31 46.3641C60.4444 43.9422 60.6908 41.5265 61.2209 39.1554C61.3193 38.7142 61.4408 38.2196 61.7231 37.8929C62.5492 36.9354 62.7277 35.8695 62.6042 34.6647L62.9103 33.8427ZM94.1491 80.6358C94.0684 80.7138 93.9985 80.8344 93.9021 80.8615C93.2457 81.0634 92.5201 80.4535 92.6091 79.7752C92.6206 79.6865 92.7523 79.5462 92.8344 79.5401C93.4371 79.5103 93.9055 79.7569 94.1722 80.3106C94.2116 80.398 94.1587 80.5281 94.1491 80.6358ZM133.243 86.408C133.211 86.6553 132.712 87.0849 132.546 86.9935C132.359 86.8837 132.161 86.7549 132.048 86.5808C131.483 85.7093 131.546 85.3875 132.518 84.2822C132.628 84.1548 132.896 84.1569 133.095 84.1386C133.128 84.1372 133.201 84.3215 133.216 84.4272C133.261 84.7566 133.288 85.0852 133.333 85.5379C133.312 85.7513 133.283 86.0786 133.243 86.408ZM140.124 272.413C140.071 272.378 139.985 272.351 139.976 272.309C139.953 272.216 139.951 272.104 139.985 272.017C140.083 271.781 140.179 271.828 140.208 272.145C140.215 272.231 140.153 272.323 140.124 272.413ZM141.016 161.859C141.007 161.825 140.984 161.802 140.974 161.767C139.911 161.767 139.23 161.132 138.705 160.29C138.628 160.166 138.749 159.902 138.81 159.71C138.825 159.677 139.034 159.644 139.085 159.693C139.797 160.31 140.674 160.786 140.974 161.767C141.018 161.767 141.054 161.782 141.1 161.782C141.155 161.836 141.21 161.887 141.263 161.944C141.18 161.913 141.098 161.891 141.016 161.859ZM147.473 285.542C147.462 285.58 147.449 285.624 147.441 285.666L147.225 285.763L147.358 285.583C147.424 285.569 147.431 285.554 147.473 285.542C147.485 285.491 147.496 285.445 147.509 285.395C147.665 285.435 147.622 285.483 147.473 285.542ZM149.324 289.018C149.131 289.112 148.938 289.225 148.736 289.288C148.662 289.309 148.514 289.225 148.467 289.146C148.311 288.902 148.396 288.71 148.687 288.685C148.901 288.666 149.123 288.728 149.337 288.769C149.349 288.777 149.329 288.933 149.324 289.018ZM149.938 293.074C149.904 293.065 149.888 292.957 149.864 292.897C149.945 292.878 150.025 292.855 150.106 292.838C150.129 292.902 150.154 292.964 150.177 293.025C150.098 293.046 150.014 293.084 149.938 293.074ZM151.637 290.398C151.619 290.436 151.601 290.471 151.582 290.511C151.524 290.53 151.484 290.569 151.428 290.596C151.359 290.827 151.211 290.988 150.972 291.054C150.948 291.109 150.9 291.139 150.887 291.205L150.73 291.333L150.803 291.123C150.878 291.118 150.908 291.073 150.971 291.054C151.06 290.841 151.22 290.692 151.428 290.596C151.445 290.533 151.489 290.496 151.497 290.425C151.573 290.423 151.588 290.404 151.637 290.398C151.666 290.341 151.696 290.283 151.726 290.223C151.873 290.324 151.811 290.375 151.637 290.398ZM156.649 292.161C156.878 292.037 157.089 292.076 157.213 292.294C157.24 292.344 157.16 292.499 157.092 292.556C156.924 292.7 156.735 292.817 156.557 292.944C156.459 292.931 156.349 292.944 156.265 292.897C156.045 292.785 156.252 292.382 156.649 292.161ZM154.402 294.653C154.413 294.707 154.427 294.761 154.437 294.816C154.868 295.045 155.299 295.273 155.73 295.507C155.752 295.493 155.776 295.487 155.799 295.479C155.821 295.472 155.843 295.463 155.861 295.453C155.854 295.285 155.838 295.116 155.857 294.949C155.884 294.692 156.048 294.573 156.288 294.627C156.382 294.647 156.483 294.716 156.548 294.789C156.727 294.997 156.668 295.169 156.397 295.274C156.218 295.34 156.039 295.398 155.861 295.454C155.865 295.493 155.863 295.535 155.865 295.575C155.818 295.553 155.773 295.528 155.729 295.507C155.554 295.573 155.388 295.649 155.209 295.692C154.85 295.781 154.63 295.6 154.53 295.269C154.486 295.125 154.463 294.969 154.436 294.816C154.394 294.796 154.354 294.774 154.312 294.75C154.285 294.704 154.254 294.661 154.232 294.615C154.022 294.592 153.792 294.604 153.754 294.29C153.753 294.277 153.982 294.209 154.005 294.238C154.094 294.357 154.162 294.487 154.232 294.615C154.292 294.622 154.351 294.631 154.402 294.653ZM157.379 93.1214L157.509 92.9093L157.548 93.1674L157.379 93.1214ZM162.597 206.903C162.41 206.83 162.227 206.757 162.045 206.683C162.134 206.626 162.22 206.544 162.317 206.512C162.418 206.485 162.545 206.478 162.637 206.512C162.729 206.546 162.793 206.654 162.867 206.727C162.775 206.788 162.685 206.846 162.597 206.903ZM178.62 99.6633C178.564 99.6321 178.561 99.5163 178.534 99.4383C178.695 99.3652 178.855 99.2967 179.019 99.2242C179.05 99.3143 179.125 99.418 179.104 99.4898C179.026 99.7229 178.84 99.7894 178.62 99.6633ZM192.169 115.971C191.912 116.315 191.338 116.415 191.017 116.193C190.71 115.979 190.689 115.635 190.804 115.334C190.899 115.084 191.071 114.857 191.226 114.626C191.257 114.796 191.28 114.97 191.338 115.132C191.47 115.486 191.75 115.628 192.11 115.528C192.255 115.486 192.388 115.414 192.521 115.342C192.414 115.555 192.314 115.781 192.169 115.971ZM195.636 119.783C195.645 119.71 195.633 119.589 195.669 119.572C195.857 119.478 196.053 119.392 196.256 119.337C196.296 119.33 196.423 119.471 196.423 119.547C196.423 119.623 196.326 119.759 196.259 119.767C196.054 119.801 195.845 119.783 195.636 119.783ZM196.536 127.582C196.528 127.602 196.374 127.602 196.349 127.564C196.171 127.293 196.008 127.015 195.837 126.736C195.69 126.492 195.733 126.3 195.982 126.212C196.043 126.192 196.191 126.31 196.237 126.393C196.39 126.674 196.516 126.971 196.629 127.205C196.59 127.381 196.578 127.49 196.536 127.582ZM198.92 167.795L198.679 167.704L198.923 167.61L198.92 167.795Z" fill="url(#paint3_linear_474_3226)"/>
<path fill-rule="evenodd" clip-rule="evenodd" d="M127.183 60.6386C127.869 60.6054 128.556 60.4814 129.243 60.5004C130.046 60.5275 130.851 60.6237 131.644 60.7592C132.382 60.8846 132.657 61.6707 133.262 61.9892C133.429 62.0786 133.709 62.0644 133.895 61.9892C134.094 61.9119 134.285 61.7337 134.404 61.5528C134.958 60.6996 135.685 60.2673 136.739 60.4374C137.067 60.4821 137.471 60.4726 137.75 60.3222C139.065 59.6045 140.412 59.7021 141.772 60.0477C142.012 59.9976 142.28 60.0199 142.443 59.8973C142.703 59.6974 142.951 59.4392 143.083 59.1437C143.145 59.0109 142.985 58.6524 142.823 58.5542C141.542 57.7837 140.374 56.8594 139.203 55.9365C138.854 55.6634 138.387 55.5007 137.948 55.3937C136.378 55.0101 134.812 54.6361 133.19 55.2615C132.642 55.4696 132.055 55.2161 131.56 54.8773C131.368 54.7492 131.189 54.6015 130.985 54.5005C130.546 54.2898 129.984 54.5534 129.557 55.1728C129.341 55.4906 129.359 55.8802 129.669 56.074C130.492 56.568 130.443 57.4252 130.647 58.1801C130.756 58.5759 130.655 58.7094 130.035 58.4322C129.448 58.1693 129.23 58.6558 128.839 58.7311C127.947 58.9011 127.031 58.9601 126.131 59.1132C126.021 59.1295 125.862 59.509 125.908 59.6642C126.086 60.2673 126.63 60.6596 127.183 60.6386Z" fill="url(#paint4_linear_474_3226)"/>
<path fill-rule="evenodd" clip-rule="evenodd" d="M161.148 83.8695C161.093 84.3567 161.451 84.743 161.936 84.7287C162.573 84.7132 163.049 84.3106 163.146 83.7197C163.241 83.1234 162.841 82.565 162.251 82.4803C161.781 82.4099 161.341 82.7094 161.24 83.1837C161.193 83.4073 161.173 83.6364 161.148 83.8695Z" fill="url(#paint5_linear_474_3226)"/>
<path fill-rule="evenodd" clip-rule="evenodd" d="M196.121 207.092C196.137 207.086 196.155 207.081 196.173 207.071C196.166 207.051 196.161 207.025 196.152 206.997C196.135 207.001 196.123 207.009 196.104 207.013C196.107 207.036 196.114 207.065 196.121 207.092Z" fill="url(#paint6_linear_474_3226)"/>
<path fill-rule="evenodd" clip-rule="evenodd" d="M194.027 208.474C193.681 208.869 193.314 209.253 193.013 209.68C192.854 209.904 192.788 210.194 192.696 210.473C194.555 210.233 195.623 209.102 196.14 207.353C196.164 207.279 196.14 207.185 196.12 207.09C195.837 207.203 195.533 207.286 195.29 207.454C194.848 207.763 194.443 208.133 194.027 208.474Z" fill="url(#paint7_linear_474_3226)"/>
<path fill-rule="evenodd" clip-rule="evenodd" d="M194.027 208.474C194.052 208.447 194.079 208.415 194.104 208.387C194.076 208.396 194.047 208.402 194.018 208.408C194.012 208.441 193.996 208.47 193.992 208.501C194.002 208.495 194.015 208.484 194.027 208.474Z" fill="url(#paint8_linear_474_3226)"/>
<path fill-rule="evenodd" clip-rule="evenodd" d="M129.487 51.891C129.583 51.8557 129.736 51.7392 129.725 51.6822C129.695 51.481 129.658 51.2255 129.523 51.1042C129.254 50.8677 128.896 50.903 128.627 51.1191C128.478 51.2391 128.322 51.5108 128.362 51.6619C128.4 51.813 128.682 51.9059 128.858 52.0211C129.068 51.9797 129.283 51.9567 129.487 51.891Z" fill="url(#paint9_linear_474_3226)"/>
<path fill-rule="evenodd" clip-rule="evenodd" d="M137.622 257.44C137.704 257.39 137.801 257.278 137.793 257.19C137.766 256.759 137.642 256.358 137.244 256.101C137.079 256.223 136.826 256.308 136.77 256.465C136.611 256.909 136.817 257.25 137.324 257.472C137.404 257.509 137.54 257.486 137.622 257.44Z" fill="url(#paint10_linear_474_3226)"/>
<path fill-rule="evenodd" clip-rule="evenodd" d="M138.924 259.256C138.822 259.091 138.576 258.931 138.386 258.919C138.139 258.908 138.009 259.141 138.065 259.388C138.154 259.784 138.268 260.175 138.372 260.566C138.581 260.345 138.819 260.14 138.962 259.885C139.051 259.727 139.02 259.421 138.924 259.256Z" fill="url(#paint11_linear_474_3226)"/>
<path fill-rule="evenodd" clip-rule="evenodd" d="M138.371 260.566C138.352 260.587 138.328 260.605 138.31 260.628C138.319 260.653 138.328 260.681 138.338 260.705C138.361 260.705 138.381 260.694 138.406 260.698C138.394 260.653 138.382 260.609 138.371 260.566Z" fill="url(#paint12_linear_474_3226)"/>
<path fill-rule="evenodd" clip-rule="evenodd" d="M139.498 278.96C139.162 279.107 139.162 279.633 139.5 279.793C139.762 279.917 140.06 279.963 140.351 280.031C140.356 279.595 140.359 279.162 140.367 278.725C140.071 278.791 139.767 278.838 139.498 278.96Z" fill="url(#paint13_linear_474_3226)"/>
<path fill-rule="evenodd" clip-rule="evenodd" d="M194.11 113.174C194.097 113.147 194.077 113.128 194.067 113.094C194.044 113.098 194.025 113.106 194.002 113.11C193.996 113.133 193.99 113.153 193.985 113.174C194.029 113.172 194.067 113.174 194.11 113.174Z" fill="url(#paint14_linear_474_3226)"/>
<path fill-rule="evenodd" clip-rule="evenodd" d="M195.371 113.798C195.107 113.272 194.642 113.161 194.11 113.174C194.332 113.785 194.824 113.847 195.371 113.798Z" fill="url(#paint15_linear_474_3226)"/>
<path fill-rule="evenodd" clip-rule="evenodd" d="M172.44 296.563C172.505 296.587 172.614 296.494 172.704 296.45C172.629 296.393 172.545 296.28 172.478 296.288C172.13 296.332 172.113 296.45 172.44 296.563Z" fill="url(#paint16_linear_474_3226)"/>
<path fill-rule="evenodd" clip-rule="evenodd" d="M151.459 295.418C151.501 295.42 151.541 295.42 151.584 295.42C151.584 295.397 151.584 295.373 151.584 295.353C151.565 295.351 151.545 295.344 151.527 295.335C151.5 295.373 151.484 295.39 151.459 295.418Z" fill="url(#paint17_linear_474_3226)"/>
<path fill-rule="evenodd" clip-rule="evenodd" d="M151.46 295.418C151.278 295.418 151.098 295.418 150.917 295.418C151.147 295.73 151.211 295.73 151.46 295.418Z" fill="url(#paint18_linear_474_3226)"/>
<defs>
<linearGradient id="paint0_linear_474_3226" x1="195.428" y1="113.923" x2="195.431" y2="113.767" gradientUnits="userSpaceOnUse">
<stop stop-color="#8DFF33"/>
<stop offset="0.505208" stop-color="#23D1AE"/>
<stop offset="1" stop-color="#00A88E"/>
</linearGradient>
<linearGradient id="paint1_linear_474_3226" x1="150.854" y1="295.435" x2="150.856" y2="295.311" gradientUnits="userSpaceOnUse">
<stop stop-color="#8DFF33"/>
<stop offset="0.505208" stop-color="#23D1AE"/>
<stop offset="1" stop-color="#00A88E"/>
</linearGradient>
<linearGradient id="paint2_linear_474_3226" x1="156.358" y1="299.603" x2="156.36" y2="299.497" gradientUnits="userSpaceOnUse">
<stop stop-color="#8DFF33"/>
<stop offset="0.505208" stop-color="#23D1AE"/>
<stop offset="1" stop-color="#00A88E"/>
</linearGradient>
<linearGradient id="paint3_linear_474_3226" x1="114.713" y1="361.215" x2="126.87" y2="-67.5926" gradientUnits="userSpaceOnUse">
<stop stop-color="#8DFF33"/>
<stop offset="0.505208" stop-color="#23D1AE"/>
<stop offset="1" stop-color="#00A88E"/>
</linearGradient>
<linearGradient id="paint4_linear_474_3226" x1="134.166" y1="63.5894" x2="134.274" y2="52.6876" gradientUnits="userSpaceOnUse">
<stop stop-color="#8DFF33"/>
<stop offset="0.505208" stop-color="#23D1AE"/>
<stop offset="1" stop-color="#00A88E"/>
</linearGradient>
<linearGradient id="paint5_linear_474_3226" x1="162.112" y1="85.1851" x2="162.193" y2="81.9557" gradientUnits="userSpaceOnUse">
<stop stop-color="#8DFF33"/>
<stop offset="0.505208" stop-color="#23D1AE"/>
<stop offset="1" stop-color="#00A88E"/>
</linearGradient>
<linearGradient id="paint6_linear_474_3226" x1="196.137" y1="207.111" x2="196.141" y2="206.975" gradientUnits="userSpaceOnUse">
<stop stop-color="#8DFF33"/>
<stop offset="0.505208" stop-color="#23D1AE"/>
<stop offset="1" stop-color="#00A88E"/>
</linearGradient>
<linearGradient id="paint7_linear_474_3226" x1="194.356" y1="211.156" x2="194.463" y2="206.319" gradientUnits="userSpaceOnUse">
<stop stop-color="#8DFF33"/>
<stop offset="0.505208" stop-color="#23D1AE"/>
<stop offset="1" stop-color="#00A88E"/>
</linearGradient>
<linearGradient id="paint8_linear_474_3226" x1="194.046" y1="208.523" x2="194.05" y2="208.362" gradientUnits="userSpaceOnUse">
<stop stop-color="#8DFF33"/>
<stop offset="0.505208" stop-color="#23D1AE"/>
<stop offset="1" stop-color="#00A88E"/>
</linearGradient>
<linearGradient id="paint9_linear_474_3226" x1="129.014" y1="52.239" x2="129.041" y2="50.6951" gradientUnits="userSpaceOnUse">
<stop stop-color="#8DFF33"/>
<stop offset="0.505208" stop-color="#23D1AE"/>
<stop offset="1" stop-color="#00A88E"/>
</linearGradient>
<linearGradient id="paint10_linear_474_3226" x1="137.235" y1="257.771" x2="137.292" y2="255.786" gradientUnits="userSpaceOnUse">
<stop stop-color="#8DFF33"/>
<stop offset="0.505208" stop-color="#23D1AE"/>
<stop offset="1" stop-color="#00A88E"/>
</linearGradient>
<linearGradient id="paint11_linear_474_3226" x1="138.515" y1="260.898" x2="138.605" y2="258.546" gradientUnits="userSpaceOnUse">
<stop stop-color="#8DFF33"/>
<stop offset="0.505208" stop-color="#23D1AE"/>
<stop offset="1" stop-color="#00A88E"/>
</linearGradient>
<linearGradient id="paint12_linear_474_3226" x1="138.356" y1="260.733" x2="138.362" y2="260.535" gradientUnits="userSpaceOnUse">
<stop stop-color="#8DFF33"/>
<stop offset="0.505208" stop-color="#23D1AE"/>
<stop offset="1" stop-color="#00A88E"/>
</linearGradient>
<linearGradient id="paint13_linear_474_3226" x1="139.785" y1="280.295" x2="139.834" y2="278.428" gradientUnits="userSpaceOnUse">
<stop stop-color="#8DFF33"/>
<stop offset="0.505208" stop-color="#23D1AE"/>
<stop offset="1" stop-color="#00A88E"/>
</linearGradient>
<linearGradient id="paint14_linear_474_3226" x1="194.045" y1="113.19" x2="194.047" y2="113.076" gradientUnits="userSpaceOnUse">
<stop stop-color="#8DFF33"/>
<stop offset="0.505208" stop-color="#23D1AE"/>
<stop offset="1" stop-color="#00A88E"/>
</linearGradient>
<linearGradient id="paint15_linear_474_3226" x1="194.717" y1="113.94" x2="194.727" y2="113.027" gradientUnits="userSpaceOnUse">
<stop stop-color="#8DFF33"/>
<stop offset="0.505208" stop-color="#23D1AE"/>
<stop offset="1" stop-color="#00A88E"/>
</linearGradient>
<linearGradient id="paint16_linear_474_3226" x1="172.445" y1="296.623" x2="172.45" y2="296.224" gradientUnits="userSpaceOnUse">
<stop stop-color="#8DFF33"/>
<stop offset="0.505208" stop-color="#23D1AE"/>
<stop offset="1" stop-color="#00A88E"/>
</linearGradient>
<linearGradient id="paint17_linear_474_3226" x1="151.52" y1="295.437" x2="151.521" y2="295.316" gradientUnits="userSpaceOnUse">
<stop stop-color="#8DFF33"/>
<stop offset="0.505208" stop-color="#23D1AE"/>
<stop offset="1" stop-color="#00A88E"/>
</linearGradient>
<linearGradient id="paint18_linear_474_3226" x1="151.177" y1="295.699" x2="151.181" y2="295.365" gradientUnits="userSpaceOnUse">
<stop stop-color="#8DFF33"/>
<stop offset="0.505208" stop-color="#23D1AE"/>
<stop offset="1" stop-color="#00A88E"/>
</linearGradient>
</defs>
</svg>
