<svg width="593" height="600" viewBox="0 0 593 600" fill="none" xmlns="http://www.w3.org/2000/svg">
<path fill-rule="evenodd" clip-rule="evenodd" d="M289.837 16.3567C290.575 18.6772 291.587 16.3335 292.155 15.3288C292.353 14.951 293.242 14.5758 293.61 14.7249C294.756 15.1797 295.815 15.4984 296.848 14.5707C298.346 13.2395 300.142 13.368 301.9 13.6019C304.421 13.9282 306.238 15.925 306.307 18.3663C306.405 21.9126 306.425 25.4435 305.382 28.8921C305.171 29.5963 306.135 30.6268 306.962 30.6447C307.852 30.6653 308.723 30.5805 309.604 30.5471C309.897 30.5317 310.223 30.4494 310.488 30.542C310.737 30.6396 311.102 30.894 311.125 31.1073C311.185 31.6624 311.249 32.3357 310.997 32.7751C309.987 34.4969 307.911 34.2553 306.425 35.1445C306.186 35.2909 305.911 35.4837 305.798 35.7227C305.518 36.3728 305.721 36.9228 306.335 37.2543C307.368 37.8093 308.435 38.3233 309.468 38.8732C310.257 39.2818 311.146 39.5876 311.783 40.1658C312.801 41.091 310.486 42.178 311.606 42.9309C313.096 43.9357 314.641 44.8994 315.391 46.5338C316.196 48.2633 317.753 49.137 319.015 50.3551C319.927 51.234 321.027 51.4473 322.278 51.1183C324.838 50.4296 326.891 51.18 328.505 53.3412C329.014 54.0119 329.875 54.4488 330.625 54.8856C331.129 55.1658 331.771 55.4561 332.306 55.3765C335.207 54.9679 338.314 54.9011 340.246 52.2079C341.729 50.1418 343.664 50.1675 345.771 50.6866C347.822 51.1903 349.652 52.1976 351.137 53.6778C353.522 56.0626 356.359 56.1577 359.394 55.5795C362.699 54.9525 365.428 53.4337 367.622 50.8151C368.36 49.9311 369.593 49.4531 370.855 49.9619C373.052 50.8511 375.375 50.571 377.66 50.7663C377.678 50.702 377.686 50.6378 377.709 50.571L377.92 50.2883L377.86 50.7791C377.791 50.774 377.729 50.774 377.66 50.7663C376.609 53.8783 376.884 57.0597 377.439 60.182C377.986 63.1861 377.83 66.0874 377.03 68.9578C376.401 71.2347 375.645 73.473 374.841 75.6907C373.744 78.7385 372.225 81.6012 371.685 84.8803C371.207 87.8304 369.563 90.3668 367.663 92.6899C366.877 93.633 365.962 94.4451 364.726 94.4682C360.324 94.5633 355.891 95.2726 351.595 93.4069C350.037 92.7285 348.141 92.7644 346.393 92.6231C342.431 92.307 338.792 93.43 335.425 95.4653C333.812 96.4367 332.164 96.5446 330.322 96.1514C323.972 94.7997 317.727 92.9957 311.244 92.2582C308.923 91.9961 306.325 91.7185 304.431 90.5287C301.507 88.6939 298.387 88.239 295.193 87.7122C292.492 87.2805 290.102 86.3374 288.131 84.315C287.355 83.5132 286.165 82.9144 285.052 82.66C280.026 81.501 275.071 81.6886 270.309 83.9192C267.269 85.3454 264.594 89.8426 265.725 93.5971C266.059 94.7252 266.519 95.8148 266.776 96.9712C267.051 98.1893 266.611 99.3046 265.864 100.268C265.324 100.972 264.741 101.651 264.09 102.257C262.495 103.768 260.051 104.12 258.349 103.095C257.337 102.483 256.409 101.764 255.415 101.101C253.95 100.117 252.544 99.0142 250.987 98.1867C247.31 96.2208 243.499 94.7201 239.194 94.7843C237.269 94.8049 235.856 93.6716 235.052 91.9164C234.574 90.8525 234.186 89.7295 233.79 88.6194C233.153 86.8334 231.929 85.6307 230.164 84.9805C225.14 83.1457 220.054 81.5858 214.594 82.236C211.471 82.5983 208.835 81.2029 206.118 80.0953C205.838 79.9823 205.504 79.9052 205.337 79.697C203.379 77.3354 200.712 76.2458 197.898 75.3232C196.661 74.9146 196.109 72.3885 196.978 71.4685C198.188 70.1759 199.545 69.0195 200.712 67.7012C202.467 65.7096 202.554 63.3377 201.585 61.0352C201.028 59.7143 199.899 58.6375 199.164 57.3809C198.89 56.9312 198.789 56.1911 198.959 55.708C199.568 54.0582 200.339 52.4726 201.012 50.8408C201.344 50.0544 200.532 49.0008 199.514 49.2758C198.018 49.6792 196.641 49.8 195.546 48.3918C193.814 46.1689 191.45 46.2408 189.078 46.8859C186.809 47.4898 184.64 48.4689 182.363 49.0522C180.965 49.4094 179.459 49.3272 177.997 49.4454C175.795 47.811 173.325 50.111 171.161 49.0368C168.589 47.7673 166.636 49.7255 164.38 50.0236C162.65 50.2549 160.841 50.3474 159.109 50.1187C154.645 49.5199 150.241 49.651 145.962 51.0721C143.652 51.8353 141.285 51.7248 138.939 51.8379C136.831 51.9484 134.889 52.3775 133.008 53.3952C129.906 55.0835 126.753 56.7128 123.512 58.1133C121.068 59.1669 118.689 60.1306 116.689 62.0605C114.366 64.2962 111.27 64.6483 108.397 63.4559C106.099 62.5077 103.979 62.1787 101.54 62.5205C99.2148 62.8443 96.8095 62.8366 94.4658 62.6567C93.3865 62.5642 92.338 61.783 91.3512 61.1945C90.863 60.9041 90.5546 60.3259 90.1408 59.9096C87.81 57.5351 85.3842 58.1313 84.2637 61.3512C83.6881 63.0216 82.9557 64.6689 82.6088 66.3906C81.7813 70.5408 79.1704 73.067 75.6035 74.9994C72.4941 76.6904 69.4694 78.5663 66.509 80.5168C63.7722 82.3157 61.1458 84.2224 61.1458 88.0797C61.1458 89.6087 60.01 90.76 59.144 91.9524C57.7023 93.9491 57.0239 96.1335 57.2886 98.6236C57.4659 100.384 57.4762 102.167 57.5455 103.938C57.6047 105.464 57.1601 106.847 56.2915 108.104C55.1068 109.797 54.0198 111.563 52.7375 113.194C52.041 114.107 51.139 114.911 50.2036 115.592C48.7774 116.62 47.143 117.386 45.7759 118.483C43.8691 120.022 41.7875 120.999 39.3745 121.297C37.1414 121.577 35.6355 122.939 34.3994 124.686C33.7184 125.658 32.914 126.58 32.4515 127.649C31.4672 129.926 29.8791 131.517 27.723 132.732C25.3331 134.066 24.0611 136.317 22.7505 138.738C20.5328 142.868 18.5797 147.236 15.0205 150.546C14.1879 151.33 13.5635 152.422 13.0803 153.481C10.9988 158.058 8.82219 162.568 5.86693 166.654C4.62571 168.394 4.2865 170.442 4.04494 172.521C3.74684 175.101 4.27622 177.18 6.6353 178.624C8.6603 179.863 9.29504 181.906 8.65259 184.015C8.01785 186.084 7.93818 187.883 8.56521 190.003C10.1097 195.191 10.508 200.47 7.93818 205.568C7.6812 206.09 7.55785 206.699 7.45506 207.269C6.54535 212.561 5.19621 217.662 1.21559 221.637C0.917498 221.935 0.894369 222.853 1.13079 223.264C2.01994 224.795 3.06328 226.235 4.04494 227.699C5.07286 229.244 5.71017 230.832 4.86728 232.682C3.63891 235.388 4.56147 237.917 5.64335 240.381C6.51452 242.378 8.19516 243.658 10.0428 244.588C11.5847 245.369 13.3168 245.798 14.9666 246.374C14.9666 246.31 14.9512 246.258 14.9512 246.189L15.2158 245.827L15.0257 246.4C15.0051 246.395 14.9948 246.374 14.9666 246.374C14.9691 248.211 15.6733 249.743 17.2717 250.704C18.8752 251.66 19.9623 252.904 20.4197 254.746C20.7178 255.965 21.6455 256.795 22.7479 257.285C25.2586 258.396 27.2194 260.192 28.9771 262.201C29.7352 263.049 30.5935 264.196 30.6346 265.231C30.7914 268.978 32.675 272.005 34.3583 275.112C36.1006 278.311 38.6036 280.789 42.0985 282.122C44.5938 283.086 46.7087 284.546 48.8339 286.232C53.6883 290.079 58.3782 294.159 63.7439 297.359C66.3188 298.896 69.0145 300.024 71.8593 300.859C72.6508 301.082 73.671 301.036 74.4445 300.738C76.3745 299.995 78.2401 299.07 80.1084 298.181C83.3617 296.626 86.7205 295.755 90.3876 295.861C92.7286 295.933 95.1134 295.673 97.4365 295.29C101.016 294.714 104.406 295.031 107.695 296.608C108.487 296.971 109.376 297.184 110.234 297.42C111.976 297.934 113.711 297.906 115.456 297.264C117.391 296.557 119.408 296.03 121.341 295.29C122.978 294.673 124.72 294.1 126.126 293.101C128.356 291.505 130.8 290.59 133.37 289.819C135.904 289.053 138.373 287.725 140.951 287.463C144.754 287.077 148.367 285.265 152.312 285.926C153.17 286.083 154.101 286.054 154.892 286.37C158.287 287.766 161.07 289.87 162.504 293.399C163.167 295.054 163.737 296.75 164.518 298.333C165.991 301.265 168.525 302.578 171.734 302.66C172.621 302.678 173.518 302.645 174.384 302.506C178.174 301.838 181.991 301.267 185.73 300.383C187.965 299.864 189.708 299.792 191.023 302.062C191.594 303.043 192.578 303.85 193.542 304.477C196.713 306.502 197.029 309.799 197.17 312.96C197.245 314.972 196.602 317.079 195.965 319.03C195.436 320.698 194.105 322.152 193.755 323.838C193.357 325.788 194.063 328.001 193.555 329.9C192.732 332.984 192.439 336.353 190.003 338.83C189.656 339.177 189.667 339.904 189.597 340.467C189.559 340.732 189.685 341.043 189.79 341.313C193.66 350.926 195.043 352.936 202.729 360.052C204.019 361.262 205.311 362.49 206.668 363.642C208.973 365.589 210.556 368.067 211.831 370.762C212.468 372.091 212.89 373.476 213.306 374.902C214.265 378.282 215.632 381.481 217.531 384.526C219.746 388.039 219.818 392.344 220.818 396.301C221.005 397.041 220.309 397.979 220.191 398.843C220.044 399.996 219.846 401.217 220.062 402.32C220.597 404.925 221.19 407.526 222.547 409.877C223.133 410.905 223.747 411.977 224.022 413.102C225.173 417.939 225.173 422.629 220.951 426.139C219.08 427.689 217.88 429.711 216.292 431.425C214.596 433.247 213.514 435.29 213.229 437.708C212.764 441.576 211.685 445.235 209.919 448.689C208.943 450.601 208.575 452.605 208.539 454.695C208.485 458.246 208.475 461.808 208.485 465.362C208.498 467.194 208.986 468.918 210.305 470.232C213.72 473.67 216.01 477.825 217.531 482.33C219.168 487.105 221.468 491.574 223.747 496.035C225.387 499.25 226.651 502.292 226.605 506.057C226.559 509.876 227.332 513.705 228.522 517.398C228.972 518.803 229.462 520.276 229.439 521.715C229.375 525.937 230.642 529.877 231.451 533.914C232.359 538.416 234.427 542.237 237.192 545.797C238.637 547.662 239.975 549.618 241.502 551.414C243.103 553.275 243.874 555.395 244.416 557.764C245.475 562.377 246.816 566.925 249.15 571.119C249.736 572.147 250.149 573.27 250.548 574.375C251.483 577.009 251.817 579.533 249.692 581.871C248.849 582.802 248.764 584.14 249.504 585.158C251.177 587.458 251.301 590.113 251.591 592.749C251.655 593.304 251.953 594.047 252.38 594.299C255.443 596.046 258.547 597.771 261.711 599.338C262.399 599.677 263.584 599.611 264.268 599.248C267.174 597.652 270.088 596.483 273.547 596.771C274.938 596.892 276.472 596.342 277.808 595.776C280.319 594.718 282.845 594.345 285.579 594.345C288.491 594.332 291.387 593.402 294.27 594.718C295.023 595.057 296.228 595.275 296.842 594.908C299.387 593.392 302.905 595.093 305.053 592.264C305.498 591.69 306.636 591.428 307.461 591.408C311.822 591.336 315.36 589.367 318.891 587.06C323.908 583.778 327.924 579.43 332.303 575.46C335.197 572.846 337.823 570.022 339.863 566.784C341.909 563.515 344.481 560.652 346.553 557.412C347.681 555.659 348.927 553.963 350.731 552.874C354.55 550.579 356.433 546.945 357.695 542.926C358.577 540.104 359.291 537.234 360.005 534.358C360.368 532.904 360.34 531.46 359.52 530.08C358.374 528.127 359.425 526.603 360.802 525.413C362.814 523.678 364.981 522.19 367.689 521.561C370.567 520.887 373.433 520.081 375.941 518.369C377.974 516.981 379.682 515.203 379.698 512.674C379.706 509.66 380.394 506.808 380.939 503.901C381.209 502.447 381.124 501 380.698 499.532C379.377 494.999 378.197 490.42 376.915 485.871C376.452 484.286 376.74 482.644 377.85 481.76C384.331 476.615 390.545 471.177 396.9 465.896C398.684 464.424 400.917 463.37 403.098 462.53C405.614 461.559 407.817 460.101 410.145 458.817C415.331 455.938 418.623 451.642 420.843 446.25C421.891 443.724 422.482 441.373 421.997 438.561C421.57 435.979 421.945 433.263 421.989 430.585C422.017 428.529 422.446 426.388 422.048 424.397C421.318 420.799 421.732 417.379 422.552 413.886C422.968 412.064 422.339 410.255 420.635 409.268C417.541 407.472 416.449 404.55 415.431 401.369C414.149 397.357 414.693 393.204 413.969 389.155C413.827 388.371 414.179 387.399 414.552 386.628C415.423 384.817 415.423 383.013 413.827 381.81C410.682 379.425 410.266 376.748 411.887 373.26C413.123 370.595 413.884 367.771 416.12 365.571C418.728 363.043 419.301 359.278 421.056 356.212C421.94 354.642 422.855 353.265 424.543 352.345C427.424 350.762 429.845 348.521 431.757 345.848C436.806 338.833 443.018 332.938 449.326 327.096C453.014 323.694 456.406 319.932 461.266 318.059C461.803 317.853 462.271 317.431 462.733 317.074C473.896 308.345 482.688 297.824 488.313 284.687C490.389 279.84 492.34 274.889 495.755 270.666C497.965 267.901 499.083 264.478 500.134 261.024C501.565 256.381 501.087 251.676 501.432 246.998C501.506 245.875 499.098 244.416 498.024 244.835C497.754 244.945 497.428 244.999 497.225 245.164C493.887 247.947 489.711 248.612 485.702 249.286C479.894 250.236 473.984 250.506 468.405 252.688C467.611 252.999 466.634 253.079 465.778 252.991C462.358 252.619 459.382 253.806 456.442 255.302C455.656 255.692 454.828 256.021 453.978 256.273C452.791 256.617 451.606 256.383 450.57 255.756C449.82 255.302 449.144 254.7 448.517 254.073C446.42 251.994 444.367 249.864 442.27 247.759C441.532 247.016 441.712 246.343 442.126 245.485C443.747 242.154 443.747 241.353 441.316 239.369C439.695 238.04 438.171 236.686 437.007 234.964C434.481 231.266 430.896 228.558 427.905 225.281C426.129 223.356 423.721 222.125 421.272 220.948C416.962 218.89 413.408 215.904 412.285 210.805C411.717 208.22 410.787 205.712 409.993 203.163C409.173 200.531 407.542 198.458 405.404 196.767C403.543 195.299 401.685 193.832 399.809 192.388C398.298 191.231 397.483 189.635 397.417 187.808C397.247 182.738 395.687 177.933 394.79 172.988C393.919 168.265 391.1 165.035 387.13 162.65C386.369 162.2 385.393 162.067 384.74 161.517C384.102 160.972 383.609 160.147 383.306 159.35C382.985 158.549 382.769 157.6 382.851 156.752C383.159 153.643 382.245 151.004 380.273 148.596C379.348 147.463 378.757 146.065 377.95 144.826C374.443 139.334 370.763 133.981 369.226 127.49C368.969 126.367 368.18 125.388 367.666 124.322C367.25 123.432 367.807 122.541 368.871 122.556C370.046 122.566 371.261 122.9 372.233 121.98C373.083 121.138 373.957 120.331 375.242 120.374C376.868 120.431 377.938 121.484 378.883 122.636C379.634 123.553 380.222 124.584 380.97 125.493C384.367 129.615 386.6 134.516 389.869 138.71C391.748 141.089 393.122 143.608 393.737 146.584C394.112 148.411 395.286 149.763 397.144 150.346C400.804 151.505 403.104 154.023 404.448 157.546C404.866 158.646 405.409 159.718 405.992 160.748C407.033 162.606 407.513 164.57 407.385 166.71C407.333 167.589 407.436 168.484 407.48 169.378C407.727 174.173 410.178 177.74 413.876 180.544C415.284 181.613 416.947 182.368 418.345 183.432C420.717 185.275 422.685 187.446 423.51 190.468C424.489 193.976 426.504 196.841 428.963 199.496C430.968 201.639 432.959 203.864 434.604 206.295C436.614 209.253 438.058 212.522 437.2 216.287C436.935 217.469 436.783 218.625 437.351 219.741C439.363 223.744 439.841 228.216 441.265 232.397C441.846 234.093 442.452 235.72 443.326 237.274C444.151 238.713 445.449 239.323 446.988 239.346C448.45 239.369 449.93 239.145 451.393 239.017C453.536 238.852 455.538 238.243 456.889 236.501C458.742 234.103 461.135 233.543 463.974 233.885C467.325 234.27 470.522 233.597 473.282 231.657C475.058 230.387 476.978 229.945 479.036 229.586C480.801 229.287 482.508 228.645 483.703 227.219C485.111 225.546 486.992 224.752 488.973 224.107C492.062 223.107 495.221 222.251 498.255 221.098C500.728 220.154 503.079 218.898 505.489 217.764C506.633 217.251 507.471 216.372 507.687 215.161C508.255 212.144 510.236 210.579 512.978 209.811C516.676 208.77 520.353 207.606 524.11 206.928C526.749 206.455 528.553 205.473 529.173 202.808C529.548 201.223 530.432 200.113 532.064 199.866C535.286 199.385 537.455 197.831 538.583 194.652C539.074 193.264 540.444 192.375 541.898 191.889C543.021 191.511 544.265 191.393 545.272 190.815C545.91 190.463 546.524 189.525 546.606 188.798C546.822 187.043 546.583 185.241 546.771 183.476C546.915 181.99 547.578 180.582 548.893 179.739C553.313 176.943 555.891 172.659 558.206 168.221C559.725 165.315 559.373 163.788 556.767 161.232C555.061 159.569 553.568 157.755 552.337 155.724C551.36 154.129 549.975 153.18 548.035 152.972C545.684 152.72 543.296 152.517 541.017 151.931C539.655 151.572 538.277 150.744 537.239 149.763C535.076 147.686 533.521 145.17 533.143 142.074C532.822 139.447 532.452 136.811 532.066 134.184C532.033 133.933 531.75 133.534 531.604 133.542C531.049 133.57 530.278 133.552 529.977 133.897C526.616 137.592 522.846 140.992 520.155 145.211C518.004 148.58 515.214 150.176 511.361 149.899C508.362 149.696 505.492 149.778 502.673 151.017C501.514 151.515 500.358 150.796 499.504 149.909C498.474 148.837 497.61 147.65 497.464 146.083C497.207 143.143 496.965 140.19 496.644 137.255C496.588 136.698 496.282 136.112 495.937 135.683C495.583 135.243 495.048 134.757 494.545 134.706C494.072 134.642 493.332 134.979 493.067 135.385C492.419 136.356 491.993 137.463 491.461 138.517C490.795 139.81 489.791 139.792 488.773 138.491C487.673 137.078 486.771 135.567 486.527 133.727C486.123 130.664 484.492 128.205 482.451 125.994C481.056 124.478 479.55 123.052 478.062 121.616C477.435 121.007 476.494 120.613 476.086 119.901C474.295 116.836 472.588 113.726 470.987 110.558C470.62 109.843 470.666 108.833 470.751 107.988C470.874 106.819 471.126 105.652 471.512 104.547C471.671 104.069 472.244 103.486 472.707 103.406C474.413 103.123 476.168 102.861 477.892 102.923C479.604 102.969 481.5 103.051 482.952 103.812C484.114 104.431 484.774 106.05 485.566 107.292C487.786 110.792 489.991 114.284 492.126 117.846C493.103 119.477 494.442 120.485 496.248 120.94C497.107 121.143 497.965 121.395 498.831 121.59C500.887 122.068 502.691 122.828 504.076 124.635C504.934 125.735 506.381 126.421 507.579 127.246C510.84 129.515 514.687 130.044 518.41 130.964C519.937 131.332 521.281 131.144 522.661 130.407C524.745 129.302 526.832 128.181 529.006 127.279C531.537 126.239 533.86 127.161 534.98 129.515C535.877 131.37 536.689 133.285 537.473 135.21C538.236 137.078 539.683 137.862 541.6 137.99C549.88 138.553 557.949 140.447 566.106 141.722L562.498 136.168C562.498 136.168 556.258 133.768 562.498 129.929C568.737 126.09 570.176 125.892 573.057 122.87C575.938 119.85 572.577 124.807 570.657 118.488C568.737 112.169 569.963 109.769 566.951 109.291C563.939 108.813 561.753 109.771 559.725 103.532C557.697 97.2924 557.911 98.2535 559.725 94.8922C561.539 91.5335 567.298 89.1333 561.539 88.1722C555.78 87.2111 552.422 92.0115 554.819 81.4522C557.217 70.8929 555.652 73.3933 554.035 68.3051C552.419 63.2169 547.973 63.9622 554.035 60.2308C560.098 56.4969 562.017 50.5375 560.098 47.9986C558.178 45.4596 558.178 49.7974 552.9 45.2283C547.621 40.6592 547.141 41.993 544.26 39.6467C541.379 37.3005 539.46 40.0425 534.662 36.5116C529.861 32.9807 531.303 29.6014 526.503 32.0093C521.702 34.4172 520.335 35.2421 517.421 36.5116C514.507 37.7811 513.065 36.7146 511.146 39.6467C509.226 42.5789 517.334 43.2984 507.962 44.7581C506.728 44.9508 507.517 45.1101 505.628 44.8275L504.21 45.5059C500.208 49.2886 493.984 46.6726 487.819 46.7342C481.655 46.7959 479.763 41.4867 473.837 38.1254C467.911 34.7641 470.35 31.3874 470.35 31.3874C467.932 26.7438 469.872 30.0588 469.15 23.3594C468.428 16.6599 466.511 11.1014 463.149 17.0017C459.788 22.9019 462.669 25.351 456.91 26.0448C451.151 26.7387 452.11 31.3103 448.27 24.9449C444.431 18.5796 444.431 20.2217 442.031 17.0017C439.631 13.7817 435.791 17.9859 435.311 11.325C434.83 4.6641 436.272 1.55979 430.991 2.87295C425.713 4.18612 422.351 -0.837834 418.993 2.87295C415.634 6.58374 421.336 8.1693 410.834 9.13555C400.331 10.1018 399.801 12.3195 393.557 11.325C387.312 10.3305 389.974 11.2171 383.591 9.13555C377.208 7.05401 373.399 4.91851 370.521 2.87295C367.64 0.824825 365.14 0.213213 360.152 1.47755C355.164 2.74446 354.203 4.18355 349.883 7.06429C345.563 9.94503 342.174 10.7879 337.63 11.325C333.087 11.8621 329.569 11.4227 326.58 5.92073C323.527 0.298016 323.782 5.7614 318.023 3.36121C312.264 0.961024 293.756 12.89 293.756 12.89L289.837 16.3567ZM121.384 269.199L121.616 268.973C121.803 269.327 122.032 269.638 122.289 269.895C121.993 269.654 121.683 269.425 121.384 269.199ZM123.417 270.749C123.127 270.535 122.844 270.322 122.564 270.098C122.852 270.312 123.17 270.492 123.605 270.528L123.62 271.065L123.417 270.749ZM128.053 277.109C127.886 276.991 127.873 276.646 127.796 276.407C128.004 275.757 128.428 275.541 128.986 275.875C129.145 275.986 129.274 276.358 129.222 276.569C129.076 277.271 128.621 277.471 128.053 277.109ZM306.597 565.401L306.685 565.026L307.222 565.299L306.597 565.401ZM331.07 457.064C330.61 456.681 330.8 456.445 331.537 456.45C331.607 456.612 331.668 456.758 331.725 456.928C331.504 456.974 331.17 457.149 331.07 457.064ZM339.66 347.547L339.427 348.148L339.193 347.529L339.66 347.547ZM335.783 400.377C335.366 400.68 334.881 400.893 334.397 401.091C334.379 401.096 334.027 400.634 334.069 400.459C334.328 399.449 335.06 398.822 335.739 399.01C335.916 399.056 335.993 399.411 336.114 399.642C336.011 399.896 335.978 400.235 335.783 400.377ZM341.958 414.96C341.886 415.102 341.811 415.241 341.734 415.374C341.719 415.672 341.701 415.965 341.683 416.258C341.552 416.245 341.421 416.217 341.282 416.186C341.436 415.916 341.585 415.644 341.734 415.374C341.747 415.192 341.757 415.017 341.763 414.847L342.287 414.727L341.958 414.96ZM350.829 395.905C350.595 395.957 350.233 395.867 350.055 395.697C348.899 394.6 348.986 393.279 349.372 391.932C349.31 391.899 349.282 391.85 349.217 391.827C349.199 391.691 349.182 391.568 349.166 391.434C347.704 390.491 347.781 388.52 346.581 387.394C345.309 386.189 343.934 385.056 342.839 383.699C341.937 382.589 340.899 381.232 340.758 379.903C340.226 374.681 338.455 369.609 338.797 364.292C338.82 363.929 339.491 363.297 339.789 363.338C340.29 363.395 341.071 363.824 341.164 364.227C341.958 367.643 342.631 371.076 343.338 374.512C342.364 378.025 343.356 380.738 346.409 382.856C347.881 383.884 348.467 385.657 348.683 387.464C348.845 388.792 349.004 390.105 349.169 391.434C349.274 391.498 349.323 391.591 349.438 391.658C349.41 391.742 349.397 391.835 349.374 391.932C350.793 392.606 351.104 393.973 351.356 395.358C351.389 395.512 351.05 395.849 350.829 395.905ZM352.664 320.459L352.522 320.844L352.54 320.238L353.108 320.202L352.664 320.459ZM398.833 243.002C399.275 243.077 399.701 243.29 400.141 243.437C400.2 244.074 399.907 244.542 399.357 244.413C398.971 244.316 398.684 243.799 398.352 243.46C398.511 243.301 398.709 242.974 398.833 243.002ZM363.544 117.01C363.781 117.136 364.107 117.216 364.238 117.427C364.32 117.563 364.107 117.874 364.032 118.1C363.809 117.93 363.518 117.812 363.367 117.596C363.295 117.488 363.477 117.216 363.544 117.01ZM359.898 112.526C359.972 112.716 360.008 112.739 360.077 112.855C360.265 112.891 360.422 112.927 360.427 112.978C360.453 113.387 360.286 113.264 360.077 112.855C359.939 112.832 359.779 112.804 359.664 112.768L359.898 112.526ZM377.264 411.638C377.652 413.334 377.796 415.122 378.498 416.685C379.521 418.99 379.526 421.205 378.724 423.528C377.683 425.718 377.719 427.984 378.356 430.336C378.814 432.032 379.163 433.751 379.449 435.488C379.536 436.002 379.456 436.85 379.14 437.043C378.583 437.382 378.2 436.835 377.835 436.249C375.956 433.209 375.077 429.811 374.394 426.386C374.175 425.281 374.139 423.965 374.533 422.947C375.733 419.802 375.712 416.7 375.059 413.473C374.72 411.776 374.79 409.996 374.72 408.251C374.71 407.981 374.936 407.714 375.054 407.457C375.532 407.726 376.283 407.883 376.434 408.279C376.848 409.351 376.994 410.51 377.264 411.638ZM368.709 322.975L369.311 323.283L368.655 323.483L368.709 322.975ZM370.809 332.241C373.081 331.971 374.674 333.339 375.889 335.107C376.17 335.52 376.342 336.253 376.17 336.692C374.964 340.043 373.075 342.983 370.693 345.614C369.899 346.504 369.352 347.501 369.447 348.791C369.485 349.31 369.439 350.076 369.108 350.358C368.47 350.89 367.633 351.253 366.826 351.51C366.302 351.674 365.672 351.556 365.107 351.51C364.523 351.458 363.945 351.345 363.41 351.247C362.221 351.322 361.059 351.494 359.923 351.386C359.551 351.345 359.106 350.633 358.947 350.135C358.767 349.616 358.744 348.947 358.883 348.41C359.725 344.962 360.065 341.505 359.908 337.962C359.869 337.108 360.052 336.155 360.442 335.415C360.805 334.695 361.493 333.819 362.18 333.673C365.027 333.04 367.913 332.555 370.809 332.241ZM324.062 16.3644C323.571 16.9914 322.746 17.4257 321.98 17.7289C321.489 17.9294 320.837 17.7675 320.256 17.7264C319.67 17.6801 319.097 17.585 318.735 17.5336C317.637 17.5336 316.764 17.5516 315.89 17.5285C314.795 17.5002 313.942 16.8475 314.222 16.1537C314.53 15.3956 314.942 14.4807 315.589 14.0901C317.982 12.6536 320.647 13.0057 323.273 13.2395C324.969 13.3886 325.347 14.6658 324.062 16.3644ZM591.894 4.86455L591.691 4.20668L592.238 4.2555L591.894 4.86455Z" fill="url(#paint0_linear_485_17)"/>
<path fill-rule="evenodd" clip-rule="evenodd" d="M485.9 423.944C485.46 423.41 484.898 423.559 484.35 424.055C482.983 425.301 482.21 426.769 482.053 428.67C481.899 430.454 481.043 431.908 479.357 432.723C479.118 433.247 479.003 433.943 478.599 434.231C477.006 435.347 475.135 435.85 474.827 438.482C474.511 441.129 472.681 443.071 470.096 444.451C467.78 445.687 466.056 448 463.746 449.211C461.441 450.411 458.742 450.824 456.216 451.585C455.939 451.68 455.63 451.703 455.36 451.819C452.929 452.824 450.501 453.854 448.07 454.864C447.163 456.72 446.392 458.642 445.328 460.397C443.141 463.982 443.169 467.669 444.459 471.47C444.835 472.611 445.243 473.711 445.724 474.785C447.16 478.1 446.728 481.261 444.647 484.034C442.509 486.879 441.103 490.132 438.919 492.969C436.336 496.336 435.236 500.409 437.02 504.675C437.842 506.64 438.017 508.663 437.989 510.755C437.96 512.528 437.909 514.322 438.125 516.069C438.264 517.202 438.726 518.374 439.327 519.356C441.46 522.786 444.904 524.629 448.461 526.055C450.524 526.878 452.349 525.161 454.255 524.395C455.587 523.858 457.118 523.712 458.583 523.601C461.888 523.354 464.077 521.589 465.447 518.718C466.465 516.591 467.459 514.45 468.294 512.243C470.27 506.99 471.838 501.56 474.138 496.467C477.553 488.911 479.673 480.865 483.065 473.295C484.024 471.159 484.51 468.774 484.947 466.459C485.517 463.566 486.211 460.759 487.318 457.986C488.28 455.62 487.876 452.544 491.083 451.511C491.962 450.259 492.391 448.833 492.288 447.345C492.088 444.703 491.469 442.054 491.492 439.422C491.543 433.517 489.562 428.442 485.9 423.944Z" fill="url(#paint1_linear_485_17)"/>
<path fill-rule="evenodd" clip-rule="evenodd" d="M521.124 238.78C519.914 238.78 519.564 238.682 519.359 238.798C518.706 239.237 517.932 239.633 517.511 240.26C517.038 240.975 518.323 242.447 519.436 242.547C521.191 242.678 522.805 242.406 523.797 240.72C524.167 240.101 524.048 239.518 523.447 239.335C522.391 239.022 521.306 238.837 521.124 238.78Z" fill="url(#paint2_linear_485_17)"/>
<path fill-rule="evenodd" clip-rule="evenodd" d="M442.902 420.437C443.393 419.494 443.105 418.386 442.355 418.098C441.571 417.798 440.536 418.594 440.477 419.54C440.775 420.021 440.967 420.637 441.389 420.943C441.954 421.339 442.576 421.067 442.902 420.437Z" fill="url(#paint3_linear_485_17)"/>
<path fill-rule="evenodd" clip-rule="evenodd" d="M455.269 428.547C455.104 428.599 454.813 428.653 454.803 428.717C454.777 428.921 454.883 429.132 454.937 429.344C455.091 429.287 455.249 429.215 455.406 429.168C455.354 428.957 455.305 428.753 455.269 428.547Z" fill="url(#paint4_linear_485_17)"/>
<path fill-rule="evenodd" clip-rule="evenodd" d="M302.984 18.2815L302.755 18.516C302.992 18.5753 303.224 18.6269 303.459 18.6784C303.299 18.5495 303.147 18.4129 302.984 18.2815Z" fill="url(#paint5_linear_485_17)"/>
<path fill-rule="evenodd" clip-rule="evenodd" d="M478.899 432.522L479.178 432.821C479.242 432.803 479.289 432.754 479.356 432.724C479.361 432.705 479.371 432.687 479.374 432.672L478.899 432.522Z" fill="url(#paint6_linear_485_17)"/>
<defs>
<linearGradient id="paint0_linear_485_17" x1="285.166" y1="720.404" x2="304.66" y2="-135.612" gradientUnits="userSpaceOnUse">
<stop stop-color="#8DFF33"/>
<stop offset="0.505208" stop-color="#23D1AE"/>
<stop offset="1" stop-color="#00A88E"/>
</linearGradient>
<linearGradient id="paint1_linear_485_17" x1="463.138" y1="546.994" x2="469.166" y2="400.385" gradientUnits="userSpaceOnUse">
<stop stop-color="#8DFF33"/>
<stop offset="0.505208" stop-color="#23D1AE"/>
<stop offset="1" stop-color="#00A88E"/>
</linearGradient>
<linearGradient id="paint2_linear_485_17" x1="520.581" y1="243.35" x2="520.653" y2="237.866" gradientUnits="userSpaceOnUse">
<stop stop-color="#8DFF33"/>
<stop offset="0.505208" stop-color="#23D1AE"/>
<stop offset="1" stop-color="#00A88E"/>
</linearGradient>
<linearGradient id="paint3_linear_485_17" x1="441.759" y1="421.753" x2="441.875" y2="417.33" gradientUnits="userSpaceOnUse">
<stop stop-color="#8DFF33"/>
<stop offset="0.505208" stop-color="#23D1AE"/>
<stop offset="1" stop-color="#00A88E"/>
</linearGradient>
<linearGradient id="paint4_linear_485_17" x1="455.091" y1="429.504" x2="455.124" y2="428.366" gradientUnits="userSpaceOnUse">
<stop stop-color="#8DFF33"/>
<stop offset="0.505208" stop-color="#23D1AE"/>
<stop offset="1" stop-color="#00A88E"/>
</linearGradient>
<linearGradient id="paint5_linear_485_17" x1="303.093" y1="18.7585" x2="303.1" y2="18.1908" gradientUnits="userSpaceOnUse">
<stop stop-color="#8DFF33"/>
<stop offset="0.505208" stop-color="#23D1AE"/>
<stop offset="1" stop-color="#00A88E"/>
</linearGradient>
<linearGradient id="paint6_linear_485_17" x1="479.127" y1="432.882" x2="479.133" y2="432.454" gradientUnits="userSpaceOnUse">
<stop stop-color="#8DFF33"/>
<stop offset="0.505208" stop-color="#23D1AE"/>
<stop offset="1" stop-color="#00A88E"/>
</linearGradient>
</defs>
</svg>
