<svg width="129" height="107" viewBox="0 0 129 107" fill="none" xmlns="http://www.w3.org/2000/svg">
<g filter="url(#filter0_d_5011_1224)">
<g filter="url(#filter1_d_5011_1224)">
<mask id="mask0_5011_1224" style="mask-type:alpha" maskUnits="userSpaceOnUse" x="15" y="8" width="84" height="85">
<circle cx="56.7424" cy="50.3358" r="41.6683" fill="#C4C4C4"/>
</mask>
<g mask="url(#mask0_5011_1224)">
<circle cx="56.7424" cy="50.3358" r="41.6683" fill="white"/>
<path d="M35.2286 76.1271C44.4976 84.8567 65.688 88.2185 77.6194 80.1578C73.9119 76.9454 70.5161 74.1575 68.0367 70.7082C66.0892 68.0161 64.6984 64.9162 64.1874 60.9142C64.1375 60.5526 64.0898 60.2112 64.0544 59.8888C63.4483 54.9285 63.4565 52.868 63.4457 48.036C63.4371 47.7719 63.4184 47.5088 63.3918 47.267C62.6964 42.1432 54.9971 41.1129 50.7167 43.1737C49.9215 43.5466 49.2606 44.027 48.7629 44.6017C48.1475 45.3117 47.8151 46.1843 47.8754 47.1973C48.1758 52.2524 48.3602 56.066 48.1617 59.0855C47.5329 68.7698 45.075 74.1482 35.2286 76.1271Z" fill="#DBE5E5"/>
<path d="M48.8031 44.5972C50.7278 60.923 61.5226 67.0086 68.0478 70.717C66.1003 68.025 64.7095 64.9251 64.1985 60.923C64.1486 60.5615 64.1009 60.22 64.0655 59.8976C63.4896 54.934 63.6713 52.8748 63.4568 48.0449C63.4482 47.7807 63.4295 47.5177 63.4029 47.2759C62.7075 42.1521 55.0082 41.1217 50.7278 43.1826C49.9628 43.5521 49.2918 44.0337 48.8031 44.5972Z" fill="url(#paint0_linear_5011_1224)"/>
<path d="M38.5557 33.0954C38.7584 36.2834 40.3753 38.2664 42.8372 40.8709C45.2814 43.4538 47.6698 46.3998 52.091 45.5122C56.5123 44.6247 54.9225 34.7146 60.7085 34.231C66.4944 33.7474 66.4965 34.2296 68.1601 30.9025C69.3947 28.4333 70.0119 20.3524 64.4564 17.322C58.9008 14.2917 49.0241 17.3221 44.7031 27.1987C40.382 27.816 38.3531 29.9075 38.5557 33.0954Z" fill="#1D1D1B"/>
<path d="M50.878 30.9343C52.1953 29.4603 55.0671 27.9421 56.9535 27.8655C61.2024 27.6813 66.3704 27.6386 67.8732 36.6623C69.3761 45.6859 67.5002 51.6334 65.8869 53.8774C64.0442 56.4614 60.7985 56.9893 58.2724 56.1948C54.2619 54.9296 51.3997 51.8393 47.5061 46.291C44.8368 46.291 41.0429 44.8115 40.673 41.8524C40.3031 38.8933 42.5732 35.8437 46.0232 39.6418C47.4848 41.2473 48.6717 44.6077 48.6717 44.6077C50.4113 43.8351 50.547 41.3302 49.9959 39.3107C49.4449 37.2913 49.3338 35.5841 49.3338 34.3448C49.3338 33.1056 50.1032 31.7994 50.878 30.9343Z" fill="#DBE5E5"/>
<path d="M23.0566 112.307V119.725V145.564H84.8776C86.0888 145.564 87.0982 144.555 87.0982 143.344V141.628C86.1898 138.247 87.0982 136.48 87.0982 134.462C89.7224 145.564 108.647 149.854 120.507 134.462C119.548 131.181 103.348 110.238 103.348 110.238C96.283 103.425 96.9895 95.7036 93.1036 86.7206C89.2177 77.6872 83.0609 73.0443 75.8442 73.0443C75.8442 73.0443 70.2915 74.4763 61.37 73.7508C54.6549 73.2048 46.0311 70.951 36.4302 68.6537C28.9612 66.4837 19.7763 67.8968 12.2064 73.7508C6.10003 78.4442 -2.93341 90.8588 -2.93341 124.52C2.97113 124.116 11.1466 125.63 23.0062 125.529C23.208 118.767 23.0566 117.656 23.0566 112.307Z" fill="white"/>
<path d="M56.4316 116.705L58.9008 79.668H63.8391L68.1602 116.705L63.2218 124.73L56.4316 116.705Z" fill="#23D1AE"/>
<path d="M58.9008 79.6684L57.049 72.8782L65.0737 73.4955L63.8391 79.6684C63.8391 79.6684 63.2219 80.2857 61.37 80.2857C59.5181 80.2857 58.9008 79.6684 58.9008 79.6684Z" fill="#23D1AE"/>
<path d="M56.4316 82.1373L60.1353 70.4087C54.7032 69.4211 48.6126 65.6762 45.9377 64.2358L37.2956 69.7915C37.2956 69.7915 45.3204 78.4335 56.4316 82.1373Z" fill="white"/>
<path d="M76.1849 75.3474C73.2219 78.8043 68.7774 81.5203 65.6909 82.7549L61.9872 70.4091C65.0736 70.4091 68.7774 67.9399 68.7774 67.9399C70.835 69.7918 75.1972 73.8659 76.1849 75.3474Z" fill="white"/>
<path d="M65.691 82.7549C68.7775 81.5203 73.222 78.8042 76.185 75.3474" stroke="#EBF5F5" stroke-width="0.631259" stroke-linecap="round"/>
<path d="M56.4316 82.1376C45.3204 78.4338 37.2956 69.7917 37.2956 69.7917" stroke="#EBF5F5" stroke-width="0.631259" stroke-linecap="round"/>
<path d="M67.063 167.517C67.063 167.517 76.6516 95.5016 71.3022 72.3376C76.0965 72.8928 80.3861 71.7321 85.8364 75.1133C97.8979 82.5823 107.436 116.041 122.778 132.09C124.09 145.009 109.455 146.826 104.812 146.321C91.64 148.289 87.7037 138.145 87.7037 138.145L86.8458 160.653C84.272 164.943 71.1508 167.012 67.063 167.517Z" fill="#23D1AE"/>
<path d="M71.3022 125.731C71.3022 125.731 72.5638 79.6047 67.6182 67.7957C74.0778 69.461 77.5095 72.1862 77.5095 72.1862C77.5095 72.1862 78.5188 91.0101 71.3022 125.731Z" fill="#23D1AE"/>
<path d="M77.459 72.1357C77.459 72.1357 78.4683 90.9596 71.2516 125.68" stroke="#00A88E" stroke-width="0.631259" stroke-miterlimit="10" stroke-linecap="round"/>
<path d="M41.8301 68.9061C41.8301 68.9061 47.7851 86.0141 52.5289 125.731C53.8915 137.035 54.2447 152.175 54.4971 167.517C36.8339 167.517 21.795 163.732 13.2662 157.575C13.67 146.977 20.6848 109.43 13.3167 70.2687C24.1669 65.8781 31.3331 67.3921 41.8301 68.9061Z" fill="#23D1AE"/>
<path d="M45.2618 63.6577C47.3309 72.3379 51.4691 97.6719 52.4784 125.681C47.8355 115.234 35.219 88.8403 32.1406 67.2913C36.6825 65.0708 42.0319 63.6577 45.2618 63.6577Z" fill="#23D1AE"/>
<path d="M52.5289 125.731C47.8355 115.284 35.219 88.84 32.1406 67.291" stroke="#00A88E" stroke-width="0.631259" stroke-miterlimit="10" stroke-linecap="round"/>
<path d="M13.3167 70.2683C4.93929 73.3972 -15.2976 89.6473 -17.7705 109.48C-19.89 126.488 -15.0453 138.196 -4.95206 144.454C-3.08482 139.508 12.4587 134.915 19.6754 130.474C17.5558 127.295 19.1203 115.991 19.7763 107.765C29.4154 97.4696 21.3408 69.4609 13.3167 70.2683Z" fill="#23D1AE"/>
</g>
</g>
</g>
<g filter="url(#filter2_d_5011_1224)">
<g filter="url(#filter3_d_5011_1224)">
<mask id="mask1_5011_1224" style="mask-type:alpha" maskUnits="userSpaceOnUse" x="76" y="28" width="44" height="44">
<circle cx="98.4107" cy="50.0155" r="21.5306" fill="#C4C4C4"/>
</mask>
<g mask="url(#mask1_5011_1224)">
<circle cx="98.4107" cy="50.0155" r="21.5306" fill="white"/>
<path d="M90.7419 48.2329C92.2746 49.1526 95.6466 51.9115 95.6466 54.0573C96.2597 50.0722 102.391 47.0068 105.15 44.5544C107.908 42.1021 108.215 40.2628 107.602 38.117C106.989 35.9712 105.15 34.745 103.617 34.745C102.084 34.745 101.471 34.745 100.245 33.8254C99.0186 32.9057 98.099 32.5992 95.6466 32.9057C93.1943 33.2123 89.8223 34.1319 87.6765 39.0366C85.5306 43.9413 89.2092 47.3133 90.7419 48.2329Z" fill="#1D1D1B"/>
<path d="M101.922 55.0723C102.207 59.5673 104.837 61.9272 107.925 64.9613C101.693 68.5011 92.7742 66.2536 88.4864 61.7024C93.4603 61.0844 94.8896 58.4997 95.5756 53.8362C95.8043 52.3753 95.8043 50.4649 95.8615 47.9927C95.9186 44.8462 102.379 44.8462 102.093 48.7793C101.864 51.2515 101.75 52.2067 101.922 55.0723Z" fill="#9EA3A3"/>
<path d="M102.036 48.7232C101.864 51.2516 101.75 52.2068 101.922 55.0724C102.036 57.0951 102.608 58.6684 103.522 60.0169C100.892 57.9941 98.5485 54.2295 97.3479 45.9138C99.2345 45.1833 102.207 46.0262 102.036 48.7232Z" fill="url(#paint1_linear_5011_1224)"/>
<path d="M96.3198 48.3479C97.4502 49.9163 99.7562 51.9622 101.804 52.4909C103.078 52.8195 104.272 52.6387 105.15 51.2984C105.86 50.1471 106.069 47.0067 105.763 42.7151C105.456 38.4235 101.268 38.1452 99.3252 39.0366C97.4382 39.9422 96.8728 43.0216 96.5137 44.3939C94.5927 43.1437 93.3708 43.9889 93.2693 45.2974C93.1264 46.5372 94.4236 47.9165 96.3198 48.3479Z" fill="#9DA6A6"/>
<circle cx="95.6467" cy="48.2327" r="0.613089" fill="white"/>
<path d="M99.6317 42.4085C97.4859 43.2668 98.4055 44.8608 96.8728 45.4739C95.0335 41.1823 90.1288 43.9412 90.4354 41.4889C90.7419 39.0365 93.8074 36.2776 98.7121 35.358C103.617 34.4383 103.31 37.1972 103.004 39.0365C102.697 40.8758 101.778 41.5502 99.6317 42.4085Z" fill="#1D1D1B"/>
<path d="M96.2597 35.9713C97.7924 34.1321 99.6317 35.0517 101.164 35.9713C99.3251 35.6648 97.7924 36.5844 97.4859 38.1171C97.1793 39.6499 96.2597 40.5695 93.8073 40.5695C91.9681 40.5695 91.0484 41.7957 90.4354 43.9415C89.8223 42.1022 90.1288 39.9564 92.5812 39.3433C95.0335 38.7302 94.727 37.8106 96.2597 35.9713Z" fill="#7D9696"/>
<path d="M81.5456 62.0275C84.3045 61.721 86.1437 62.0275 88.2896 61.1079C90.1288 69.3846 96.8728 79.8071 101.164 87.7773C104.536 80.4202 107.295 62.0275 108.521 62.6406C109.748 63.2537 110.361 63.2537 113.12 63.5603C115.879 63.8668 116.798 67.5453 117.718 71.2239C118.637 74.9024 112.507 86.2446 101.164 90.2296C86.7568 87.7773 77.867 75.5155 76.6409 69.3846C76.9474 64.4799 79.7176 62.2307 81.5456 62.0275Z" fill="#FF3BEB"/>
<path d="M93.1942 62.3342C98.0989 64.7866 103.617 63.5604 104.843 62.6408C105.456 66.9324 105.149 83.7923 100.858 88.084C96.2597 80.4203 92.5811 69.0782 93.1942 62.3342Z" fill="white"/>
<path d="M101.164 87.7774C101.164 87.7774 103.923 67.5454 103.923 59.8818C107.131 60.7089 108.873 62.6037 108.873 62.6037C108.873 62.6037 107.602 75.8221 101.164 87.7774Z" fill="#73F2C4"/>
<path d="M108.848 62.5784C108.848 62.5784 107.908 74.2891 101.164 87.7771" stroke="#00A88E" stroke-width="0.631259" stroke-miterlimit="10" stroke-linecap="round"/>
<path d="M93.1942 59.2688C94.2217 63.5793 97.7924 74.9026 100.858 88.084C97.1793 83.7923 90.1288 70.9175 87.3699 61.1081C89.6254 60.0054 91.5903 59.2688 93.1942 59.2688Z" fill="#73F2C4"/>
<path d="M100.858 87.7773C96.5663 82.2595 90.1289 71.5304 87.6765 61.1079" stroke="#00A88E" stroke-width="0.631259" stroke-miterlimit="10" stroke-linecap="round"/>
<path d="M99.4477 60.5235C99.8545 60.5235 100.184 60.1937 100.184 59.7868C100.184 59.3799 99.8545 59.05 99.4477 59.05C99.0408 59.05 98.7109 59.3799 98.7109 59.7868C98.7109 60.1937 99.0408 60.5235 99.4477 60.5235Z" fill="white"/>
<path d="M100.518 60.1209C100.866 60.1209 101.147 59.8394 101.147 59.4922C101.147 59.145 100.866 58.8635 100.518 58.8635C100.171 58.8635 99.8898 59.145 99.8898 59.4922C99.8898 59.8394 100.171 60.1209 100.518 60.1209Z" fill="white"/>
<path d="M98.2788 60.3074C98.626 60.3074 98.9075 60.0259 98.9075 59.6787C98.9075 59.3315 98.626 59.05 98.2788 59.05C97.9316 59.05 97.6501 59.3315 97.6501 59.6787C97.6501 60.0259 97.9316 60.3074 98.2788 60.3074Z" fill="white"/>
<path d="M101.52 59.6786C101.84 59.6786 102.1 59.4192 102.1 59.0991C102.1 58.779 101.84 58.5195 101.52 58.5195C101.2 58.5195 100.941 58.779 100.941 59.0991C100.941 59.4192 101.2 59.6786 101.52 59.6786Z" fill="white"/>
<path d="M97.2572 60.0226C97.5772 60.0226 97.8367 59.7632 97.8367 59.4431C97.8367 59.123 97.5772 58.8635 97.2572 58.8635C96.9371 58.8635 96.6776 59.123 96.6776 59.4431C96.6776 59.7632 96.9371 60.0226 97.2572 60.0226Z" fill="white"/>
<path d="M102.424 59.05C102.744 59.05 103.004 58.7905 103.004 58.4704C103.004 58.1503 102.744 57.8909 102.424 57.8909C102.104 57.8909 101.844 58.1503 101.844 58.4704C101.844 58.7905 102.104 59.05 102.424 59.05Z" fill="white"/>
<path d="M96.2749 59.6298C96.595 59.6298 96.8545 59.3703 96.8545 59.0503C96.8545 58.7302 96.595 58.4707 96.2749 58.4707C95.9548 58.4707 95.6954 58.7302 95.6954 59.0503C95.6954 59.3703 95.9548 59.6298 96.2749 59.6298Z" fill="white"/>
<path d="M95.3319 59.0993C95.652 59.0993 95.9114 58.8398 95.9114 58.5197C95.9114 58.1997 95.652 57.9402 95.3319 57.9402C95.0118 57.9402 94.7523 58.1997 94.7523 58.5197C94.7523 58.8398 95.0118 59.0993 95.3319 59.0993Z" fill="white"/>
<path d="M94.6246 58.451C94.9067 58.451 95.1354 58.2223 95.1354 57.9402C95.1354 57.6581 94.9067 57.4294 94.6246 57.4294C94.3425 57.4294 94.1138 57.6581 94.1138 57.9402C94.1138 58.2223 94.3425 58.451 94.6246 58.451Z" fill="white"/>
</g>
</g>
</g>
<defs>
<filter id="filter0_d_5011_1224" x="0.555205" y="0.461116" width="106.062" height="106.062" filterUnits="userSpaceOnUse" color-interpolation-filters="sRGB">
<feFlood flood-opacity="0" result="BackgroundImageFix"/>
<feColorMatrix in="SourceAlpha" type="matrix" values="0 0 0 0 0 0 0 0 0 0 0 0 0 0 0 0 0 0 127 0" result="hardAlpha"/>
<feOffset dx="-3.15629" dy="3.15629"/>
<feGaussianBlur stdDeviation="5.68133"/>
<feColorMatrix type="matrix" values="0 0 0 0 0.137255 0 0 0 0 0.819608 0 0 0 0 0.682353 0 0 0 0.3 0"/>
<feBlend mode="normal" in2="BackgroundImageFix" result="effect1_dropShadow_5011_1224"/>
<feBlend mode="normal" in="SourceGraphic" in2="effect1_dropShadow_5011_1224" result="shape"/>
</filter>
<filter id="filter1_d_5011_1224" x="13.1804" y="8.66748" width="85.2303" height="83.3367" filterUnits="userSpaceOnUse" color-interpolation-filters="sRGB">
<feFlood flood-opacity="0" result="BackgroundImageFix"/>
<feColorMatrix in="SourceAlpha" type="matrix" values="0 0 0 0 0 0 0 0 0 0 0 0 0 0 0 0 0 0 127 0" result="hardAlpha"/>
<feOffset dx="-1.89378"/>
<feColorMatrix type="matrix" values="0 0 0 0 0.760784 0 0 0 0 0.839216 0 0 0 0 0.839216 0 0 0 1 0"/>
<feBlend mode="normal" in2="BackgroundImageFix" result="effect1_dropShadow_5011_1224"/>
<feBlend mode="normal" in="SourceGraphic" in2="effect1_dropShadow_5011_1224" result="shape"/>
</filter>
<filter id="filter2_d_5011_1224" x="62.3611" y="20.2785" width="65.7866" height="65.7866" filterUnits="userSpaceOnUse" color-interpolation-filters="sRGB">
<feFlood flood-opacity="0" result="BackgroundImageFix"/>
<feColorMatrix in="SourceAlpha" type="matrix" values="0 0 0 0 0 0 0 0 0 0 0 0 0 0 0 0 0 0 127 0" result="hardAlpha"/>
<feOffset dx="-3.15629" dy="3.15629"/>
<feGaussianBlur stdDeviation="5.68133"/>
<feColorMatrix type="matrix" values="0 0 0 0 0.137255 0 0 0 0 0.819608 0 0 0 0 0.682353 0 0 0 0.3 0"/>
<feBlend mode="normal" in2="BackgroundImageFix" result="effect1_dropShadow_5011_1224"/>
<feBlend mode="normal" in="SourceGraphic" in2="effect1_dropShadow_5011_1224" result="shape"/>
</filter>
<filter id="filter3_d_5011_1224" x="74.9863" y="28.4849" width="44.9551" height="43.0613" filterUnits="userSpaceOnUse" color-interpolation-filters="sRGB">
<feFlood flood-opacity="0" result="BackgroundImageFix"/>
<feColorMatrix in="SourceAlpha" type="matrix" values="0 0 0 0 0 0 0 0 0 0 0 0 0 0 0 0 0 0 127 0" result="hardAlpha"/>
<feOffset dx="-1.89378"/>
<feColorMatrix type="matrix" values="0 0 0 0 0.760784 0 0 0 0 0.839216 0 0 0 0 0.839216 0 0 0 1 0"/>
<feBlend mode="normal" in2="BackgroundImageFix" result="effect1_dropShadow_5011_1224"/>
<feBlend mode="normal" in="SourceGraphic" in2="effect1_dropShadow_5011_1224" result="shape"/>
</filter>
<linearGradient id="paint0_linear_5011_1224" x1="59.0911" y1="71.1539" x2="57.6528" y2="42.0569" gradientUnits="userSpaceOnUse">
<stop offset="0.00741235" stop-color="#A5BEBE" stop-opacity="0"/>
<stop offset="1" stop-color="#A5BEBE"/>
</linearGradient>
<linearGradient id="paint1_linear_5011_1224" x1="99.6003" y1="59.5523" x2="101.274" y2="45.9451" gradientUnits="userSpaceOnUse">
<stop offset="0.00741235" stop-color="#A5BEBE" stop-opacity="0"/>
<stop offset="1" stop-color="#3E4343"/>
</linearGradient>
</defs>
</svg>
