<svg width="135" height="104" viewBox="0 0 135 104" fill="none" xmlns="http://www.w3.org/2000/svg">
<g filter="url(#filter0_d_5011_1223)">
<g filter="url(#filter1_d_5011_1223)">
<mask id="mask0_5011_1223" style="mask-type:alpha" maskUnits="userSpaceOnUse" x="15" y="28" width="44" height="45">
<circle cx="36.922" cy="50.6143" r="21.7601" fill="#C4C4C4"/>
</mask>
<g mask="url(#mask0_5011_1223)">
<circle cx="36.922" cy="50.6143" r="21.7601" fill="white"/>
<path d="M25.687 64.0828C30.5275 68.6416 41.5936 70.3972 47.8244 66.1877C45.8883 64.5101 44.1149 63.0542 42.8201 61.2529C41.8031 59.8471 41.0768 58.2283 40.81 56.1383C40.7839 55.9495 40.759 55.7712 40.7405 55.6028C40.424 53.0125 40.4282 51.9364 40.4226 49.4131C40.4181 49.2751 40.4083 49.1377 40.3945 49.0115C40.0313 46.3357 36.0106 45.7976 33.7752 46.8739C33.36 47.0686 33.0148 47.3195 32.7549 47.6196C32.4336 47.9904 32.26 48.4461 32.2915 48.9751C32.4483 51.6149 32.5446 53.6064 32.441 55.1833C32.1126 60.2407 30.8291 63.0494 25.687 64.0828Z" fill="#DBE5E5"/>
<path d="M32.7758 47.6173C33.7809 56.143 39.4182 59.321 42.8258 61.2576C41.8088 59.8518 41.0825 58.2329 40.8157 56.143C40.7896 55.9542 40.7647 55.7759 40.7462 55.6075C40.4455 53.0154 40.5403 51.94 40.4283 49.4177C40.4238 49.2798 40.4141 49.1424 40.4002 49.0161C40.037 46.3404 36.0163 45.8023 33.7809 46.8785C33.3815 47.0715 33.0311 47.323 32.7758 47.6173Z" fill="url(#paint0_linear_5011_1223)"/>
<path d="M27.4245 41.6105C27.5303 43.2754 28.3747 44.3109 29.6604 45.6711C30.9368 47.0199 32.1841 48.5583 34.4929 48.0948C36.8018 47.6313 35.9716 42.4561 38.9931 42.2036C42.0147 41.951 42.0158 42.2028 42.8845 40.4653C43.5293 39.1759 43.8516 34.9559 40.9504 33.3733C38.0491 31.7908 32.8913 33.3734 30.6348 38.5312C28.3783 38.8535 27.3187 39.9457 27.4245 41.6105Z" fill="#1D1D1B"/>
<path d="M33.8595 40.482C34.5474 39.7123 36.0471 38.9195 37.0322 38.8795C39.2511 38.7833 41.9499 38.761 42.7348 43.4733C43.5196 48.1856 42.5399 51.2915 41.6975 52.4634C40.7352 53.8128 39.0402 54.0885 37.721 53.6736C35.6266 53.0129 34.132 51.3991 32.0986 48.5016C30.7046 48.5016 28.7234 47.729 28.5302 46.1837C28.337 44.6384 29.5225 43.0458 31.3242 45.0293C32.0875 45.8677 32.7073 47.6226 32.7073 47.6226C33.6158 47.2191 33.6866 45.911 33.3989 44.8564C33.1111 43.8018 33.0531 42.9103 33.0531 42.2631C33.0531 41.6159 33.4549 40.9338 33.8595 40.482Z" fill="#DBE5E5"/>
<path d="M19.3306 82.9768V86.8509V100.344H51.6148C52.2473 100.344 52.7744 99.8173 52.7744 99.1848V98.2888C52.3 96.523 52.7744 95.6006 52.7744 94.5464C54.1448 100.344 64.0278 102.585 70.2211 94.5464C69.7203 92.8334 61.2605 81.8963 61.2605 81.8963C57.5709 78.3384 57.9399 74.3062 55.9106 69.6151C53.8813 64.8976 50.666 62.473 46.8973 62.473C46.8973 62.473 43.9976 63.2208 39.3386 62.842C35.8318 62.5568 31.3283 61.3799 26.3145 60.1802C22.414 59.0469 17.6175 59.7849 13.6643 62.842C10.4754 65.293 5.758 71.7762 5.758 89.3546C8.84147 89.1438 13.1109 89.9344 19.3042 89.8817C19.4096 86.3502 19.3306 85.7704 19.3306 82.9768Z" fill="white"/>
<path d="M36.7596 85.2739L38.0491 65.9321H40.628L42.8845 85.2739L40.3056 89.4646L36.7596 85.2739Z" fill="#23D1AE"/>
<path d="M38.0491 65.9325L37.082 62.3865L41.2727 62.7089L40.628 65.9325C40.628 65.9325 40.3057 66.2548 39.3386 66.2548C38.3715 66.2548 38.0491 65.9325 38.0491 65.9325Z" fill="#23D1AE"/>
<path d="M36.7597 67.2218L38.6939 61.0969C35.8571 60.5811 32.6765 58.6255 31.2796 57.8733L26.7665 60.7746C26.7665 60.7746 30.9572 65.2876 36.7597 67.2218Z" fill="white"/>
<path d="M47.0752 63.6757C45.5279 65.4809 43.2069 66.8993 41.5951 67.5441L39.6609 61.0968C41.2727 61.0968 43.2069 59.8074 43.2069 59.8074C44.2814 60.7745 46.5594 62.9021 47.0752 63.6757Z" fill="white"/>
<path d="M41.5951 67.5441C43.2069 66.8994 45.5279 65.481 47.0753 63.6758" stroke="#EBF5F5" stroke-width="0.631259" stroke-linecap="round"/>
<path d="M36.7597 67.2221C30.9572 65.288 26.7665 60.7749 26.7665 60.7749" stroke="#EBF5F5" stroke-width="0.631259" stroke-linecap="round"/>
<path d="M42.3116 111.809C42.3116 111.809 47.319 74.2007 44.5254 62.104C47.0291 62.3939 49.2692 61.7878 52.1155 63.5535C58.4142 67.454 63.3952 84.927 71.407 93.3077C72.0922 100.054 64.4494 101.003 62.0248 100.74C55.1463 101.767 53.0906 96.4702 53.0906 96.4702L52.6426 108.224C51.2985 110.464 44.4464 111.545 42.3116 111.809Z" fill="#23D1AE"/>
<path d="M44.5254 89.9871C44.5254 89.9871 45.1842 65.8991 42.6015 59.7322C45.9749 60.6019 47.767 62.025 47.767 62.025C47.767 62.025 48.2941 71.8552 44.5254 89.9871Z" fill="#23D1AE"/>
<path d="M47.7406 61.9985C47.7406 61.9985 48.2677 71.8288 44.499 89.9606" stroke="#00A88E" stroke-width="0.631259" stroke-miterlimit="10" stroke-linecap="round"/>
<path d="M29.1344 60.3117C29.1344 60.3117 32.2442 69.2459 34.7216 89.9868C35.4331 95.8902 35.6176 103.797 35.7494 111.808C26.5253 111.808 18.6717 109.832 14.2178 106.617C14.4286 101.082 18.0919 81.4743 14.2441 61.0233C19.9103 58.7304 23.6527 59.5211 29.1344 60.3117Z" fill="#23D1AE"/>
<path d="M30.9266 57.571C32.0071 62.104 34.1682 75.334 34.6953 89.9607C32.2706 84.5053 25.682 70.7219 24.0744 59.4686C26.4463 58.309 29.2399 57.571 30.9266 57.571Z" fill="#23D1AE"/>
<path d="M34.7216 89.9867C32.2706 84.5314 25.682 70.7216 24.0744 59.4683" stroke="#00A88E" stroke-width="0.631259" stroke-miterlimit="10" stroke-linecap="round"/>
<path d="M14.2441 61.0233C9.86927 62.6573 -0.698876 71.1435 -1.99025 81.5008C-3.09713 90.3822 -0.567104 96.4965 4.70379 99.7644C5.67891 97.1817 13.7961 94.7834 17.5648 92.4642C16.4579 90.8039 17.2749 84.9005 17.6175 80.6047C22.6512 75.2284 18.4345 60.6017 14.2441 61.0233Z" fill="#23D1AE"/>
</g>
</g>
</g>
<g filter="url(#filter2_d_5011_1223)">
<g filter="url(#filter3_d_5011_1223)">
<mask id="mask1_5011_1223" style="mask-type:alpha" maskUnits="userSpaceOnUse" x="46" y="9" width="81" height="80">
<circle cx="86.5653" cy="48.9827" r="39.8447" fill="#C4C4C4"/>
</mask>
<g mask="url(#mask1_5011_1223)">
<circle cx="86.5653" cy="48.9827" r="39.8447" fill="white"/>
<path d="M72.3734 45.6841C75.2099 47.386 81.4501 52.4916 81.4501 56.4626C82.5847 49.0878 93.9306 43.4149 99.0362 38.8766C104.142 34.3382 104.709 30.9345 103.575 26.9634C102.44 22.9924 99.0362 20.7232 96.1997 20.7232C93.3633 20.7232 92.2287 20.7232 89.9595 19.0213C87.6903 17.3194 85.9884 16.7521 81.4501 17.3194C76.9118 17.8867 70.6715 19.5886 66.7005 28.6653C62.7294 37.742 69.5369 43.9822 72.3734 45.6841Z" fill="#1D1D1B"/>
<path d="M93.0626 58.3411C93.5916 66.6596 98.4585 71.0268 104.172 76.6418C92.6394 83.1926 76.1344 79.0334 68.1994 70.6109C77.4041 69.4671 80.0491 64.684 81.3187 56.0535C81.7419 53.35 81.7419 49.8147 81.8477 45.2395C81.9535 39.4166 93.909 39.4166 93.38 46.6952C92.9568 51.2704 92.7452 53.0381 93.0626 58.3411Z" fill="#9EA3A3"/>
<path d="M93.2741 46.5912C92.9567 51.2703 92.7451 53.038 93.0625 58.3411C93.2741 62.0844 94.3321 64.9958 96.0249 67.4914C91.158 63.7481 86.8202 56.7813 84.5984 41.3921C88.0898 40.0404 93.5915 41.6001 93.2741 46.5912Z" fill="url(#paint1_linear_5011_1223)"/>
<path d="M82.6958 45.8968C84.7877 48.7993 89.0553 52.5855 92.8457 53.5639C95.2019 54.172 97.4125 53.8374 99.0362 51.357C100.351 49.2264 100.738 43.4148 100.171 35.4727C99.6034 27.5307 91.8522 27.0157 88.2576 28.6652C84.7655 30.3412 83.7193 36.04 83.0547 38.5796C79.4997 36.266 77.2384 37.8301 77.0505 40.2515C76.7861 42.5458 79.1868 45.0985 82.6958 45.8968Z" fill="#9DA6A6"/>
<circle cx="81.4501" cy="45.6837" r="1.13459" fill="white"/>
<path d="M88.8249 34.9053C84.8539 36.4937 86.5557 39.4437 83.7193 40.5783C80.3155 32.6361 71.2388 37.7418 71.8061 33.2035C72.3734 28.6651 78.0464 23.5595 87.123 21.8576C96.1997 20.1557 95.6324 25.2613 95.0651 28.6651C94.4978 32.0689 92.796 33.317 88.8249 34.9053Z" fill="#1D1D1B"/>
<path d="M82.5846 22.9927C85.4211 19.589 88.8249 21.2909 91.6613 22.9927C88.2576 22.4254 85.4211 24.1273 84.8538 26.9638C84.2865 29.8003 82.5847 31.5021 78.0463 31.5021C74.6425 31.5021 72.9406 33.7713 71.8061 37.7424C70.6715 34.3386 71.2388 30.3676 75.7771 29.233C80.3155 28.0984 79.7482 26.3965 82.5846 22.9927Z" fill="#7D9696"/>
<path d="M55.3546 71.2126C60.4603 70.6453 63.864 71.2126 67.835 69.5107C71.2388 84.8277 83.7192 104.116 91.6613 118.865C97.9016 105.25 103.007 71.2126 105.276 72.3472C107.546 73.4818 108.68 73.4818 113.786 74.0491C118.891 74.6164 120.593 81.4239 122.295 88.2314C123.997 95.0389 112.651 116.029 91.6613 123.404C64.9986 118.865 48.5471 96.1735 46.2779 84.8277C46.8452 75.751 51.9716 71.5885 55.3546 71.2126Z" fill="#FF3BEB"/>
<path d="M76.9117 71.78C85.9884 76.3184 96.1997 74.0492 98.4689 72.3473C99.6034 80.2894 99.0361 111.491 91.094 119.433C82.5846 105.25 75.7771 84.2605 76.9117 71.78Z" fill="white"/>
<path d="M91.6613 118.865C91.6613 118.865 96.767 81.424 96.767 67.2417C102.703 68.7722 105.926 72.2788 105.926 72.2788C105.926 72.2788 103.574 96.7409 91.6613 118.865Z" fill="#73F2C4"/>
<path d="M105.88 72.2317C105.88 72.2317 104.142 93.9037 91.6613 118.865" stroke="#00A88E" stroke-width="0.631259" stroke-miterlimit="10" stroke-linecap="round"/>
<path d="M76.9117 66.1069C78.8132 74.0841 85.4211 95.0389 91.094 119.432C84.2865 111.49 71.2388 87.6641 66.1331 69.5107C70.3072 67.47 73.9435 66.1069 76.9117 66.1069Z" fill="#73F2C4"/>
<path d="M91.0941 118.865C83.152 108.654 71.2388 88.7985 66.7005 69.5105" stroke="#00A88E" stroke-width="0.631259" stroke-miterlimit="10" stroke-linecap="round"/>
<path d="M88.4844 68.4292C89.2373 68.4292 89.8477 67.8188 89.8477 67.0658C89.8477 66.3128 89.2373 65.7024 88.4844 65.7024C87.7314 65.7024 87.121 66.3128 87.121 67.0658C87.121 67.8188 87.7314 68.4292 88.4844 68.4292Z" fill="white"/>
<path d="M90.4659 67.6838C91.1084 67.6838 91.6293 67.1629 91.6293 66.5204C91.6293 65.8778 91.1084 65.3569 90.4659 65.3569C89.8233 65.3569 89.3024 65.8778 89.3024 66.5204C89.3024 67.1629 89.8233 67.6838 90.4659 67.6838Z" fill="white"/>
<path d="M86.3213 68.0292C86.9638 68.0292 87.4847 67.5084 87.4847 66.8658C87.4847 66.2233 86.9638 65.7024 86.3213 65.7024C85.6787 65.7024 85.1578 66.2233 85.1578 66.8658C85.1578 67.5084 85.6787 68.0292 86.3213 68.0292Z" fill="white"/>
<path d="M92.3201 66.8658C92.9124 66.8658 93.3926 66.3856 93.3926 65.7932C93.3926 65.2009 92.9124 64.7207 92.3201 64.7207C91.7277 64.7207 91.2476 65.2009 91.2476 65.7932C91.2476 66.3856 91.7277 66.8658 92.3201 66.8658Z" fill="white"/>
<path d="M84.4306 67.502C85.023 67.502 85.5032 67.0218 85.5032 66.4295C85.5032 65.8371 85.023 65.3569 84.4306 65.3569C83.8383 65.3569 83.3581 65.8371 83.3581 66.4295C83.3581 67.0218 83.8383 67.502 84.4306 67.502Z" fill="white"/>
<path d="M93.9925 65.7022C94.5848 65.7022 95.065 65.222 95.065 64.6297C95.065 64.0373 94.5848 63.5571 93.9925 63.5571C93.4001 63.5571 92.9199 64.0373 92.9199 64.6297C92.9199 65.222 93.4001 65.7022 93.9925 65.7022Z" fill="white"/>
<path d="M82.6128 66.7752C83.2052 66.7752 83.6853 66.295 83.6853 65.7027C83.6853 65.1103 83.2052 64.6301 82.6128 64.6301C82.0205 64.6301 81.5403 65.1103 81.5403 65.7027C81.5403 66.295 82.0205 66.7752 82.6128 66.7752Z" fill="white"/>
<path d="M80.8676 65.7933C81.4599 65.7933 81.9401 65.3131 81.9401 64.7207C81.9401 64.1284 81.4599 63.6482 80.8676 63.6482C80.2752 63.6482 79.795 64.1284 79.795 64.7207C79.795 65.3131 80.2752 65.7933 80.8676 65.7933Z" fill="white"/>
<path d="M79.5588 64.5937C80.0809 64.5937 80.5041 64.1705 80.5041 63.6484C80.5041 63.1263 80.0809 62.7031 79.5588 62.7031C79.0367 62.7031 78.6135 63.1263 78.6135 63.6484C78.6135 64.1705 79.0367 64.5937 79.5588 64.5937Z" fill="white"/>
</g>
</g>
</g>
<defs>
<filter id="filter0_d_5011_1223" x="0.642974" y="20.6479" width="66.2455" height="66.2453" filterUnits="userSpaceOnUse" color-interpolation-filters="sRGB">
<feFlood flood-opacity="0" result="BackgroundImageFix"/>
<feColorMatrix in="SourceAlpha" type="matrix" values="0 0 0 0 0 0 0 0 0 0 0 0 0 0 0 0 0 0 127 0" result="hardAlpha"/>
<feOffset dx="-3.15629" dy="3.15629"/>
<feGaussianBlur stdDeviation="5.68133"/>
<feColorMatrix type="matrix" values="0 0 0 0 0.137255 0 0 0 0 0.819608 0 0 0 0 0.682353 0 0 0 0.3 0"/>
<feBlend mode="normal" in2="BackgroundImageFix" result="effect1_dropShadow_5011_1223"/>
<feBlend mode="normal" in="SourceGraphic" in2="effect1_dropShadow_5011_1223" result="shape"/>
</filter>
<filter id="filter1_d_5011_1223" x="13.2681" y="28.8542" width="45.4139" height="43.52" filterUnits="userSpaceOnUse" color-interpolation-filters="sRGB">
<feFlood flood-opacity="0" result="BackgroundImageFix"/>
<feColorMatrix in="SourceAlpha" type="matrix" values="0 0 0 0 0 0 0 0 0 0 0 0 0 0 0 0 0 0 127 0" result="hardAlpha"/>
<feOffset dx="-1.89378"/>
<feColorMatrix type="matrix" values="0 0 0 0 0.760784 0 0 0 0 0.839216 0 0 0 0 0.839216 0 0 0 1 0"/>
<feBlend mode="normal" in2="BackgroundImageFix" result="effect1_dropShadow_5011_1223"/>
<feBlend mode="normal" in="SourceGraphic" in2="effect1_dropShadow_5011_1223" result="shape"/>
</filter>
<filter id="filter2_d_5011_1223" x="32.2016" y="0.931575" width="102.415" height="102.415" filterUnits="userSpaceOnUse" color-interpolation-filters="sRGB">
<feFlood flood-opacity="0" result="BackgroundImageFix"/>
<feColorMatrix in="SourceAlpha" type="matrix" values="0 0 0 0 0 0 0 0 0 0 0 0 0 0 0 0 0 0 127 0" result="hardAlpha"/>
<feOffset dx="-3.15629" dy="3.15629"/>
<feGaussianBlur stdDeviation="5.68133"/>
<feColorMatrix type="matrix" values="0 0 0 0 0.137255 0 0 0 0 0.819608 0 0 0 0 0.682353 0 0 0 0.3 0"/>
<feBlend mode="normal" in2="BackgroundImageFix" result="effect1_dropShadow_5011_1223"/>
<feBlend mode="normal" in="SourceGraphic" in2="effect1_dropShadow_5011_1223" result="shape"/>
</filter>
<filter id="filter3_d_5011_1223" x="44.8268" y="9.13794" width="81.5832" height="79.6895" filterUnits="userSpaceOnUse" color-interpolation-filters="sRGB">
<feFlood flood-opacity="0" result="BackgroundImageFix"/>
<feColorMatrix in="SourceAlpha" type="matrix" values="0 0 0 0 0 0 0 0 0 0 0 0 0 0 0 0 0 0 127 0" result="hardAlpha"/>
<feOffset dx="-1.89378"/>
<feColorMatrix type="matrix" values="0 0 0 0 0.760784 0 0 0 0 0.839216 0 0 0 0 0.839216 0 0 0 1 0"/>
<feBlend mode="normal" in2="BackgroundImageFix" result="effect1_dropShadow_5011_1223"/>
<feBlend mode="normal" in="SourceGraphic" in2="effect1_dropShadow_5011_1223" result="shape"/>
</filter>
<linearGradient id="paint0_linear_5011_1223" x1="38.1485" y1="61.4858" x2="37.3974" y2="46.2907" gradientUnits="userSpaceOnUse">
<stop offset="0.00741235" stop-color="#A5BEBE" stop-opacity="0"/>
<stop offset="1" stop-color="#A5BEBE"/>
</linearGradient>
<linearGradient id="paint1_linear_5011_1223" x1="88.7667" y1="66.6316" x2="91.8646" y2="41.4501" gradientUnits="userSpaceOnUse">
<stop offset="0.00741235" stop-color="#A5BEBE" stop-opacity="0"/>
<stop offset="1" stop-color="#3E4343"/>
</linearGradient>
</defs>
</svg>
