<svg width="122" height="83" viewBox="0 0 122 83" fill="none" xmlns="http://www.w3.org/2000/svg">
<g filter="url(#filter0_d_1412_812)">
<g filter="url(#filter1_d_1412_812)">
<mask id="mask0_1412_812" style="mask-type:alpha" maskUnits="userSpaceOnUse" x="18" y="10" width="54" height="54">
<circle cx="44.5819" cy="37.2052" r="26.42" fill="#C4C4C4"/>
</mask>
<g mask="url(#mask0_1412_812)">
<circle cx="44.5819" cy="37.2052" r="26.42" fill="white"/>
<path d="M30.9409 53.5587C36.818 59.0937 50.2539 61.2253 57.8191 56.1144C55.4683 54.0775 53.3152 52.3098 51.7431 50.1228C50.5083 48.4159 49.6265 46.4504 49.3024 43.9129C49.2708 43.6836 49.2406 43.4671 49.2181 43.2627C48.8338 40.1176 48.839 38.8111 48.8322 35.7474C48.8267 35.5799 48.8148 35.4131 48.798 35.2598C48.3571 32.011 43.4753 31.3577 40.7612 32.6644C40.2571 32.9008 39.838 33.2055 39.5224 33.5698C39.1323 34.02 38.9215 34.5733 38.9597 35.2156C39.1502 38.4208 39.2671 40.8388 39.1412 42.7534C38.7426 48.8937 37.1841 52.304 30.9409 53.5587Z" fill="#DBE5E5"/>
<path d="M39.5479 33.5666C40.7683 43.9181 47.6128 47.7766 51.7501 50.128C50.5153 48.4211 49.6335 46.4556 49.3095 43.9181C49.2778 43.6888 49.2476 43.4723 49.2251 43.2679C48.86 40.1207 48.9752 38.815 48.8392 35.7526C48.8337 35.5851 48.8219 35.4183 48.805 35.265C48.3641 32.0162 43.4823 31.3629 40.7683 32.6696C40.2833 32.9039 39.8578 33.2093 39.5479 33.5666Z" fill="url(#paint0_linear_1412_812)"/>
<path d="M33.0506 26.274C33.179 28.2954 34.2043 29.5527 35.7653 31.2041C37.315 32.8418 38.8294 34.7097 41.6327 34.1469C44.436 33.5842 43.428 27.3007 47.0966 26.994C50.7652 26.6874 50.7665 26.9931 51.8214 24.8836C52.6042 23.318 52.9955 18.1943 49.473 16.2728C45.9505 14.3514 39.6881 16.2728 36.9483 22.5352C34.2085 22.9266 32.9221 24.2527 33.0506 26.274Z" fill="#1D1D1B"/>
<path d="M40.8636 24.9039C41.6989 23.9693 43.5197 23.0067 44.7158 22.9581C47.4098 22.8413 50.6866 22.8143 51.6395 28.5358C52.5924 34.2572 51.403 38.0283 50.3801 39.4511C49.2117 41.0895 47.1538 41.4242 45.5521 40.9205C43.0092 40.1183 41.1944 38.1589 38.7256 34.6409C37.0332 34.6409 34.6276 33.7028 34.3931 31.8266C34.1585 29.9503 35.5979 28.0167 37.7854 30.425C38.7122 31.4429 39.4647 33.5736 39.4647 33.5736C40.5677 33.0837 40.6537 31.4955 40.3043 30.215C39.9549 28.9346 39.8845 27.8521 39.8845 27.0664C39.8845 26.2806 40.3724 25.4525 40.8636 24.9039Z" fill="#DBE5E5"/>
<path d="M23.2233 76.4987V81.2024V97.5856H62.4213C63.1893 97.5856 63.8292 96.9456 63.8292 96.1776V95.0897C63.2533 92.9458 63.8292 91.8259 63.8292 90.5459C65.4931 97.5856 77.4925 100.305 85.0121 90.5459C84.4042 88.466 74.1327 75.1867 74.1327 75.1867C69.6529 70.867 70.1009 65.9712 67.637 60.2755C65.1732 54.5478 61.2694 51.604 56.6936 51.604C56.6936 51.604 53.1729 52.5119 47.5161 52.0519C43.2584 51.7057 37.7905 50.2767 31.7029 48.8201C26.9671 47.4442 21.1434 48.3401 16.3437 52.0519C12.4719 55.0278 6.7442 62.8994 6.7442 84.2423C10.488 83.9863 15.6717 84.9462 23.1913 84.8822C23.3193 80.5945 23.2233 79.8905 23.2233 76.4987Z" fill="white"/>
<path d="M44.3849 79.2877L45.9505 55.804H49.0816L51.8214 79.2877L48.6902 84.3759L44.3849 79.2877Z" fill="#23D1AE"/>
<path d="M45.9506 55.8039L44.7764 51.4985L49.8645 51.89L49.0817 55.8039C49.0817 55.8039 48.6903 56.1953 47.5161 56.1953C46.342 56.1953 45.9506 55.8039 45.9506 55.8039Z" fill="#23D1AE"/>
<path d="M44.3849 57.3695L46.7333 49.933C43.289 49.3068 39.4272 46.9323 37.7311 46.019L32.2516 49.5416C32.2516 49.5416 37.3397 55.0212 44.3849 57.3695Z" fill="white"/>
<path d="M56.9096 53.0642C55.0309 55.256 52.2128 56.9782 50.2558 57.7609L47.9075 49.933C49.8645 49.933 52.2128 48.3674 52.2128 48.3674C53.5175 49.5416 56.2834 52.1248 56.9096 53.0642Z" fill="white"/>
<path d="M50.2559 57.761C52.2128 56.9782 55.0309 55.256 56.9096 53.0642" stroke="#EBF5F5" stroke-width="0.766442" stroke-linecap="round"/>
<path d="M44.3849 57.3697C37.3397 55.0213 32.2516 49.5417 32.2516 49.5417" stroke="#EBF5F5" stroke-width="0.766442" stroke-linecap="round"/>
<path d="M51.1258 111.505C51.1258 111.505 57.2055 65.843 53.8137 51.1558C56.8535 51.5077 59.5734 50.7718 63.0292 52.9157C70.6768 57.6514 76.7245 78.8663 86.4519 89.0418C87.2839 97.2334 78.0044 98.3853 75.0605 98.0653C66.709 99.3133 64.2131 92.8816 64.2131 92.8816L63.6691 107.153C62.0372 109.873 53.7177 111.185 51.1258 111.505Z" fill="#23D1AE"/>
<path d="M53.8136 85.01C53.8136 85.01 54.6136 55.7635 51.4777 48.2759C55.5735 49.3318 57.7494 51.0597 57.7494 51.0597C57.7494 51.0597 58.3894 62.9951 53.8136 85.01Z" fill="#23D1AE"/>
<path d="M57.7174 51.0276C57.7174 51.0276 58.3574 62.963 53.7816 84.9778" stroke="#00A88E" stroke-width="0.766442" stroke-miterlimit="10" stroke-linecap="round"/>
<path d="M35.1266 48.98C35.1266 48.98 38.9024 59.8274 41.9103 85.0101C42.7742 92.1777 42.9982 101.777 43.1582 111.505C31.9588 111.505 22.4233 109.105 17.0156 105.201C17.2716 98.4814 21.7193 74.6747 17.0476 49.8439C23.9272 47.0601 28.471 48.02 35.1266 48.98Z" fill="#23D1AE"/>
<path d="M37.3026 45.6521C38.6145 51.1558 41.2384 67.219 41.8784 84.978C38.9345 78.3544 30.9349 61.6193 28.983 47.956C31.8629 46.5481 35.2547 45.6521 37.3026 45.6521Z" fill="#23D1AE"/>
<path d="M41.9104 85.0101C38.9345 78.3865 30.9349 61.6193 28.983 47.9561" stroke="#00A88E" stroke-width="0.766442" stroke-miterlimit="10" stroke-linecap="round"/>
<path d="M17.0476 49.8438C11.7358 51.8277 -1.09549 62.1312 -2.66341 74.7065C-4.00734 85.49 -0.935499 92.9136 5.46417 96.8814C6.64811 93.7456 16.5036 90.8337 21.0793 88.0179C19.7354 86.002 20.7274 78.8343 21.1433 73.6186C27.255 67.0909 22.1353 49.3319 17.0476 49.8438Z" fill="#23D1AE"/>
</g>
</g>
</g>
<g filter="url(#filter2_d_1412_812)">
<g filter="url(#filter3_d_1412_812)">
<mask id="mask1_1412_812" style="mask-type:alpha" maskUnits="userSpaceOnUse" x="59" y="13" width="53" height="53">
<circle cx="85.3645" cy="39.0877" r="25.9676" fill="#C4C4C4"/>
</mask>
<g mask="url(#mask1_1412_812)">
<circle cx="85.3645" cy="39.0877" r="25.9676" fill="white"/>
<path d="M76.1153 36.9381C77.9639 38.0473 82.0307 41.3747 82.0307 43.9627C82.7701 39.1564 90.1645 35.4593 93.4919 32.5016C96.8194 29.5438 97.1891 27.3255 96.4497 24.7375C95.7102 22.1495 93.4919 20.6707 91.6434 20.6707C89.7948 20.6707 89.0553 20.6707 87.5765 19.5615C86.0976 18.4524 84.9884 18.0826 82.0307 18.4524C79.073 18.8221 75.0061 19.9312 72.4181 25.8467C69.8301 31.7621 74.2667 35.829 76.1153 36.9381Z" fill="#1D1D1B"/>
<path d="M89.5988 45.1872C89.9436 50.6085 93.1154 53.4547 96.8389 57.1141C89.323 61.3834 78.5664 58.6728 73.395 53.1837C79.3939 52.4382 81.1177 49.321 81.9451 43.6964C82.2209 41.9344 82.2209 39.6304 82.2899 36.6486C82.3588 32.8537 90.1505 32.8537 89.8057 37.5974C89.5299 40.5791 89.392 41.7311 89.5988 45.1872Z" fill="#DBE5E5"/>
<path d="M89.7366 37.5294C89.5298 40.5788 89.3919 41.7309 89.5987 45.187C89.7367 47.6266 90.4262 49.524 91.5294 51.1504C88.3576 48.7108 85.5305 44.1705 84.0825 34.141C86.358 33.2601 89.9435 34.2766 89.7366 37.5294Z" fill="url(#paint1_linear_1412_812)"/>
<path d="M82.8426 37.0768C84.2059 38.9684 86.9872 41.436 89.4575 42.0736C90.9931 42.4699 92.4338 42.2518 93.4919 40.6353C94.3488 39.2468 94.6011 35.4592 94.2313 30.2832C93.8616 25.1073 88.81 24.7716 86.4673 25.8467C84.1915 26.9389 83.5096 30.653 83.0765 32.3081C80.7596 30.8002 79.2859 31.8196 79.1634 33.3977C78.9911 34.8929 80.5557 36.5565 82.8426 37.0768Z" fill="#DBE5E5"/>
<circle cx="82.0308" cy="36.9382" r="0.739431" fill="white"/>
<path d="M86.837 29.9135C84.249 30.9487 85.3581 32.8712 83.5095 33.6106C81.2912 28.4346 75.3758 31.7621 75.7455 28.8043C76.1152 25.8466 79.8124 22.5192 85.7278 21.41C91.6433 20.3009 91.2736 23.6283 90.9038 25.8466C90.5341 28.0649 89.425 28.8783 86.837 29.9135Z" fill="#1D1D1B"/>
<path d="M82.7701 22.1496C84.6187 19.9313 86.837 21.0405 88.6856 22.1496C86.4673 21.7799 84.6187 22.8891 84.249 24.7376C83.8793 26.5862 82.7702 27.6954 79.8124 27.6954C77.5941 27.6954 76.4849 29.1742 75.7455 31.7622C75.0061 29.5439 75.3758 26.9559 78.3335 26.2165C81.2912 25.4771 80.9215 24.3679 82.7701 22.1496Z" fill="#7D9696"/>
<path d="M65.0238 53.5755C68.3513 53.2057 70.5696 53.5755 73.1576 52.4663C75.3759 62.4486 83.5096 75.019 88.6857 84.6316C92.7525 75.7584 96.08 53.5755 97.5588 54.3149C99.0377 55.0543 99.7771 55.0543 103.105 55.424C106.432 55.7937 107.541 60.2303 108.65 64.6669C109.759 69.1035 102.365 82.783 88.6857 87.5893C71.309 84.6316 60.5873 69.8429 59.1084 62.4486C59.4781 56.5332 62.8191 53.8205 65.0238 53.5755Z" fill="#FF33EE"/>
<path d="M79.073 53.9451C84.9885 56.9028 91.6434 55.4239 93.1222 54.3148C93.8616 59.4908 93.4919 79.8252 88.3159 85.0012C82.7702 75.7583 78.3336 62.0788 79.073 53.9451Z" fill="white"/>
<path d="M88.6857 84.6314C88.6857 84.6314 92.0132 60.2302 92.0132 50.9873C95.8821 51.9848 97.9826 54.2701 97.9826 54.2701C97.9826 54.2701 96.4498 70.2125 88.6857 84.6314Z" fill="#73F2C4"/>
<path d="M97.9523 54.2393C97.9523 54.2393 96.8195 68.3633 88.6857 84.6308" stroke="#00A88E" stroke-width="0.766442" stroke-miterlimit="10" stroke-linecap="round"/>
<path d="M79.0731 50.2478C80.3123 55.4466 84.6188 69.1033 88.316 85.0011C83.8794 79.8251 75.3759 64.297 72.0485 52.4661C74.7688 51.1362 77.1386 50.2478 79.0731 50.2478Z" fill="#73F2C4"/>
<path d="M88.316 84.6311C83.14 77.9762 75.3759 65.0362 72.4182 52.4658" stroke="#00A88E" stroke-width="0.766442" stroke-miterlimit="10" stroke-linecap="round"/>
<path d="M86.6152 51.7612C87.106 51.7612 87.5038 51.3634 87.5038 50.8727C87.5038 50.3819 87.106 49.9841 86.6152 49.9841C86.1245 49.9841 85.7267 50.3819 85.7267 50.8727C85.7267 51.3634 86.1245 51.7612 86.6152 51.7612Z" fill="white"/>
<path d="M87.9066 51.2757C88.3254 51.2757 88.6648 50.9363 88.6648 50.5175C88.6648 50.0987 88.3254 49.7593 87.9066 49.7593C87.4878 49.7593 87.1484 50.0987 87.1484 50.5175C87.1484 50.9363 87.4878 51.2757 87.9066 51.2757Z" fill="white"/>
<path d="M85.2054 51.5006C85.6242 51.5006 85.9637 51.1611 85.9637 50.7424C85.9637 50.3236 85.6242 49.9841 85.2054 49.9841C84.7867 49.9841 84.4472 50.3236 84.4472 50.7424C84.4472 51.1611 84.7867 51.5006 85.2054 51.5006Z" fill="white"/>
<path d="M89.115 50.7425C89.501 50.7425 89.814 50.4295 89.814 50.0435C89.814 49.6574 89.501 49.3445 89.115 49.3445C88.729 49.3445 88.416 49.6574 88.416 50.0435C88.416 50.4295 88.729 50.7425 89.115 50.7425Z" fill="white"/>
<path d="M83.9733 51.1573C84.3593 51.1573 84.6723 50.8443 84.6723 50.4583C84.6723 50.0722 84.3593 49.7593 83.9733 49.7593C83.5872 49.7593 83.2743 50.0722 83.2743 50.4583C83.2743 50.8443 83.5872 51.1573 83.9733 51.1573Z" fill="white"/>
<path d="M90.2049 49.9844C90.5909 49.9844 90.9039 49.6715 90.9039 49.2854C90.9039 48.8994 90.5909 48.5864 90.2049 48.5864C89.8189 48.5864 89.5059 48.8994 89.5059 49.2854C89.5059 49.6715 89.8189 49.9844 90.2049 49.9844Z" fill="white"/>
<path d="M82.7886 50.6834C83.1747 50.6834 83.4876 50.3704 83.4876 49.9844C83.4876 49.5983 83.1747 49.2854 82.7886 49.2854C82.4026 49.2854 82.0897 49.5983 82.0897 49.9844C82.0897 50.3704 82.4026 50.6834 82.7886 50.6834Z" fill="white"/>
<path d="M81.6512 50.0435C82.0372 50.0435 82.3502 49.7305 82.3502 49.3445C82.3502 48.9585 82.0372 48.6455 81.6512 48.6455C81.2652 48.6455 80.9522 48.9585 80.9522 49.3445C80.9522 49.7305 81.2652 50.0435 81.6512 50.0435Z" fill="white"/>
<path d="M80.7982 49.2619C81.1385 49.2619 81.4143 48.9861 81.4143 48.6458C81.4143 48.3056 81.1385 48.0298 80.7982 48.0298C80.458 48.0298 80.1822 48.3056 80.1822 48.6458C80.1822 48.9861 80.458 49.2619 80.7982 49.2619Z" fill="white"/>
</g>
</g>
</g>
<defs>
<filter id="filter0_d_1412_812" x="0.533758" y="0.821409" width="80.4319" height="80.432" filterUnits="userSpaceOnUse" color-interpolation-filters="sRGB">
<feFlood flood-opacity="0" result="BackgroundImageFix"/>
<feColorMatrix in="SourceAlpha" type="matrix" values="0 0 0 0 0 0 0 0 0 0 0 0 0 0 0 0 0 0 127 0" result="hardAlpha"/>
<feOffset dx="-3.83221" dy="3.83221"/>
<feGaussianBlur stdDeviation="6.89798"/>
<feColorMatrix type="matrix" values="0 0 0 0 0.137255 0 0 0 0 0.819608 0 0 0 0 0.682353 0 0 0 0.3 0"/>
<feBlend mode="normal" in2="BackgroundImageFix" result="effect1_dropShadow_1412_812"/>
<feBlend mode="normal" in="SourceGraphic" in2="effect1_dropShadow_1412_812" result="shape"/>
</filter>
<filter id="filter1_d_1412_812" x="15.8626" y="10.7852" width="55.1394" height="52.8401" filterUnits="userSpaceOnUse" color-interpolation-filters="sRGB">
<feFlood flood-opacity="0" result="BackgroundImageFix"/>
<feColorMatrix in="SourceAlpha" type="matrix" values="0 0 0 0 0 0 0 0 0 0 0 0 0 0 0 0 0 0 127 0" result="hardAlpha"/>
<feOffset dx="-2.29933"/>
<feColorMatrix type="matrix" values="0 0 0 0 0.760784 0 0 0 0 0.839216 0 0 0 0 0.839216 0 0 0 1 0"/>
<feBlend mode="normal" in2="BackgroundImageFix" result="effect1_dropShadow_1412_812"/>
<feBlend mode="normal" in="SourceGraphic" in2="effect1_dropShadow_1412_812" result="shape"/>
</filter>
<filter id="filter2_d_1412_812" x="41.7687" y="3.15637" width="79.527" height="79.527" filterUnits="userSpaceOnUse" color-interpolation-filters="sRGB">
<feFlood flood-opacity="0" result="BackgroundImageFix"/>
<feColorMatrix in="SourceAlpha" type="matrix" values="0 0 0 0 0 0 0 0 0 0 0 0 0 0 0 0 0 0 127 0" result="hardAlpha"/>
<feOffset dx="-3.83221" dy="3.83221"/>
<feGaussianBlur stdDeviation="6.89798"/>
<feColorMatrix type="matrix" values="0 0 0 0 0.137255 0 0 0 0 0.819608 0 0 0 0 0.682353 0 0 0 0.3 0"/>
<feBlend mode="normal" in2="BackgroundImageFix" result="effect1_dropShadow_1412_812"/>
<feBlend mode="normal" in="SourceGraphic" in2="effect1_dropShadow_1412_812" result="shape"/>
</filter>
<filter id="filter3_d_1412_812" x="57.0976" y="13.1201" width="54.2344" height="51.9351" filterUnits="userSpaceOnUse" color-interpolation-filters="sRGB">
<feFlood flood-opacity="0" result="BackgroundImageFix"/>
<feColorMatrix in="SourceAlpha" type="matrix" values="0 0 0 0 0 0 0 0 0 0 0 0 0 0 0 0 0 0 127 0" result="hardAlpha"/>
<feOffset dx="-2.29933"/>
<feColorMatrix type="matrix" values="0 0 0 0 0.760784 0 0 0 0 0.839216 0 0 0 0 0.839216 0 0 0 1 0"/>
<feBlend mode="normal" in2="BackgroundImageFix" result="effect1_dropShadow_1412_812"/>
<feBlend mode="normal" in="SourceGraphic" in2="effect1_dropShadow_1412_812" result="shape"/>
</filter>
<linearGradient id="paint0_linear_1412_812" x1="46.0711" y1="50.405" x2="45.1591" y2="31.9559" gradientUnits="userSpaceOnUse">
<stop offset="0.00741235" stop-color="#A5BEBE" stop-opacity="0"/>
<stop offset="1" stop-color="#A5BEBE"/>
</linearGradient>
<linearGradient id="paint1_linear_1412_812" x1="86.7991" y1="50.5901" x2="88.8181" y2="34.1788" gradientUnits="userSpaceOnUse">
<stop offset="0.00741235" stop-color="#A5BEBE" stop-opacity="0"/>
<stop offset="1" stop-color="#A5BEBE"/>
</linearGradient>
</defs>
</svg>
